<?xml version="1.0" standalone="no"?>
<!DOCTYPE svg PUBLIC "-//W3C//DTD SVG 1.1//EN" "http://www.w3.org/Graphics/SVG/1.1/DTD/svg11.dtd" >
<svg xmlns="http://www.w3.org/2000/svg" xmlns:xlink="http://www.w3.org/1999/xlink" version="1.1">
<metadata>
Created by FontForge 20170731 at Fri Sep  7 16:57:26 2018
 By Aleksey,,,
Copyright 2018 The Sarabun Project Authors (https://github.com/cadsondemak/Sarabun)
</metadata>
<defs>
<font id="Sarabun-Medium" horiz-adv-x="0" >
  <font-face 
    font-family="Sarabun Medium"
    font-weight="500"
    font-stretch="normal"
    units-per-em="1000"
    panose-1="0 0 6 0 0 0 0 0 0 0"
    ascent="800"
    descent="-200"
    x-height="500"
    cap-height="700"
    bbox="-680 -543 1270 1270"
    underline-thickness="50"
    underline-position="-150"
    unicode-range="U+000D-FB02"
  />
<missing-glyph horiz-adv-x="700" 
d="M100 750h500v-750h-500v750zM556 41v668h-412v-668h412z" />
    <glyph glyph-name="fi" unicode="fi" horiz-adv-x="582" 
d="M92 430h-83v70h83v62q0 72 43 113.5t119 41.5q32 0 60.5 -10t46.5 -28l-36 -60q-25 22 -62 22q-33 0 -52.5 -22.5t-19.5 -61.5v-57h142v-70h-142v-430h-99v430zM416 594q-18 17 -18 46t18 46t49 17t49.5 -17t18.5 -46t-18.5 -46t-49.5 -17t-49 17zM416 500h99v-500h-99
v500z" />
    <glyph glyph-name="fl" unicode="fl" horiz-adv-x="628" 
d="M92 430h-83v70h83v62q0 72 43 113.5t119 41.5q32 0 60.5 -10t46.5 -28l-36 -60q-25 22 -62 22q-33 0 -52.5 -22.5t-19.5 -61.5v-57h142v-70h-142v-430h-99v430zM433 22.5q-29 32.5 -29 96.5v623h99v-623q0 -31 11.5 -44t37.5 -13q21 0 52 13l15 -57q-39 -28 -100 -28
q-57 0 -86 32.5z" />
    <glyph glyph-name="uni0E240E45" unicode="&#xe24;&#xe45;" horiz-adv-x="889" 
d="M770 543q49 -43 49 -123v-670h-100v666q0 44 -24.5 67.5t-70.5 23.5q-49 0 -77 -32t-31 -92v-633h-98v623q0 61 -37.5 97.5t-98.5 36.5q-52 0 -92.5 -23t-55.5 -62q35 -5 66.5 -18t50.5 -29v-24q-37 -12 -57.5 -38.5t-20.5 -63.5v-56q10 3 21 3q45 0 74 -28.5t29 -74.5
t-30.5 -74.5t-79.5 -28.5q-50 0 -82 30.5t-32 79.5v145q0 37 19.5 66.5t52.5 44.5q-40 13 -105 18q3 63 35 111t87.5 74.5t126.5 26.5q57 0 103 -19t77 -54q26 36 67 54.5t93 18.5q92 0 141 -43zM160 126q-13 -13 -13 -33t13 -33t33 -13t33 13t13 33t-13 33t-33 13t-33 -13z
" />
    <glyph glyph-name="uni0E260E45" unicode="&#xe26;&#xe45;" horiz-adv-x="918" 
d="M798 543q49 -43 49 -123v-670h-99v666q0 44 -24.5 67.5t-71.5 23.5q-49 0 -76.5 -32.5t-30.5 -91.5v-633h-99v623q0 62 -36 98t-95 36q-50 0 -88 -22t-53 -63q36 -5 69 -18t51 -29v-24q-34 -10 -51 -33.5t-17 -54.5q0 -13 8 -59q12 -62 12 -100q0 -52 -32.5 -83
t-84.5 -31q-48 0 -78.5 28.5t-30.5 74.5t28 75.5t73 29.5q11 0 27 -4q-11 39 -11 65q0 31 13.5 57.5t36.5 39.5q-37 13 -107 18q3 62 33 110t84 75t125 27q57 0 103 -18t75 -52q26 34 66 52t91 18q92 0 141 -43zM158 61q13 13 13 33t-13 33t-33 13t-33 -13t-13 -33t13 -33
t33 -13t33 13z" />
    <glyph glyph-name=".notdef" horiz-adv-x="700" 
d="M100 750h500v-750h-500v750zM556 41v668h-412v-668h412z" />
    <glyph glyph-name=".null" 
 />
    <glyph glyph-name="nonmarkingreturn" unicode="&#xd;" horiz-adv-x="240" 
 />
    <glyph glyph-name="NULL" 
 />
    <glyph glyph-name="NULL" 
 />
    <glyph glyph-name="space" unicode=" " horiz-adv-x="240" 
 />
    <glyph glyph-name="exclam" unicode="!" horiz-adv-x="243" 
d="M62 700h119l-13 -498h-93zM66 10.5q-21 20.5 -21 52.5t21 52.5t55 20.5t55.5 -20.5t21.5 -52.5t-21.5 -52.5t-55.5 -20.5t-55 20.5z" />
    <glyph glyph-name="quotedbl" unicode="&#x22;" horiz-adv-x="371" 
d="M45 710h106l-10 -252h-86zM220 710h106l-10 -252h-86z" />
    <glyph glyph-name="numbersign" unicode="#" horiz-adv-x="693" 
d="M556 425l-19 -151h87v-80h-97l-24 -194h-101l24 194h-189l-24 -194h-101l24 194h-86v80h96l19 151h-96v81h106l24 194h101l-24 -194h189l24 194h101l-24 -194h77v-81h-87zM455 425h-189l-19 -151h189z" />
    <glyph glyph-name="dollar" unicode="$" horiz-adv-x="533" 
d="M452 58.5q-48 -50.5 -132 -64.5v-74h-89v72q-61 7 -112.5 36t-83.5 76l65 64q31 -40 78.5 -64.5t91.5 -24.5q55 0 88.5 27t33.5 71q0 30 -11.5 51t-40.5 41.5t-85 48.5q-108 53 -152 100.5t-44 112.5q0 71 46.5 118t125.5 58v62h89v-62q57 -8 100.5 -35.5t65.5 -69.5
l-70 -52q-24 34 -59.5 52.5t-76.5 18.5q-52 0 -82 -23.5t-30 -64.5q0 -25 12.5 -43t45 -38.5t100.5 -53.5q95 -46 134.5 -94.5t39.5 -118.5q0 -76 -48 -126.5z" />
    <glyph glyph-name="percent" unicode="%" horiz-adv-x="925" 
d="M90.5 363.5q-45.5 55.5 -45.5 145.5t45.5 145.5t119.5 55.5q73 0 118.5 -55.5t45.5 -145.5t-45.5 -145.5t-118.5 -55.5q-74 0 -119.5 55.5zM619 700h111l-429 -713h-110zM264 418.5q20 34.5 20 90.5t-20 90t-54 34t-54.5 -34t-20.5 -90q0 -57 20.5 -91t54.5 -34t54 34.5z
M596 45.5q-45 55.5 -45 146.5q0 90 45 145.5t119 55.5t119.5 -55.5t45.5 -145.5q0 -91 -45.5 -146.5t-119.5 -55.5t-119 55.5zM769 101.5q20 34.5 20 90.5t-20 90t-54 34t-54 -34t-20 -90q0 -57 20 -91t54 -34t54 34.5z" />
    <glyph glyph-name="ampersand" unicode="&#x26;" horiz-adv-x="678" 
d="M587 -10q-44 34 -88 71q-44 -34 -98 -52.5t-114 -18.5q-75 0 -131.5 26.5t-87.5 73.5t-31 109q0 63 36.5 114.5t103.5 83.5q-55 86 -55 156q0 69 48.5 113t127.5 44q77 0 124.5 -42t47.5 -110q0 -117 -149 -196l5 -6q61 -72 167 -165q36 57 46 135h97q-10 -113 -71 -197
l83 -67zM242.5 608q-21.5 -21 -21.5 -56q0 -55 57 -135q47 31 70 68t23 71q0 33 -19.5 53t-51.5 20q-36 0 -57.5 -21zM431 122q-120 108 -187 186q-14 16 -20 24q-36 -24 -56 -57.5t-20 -70.5q0 -56 40.5 -90.5t108.5 -34.5q76 0 134 43z" />
    <glyph glyph-name="quotesingle" unicode="'" horiz-adv-x="196" 
d="M45 710h106l-10 -252h-86z" />
    <glyph glyph-name="parenleft" unicode="(" horiz-adv-x="330" 
d="M79.5 109q-39.5 104 -39.5 235t39.5 234.5t115.5 171.5h105q-72 -60 -112.5 -167t-40.5 -239t40.5 -239t112.5 -167h-105q-76 67 -115.5 171z" />
    <glyph glyph-name="parenright" unicode=")" horiz-adv-x="330" 
d="M142.5 105q40.5 107 40.5 239t-40.5 239t-112.5 167h105q76 -68 115.5 -171.5t39.5 -234.5t-39.5 -235t-115.5 -171h-105q72 60 112.5 167z" />
    <glyph glyph-name="asterisk" unicode="*" horiz-adv-x="448" 
d="M83 396l91 117l-144 -9v77l144 -10l-91 117l75 43l66 -130l66 130l75 -43l-91 -117l144 10v-77l-144 9l91 -117l-75 -43l-66 130l-66 -130z" />
    <glyph glyph-name="plus" unicode="+" horiz-adv-x="610" 
d="M258 223h-208v78h208v223h94v-223h209v-78h-209v-223h-94v223z" />
    <glyph glyph-name="comma" unicode="," horiz-adv-x="265" 
d="M190.5 109.5q21.5 -25.5 21.5 -69.5q0 -56 -31 -118t-82 -102l-43 49q24 23 43 55.5t28 67.5q-4 -1 -12 -1q-24 0 -41 19t-17 48q0 34 21.5 55.5t55.5 21.5q35 0 56.5 -25.5z" />
    <glyph glyph-name="hyphen" unicode="-" horiz-adv-x="340" 
d="M30 301h280v-70h-280v70z" />
    <glyph glyph-name="period" unicode="." horiz-adv-x="265" 
d="M82.5 10.5q-19.5 20.5 -19.5 52.5t19.5 52t50.5 20t50 -20t19 -52t-19 -52.5t-50 -20.5t-50.5 20.5z" />
    <glyph glyph-name="slash" unicode="/" horiz-adv-x="433" 
d="M357 725h99l-380 -768h-99z" />
    <glyph glyph-name="zero" unicode="0" horiz-adv-x="555" 
d="M97 81.5q-63 91.5 -63 268.5t63 268.5t181 91.5t180.5 -91.5t62.5 -268.5t-62.5 -268.5t-180.5 -91.5t-181 91.5zM378 141q34 70 34 209q0 140 -34 209.5t-100 69.5q-135 0 -135 -279q0 -139 34.5 -209t100.5 -70t100 70z" />
    <glyph glyph-name="one" unicode="1" horiz-adv-x="555" 
d="M125 84h118v490l-136 -79v98l174 107h71v-616h117v-84h-344v84z" />
    <glyph glyph-name="two" unicode="2" horiz-adv-x="555" 
d="M61 87q70 51 141 121t120.5 150t49.5 152q0 51 -29 81t-80 30q-48 0 -92 -24t-70 -64l-58 63q33 53 91.5 83.5t129.5 30.5q102 0 160.5 -52.5t58.5 -144.5q0 -100 -78.5 -210.5t-198.5 -218.5h306v-84h-451v87z" />
    <glyph glyph-name="three" unicode="3" horiz-adv-x="555" 
d="M135.5 18q-59.5 28 -88.5 77l54 62q27 -35 72.5 -56.5t93.5 -21.5q60 0 96.5 33.5t36.5 87.5q0 59 -45 92t-124 33h-44v83h43q66 0 106 33.5t40 87.5q0 44 -29 68t-81 24q-49 0 -91.5 -20.5t-70.5 -57.5l-52 62q33 48 93.5 76.5t131.5 28.5q62 0 109 -21t73 -59.5
t26 -88.5q0 -58 -33 -103t-93 -67q74 -20 112.5 -65t38.5 -112q0 -60 -29.5 -106.5t-84 -72t-125.5 -25.5q-76 0 -135.5 28z" />
    <glyph glyph-name="four" unicode="4" horiz-adv-x="555" 
d="M343 116h-317v86l300 498h126v-495h77v-89h-77v-116h-109v116zM343 205v359l-216 -359h216z" />
    <glyph glyph-name="five" unicode="5" horiz-adv-x="555" 
d="M133.5 18.5q-59.5 28.5 -91.5 76.5l50 70q31 -41 75 -63.5t93 -22.5q65 0 103 41.5t38 113.5q0 68 -34 108t-93 40q-36 0 -68 -18t-49 -49h-91l33 385h390v-89h-292l-17 -186q19 18 53 29t69 11q63 0 111 -28t74 -80t26 -121q0 -74 -30.5 -129.5t-87 -86t-131.5 -30.5
q-71 0 -130.5 28.5z" />
    <glyph glyph-name="six" unicode="6" horiz-adv-x="555" 
d="M155.5 23.5q-54.5 33.5 -84 94t-29.5 139.5q0 111 54.5 210.5t149 165.5t207.5 80l10 -83q-90 -19 -164 -75.5t-107 -136.5q14 15 40.5 25.5t57.5 10.5q70 0 120.5 -29.5t77 -82.5t26.5 -121q0 -67 -28.5 -119.5t-80.5 -82t-122 -29.5q-73 0 -127.5 33.5zM373 118
q34 39 34 104t-34 104t-91 39t-91.5 -39t-34.5 -104t34.5 -104t91.5 -39t91 39z" />
    <glyph glyph-name="seven" unicode="7" horiz-adv-x="555" 
d="M227.5 330.5q41.5 145.5 149.5 280.5h-327v89h456v-80q-105 -114 -160 -272.5t-55 -347.5h-110q5 185 46.5 330.5z" />
    <glyph glyph-name="eight" unicode="8" horiz-adv-x="555" 
d="M101.5 44.5q-64.5 54.5 -64.5 149.5q0 60 30.5 108t85.5 70q-41 18 -66.5 61.5t-25.5 93.5q0 83 59.5 133t157.5 50t157 -50t59 -133q0 -50 -25 -93.5t-66 -61.5q54 -22 84.5 -70t30.5 -108q0 -94 -64.5 -149t-175.5 -55q-112 0 -176.5 54.5zM356 440.5q29 28.5 29 76.5
q0 47 -29 75.5t-78 28.5t-78.5 -28.5t-29.5 -75.5q0 -48 29.5 -76.5t78.5 -28.5t78 28.5zM374 113.5q35 34.5 35 93.5q0 58 -35 92t-96 34t-96.5 -33.5t-35.5 -92.5t35.5 -93.5t96.5 -34.5t96 34.5z" />
    <glyph glyph-name="nine" unicode="9" horiz-adv-x="555" 
d="M93 71q96 20 173 77.5t104 134.5q-16 -15 -44.5 -25.5t-59.5 -10.5q-68 0 -119 30t-78 82.5t-27 119.5t28.5 119.5t80.5 82t122 29.5q73 0 127.5 -33.5t84 -94.5t29.5 -143q0 -118 -51.5 -215.5t-143.5 -159.5t-210 -77zM365.5 370.5q34.5 40.5 34.5 107.5
q0 65 -34.5 104t-91.5 39t-91 -39t-34 -104q0 -68 33.5 -108t90.5 -40q58 0 92.5 40.5z" />
    <glyph glyph-name="colon" unicode=":" horiz-adv-x="265" 
d="M82.5 360q-19.5 20 -19.5 52t19.5 52t50.5 20q30 0 49.5 -20.5t19.5 -51.5t-19.5 -51.5t-49.5 -20.5q-31 0 -50.5 20zM82.5 9q-19.5 20 -19.5 52t19.5 52.5t50.5 20.5q30 0 49.5 -20.5t19.5 -52.5q0 -31 -19.5 -51.5t-49.5 -20.5q-31 0 -50.5 20z" />
    <glyph glyph-name="semicolon" unicode=";" horiz-adv-x="265" 
d="M82.5 360q-19.5 20 -19.5 52t19.5 52t50.5 20q30 0 49.5 -20.5t19.5 -51.5t-19.5 -51.5t-49.5 -20.5q-31 0 -50.5 20zM191.5 109.5q21.5 -25.5 21.5 -69.5q0 -56 -31 -118t-82 -102l-43 49q24 23 43 55.5t28 67.5q-4 -1 -12 -1q-24 0 -41 19t-17 48q0 34 21.5 55.5
t55.5 21.5q35 0 56.5 -25.5z" />
    <glyph glyph-name="less" unicode="&#x3c;" horiz-adv-x="610" 
d="M58 262v47l493 262v-86l-373 -200l373 -199v-86z" />
    <glyph glyph-name="equal" unicode="=" horiz-adv-x="610" 
d="M63 404h484v-81h-484v81zM63 197h484v-82h-484v82z" />
    <glyph glyph-name="greater" unicode="&#x3e;" horiz-adv-x="610" 
d="M58 86l373 199l-373 200v86l493 -262v-47l-493 -262v86z" />
    <glyph glyph-name="question" unicode="?" horiz-adv-x="460" 
d="M176 213q0 42 19.5 78.5t57.5 86.5q35 46 52 78t17 67q0 52 -27 78.5t-78 26.5q-39 0 -74.5 -22.5t-58.5 -61.5l-54 62q29 49 80.5 76t117.5 27q96 0 148.5 -47.5t52.5 -130.5q0 -45 -20.5 -82t-61.5 -85q-39 -47 -58.5 -80.5t-19.5 -74.5q0 -24 4 -39h-92q-5 15 -5 43z
M179.5 8.5q-19.5 18.5 -19.5 48.5t19.5 48.5t50.5 18.5t50.5 -18.5t19.5 -48.5t-19.5 -48.5t-50.5 -18.5t-50.5 18.5z" />
    <glyph glyph-name="at" unicode="@" horiz-adv-x="798" 
d="M198.5 -103.5q-77.5 44.5 -121 125t-43.5 182.5q0 114 48.5 203t136 139t198.5 50q100 0 178 -41.5t121.5 -116.5t43.5 -170q0 -70 -24 -126t-68 -88.5t-100 -34.5l-35 -1l-23 62q-25 -30 -65.5 -49.5t-78.5 -19.5q-65 0 -105.5 38t-40.5 99q0 62 49 101.5t127 39.5h93
v20q0 38 -24.5 61.5t-63.5 23.5q-37 0 -72.5 -17.5t-55.5 -44.5l-39 42q26 35 73 57.5t95 22.5q70 0 113.5 -44.5t43.5 -115.5v-144q0 -17 4 -36.5t10 -31.5q50 8 81 59t31 124q0 76 -34 135t-94.5 91.5t-139.5 32.5q-88 0 -156.5 -40.5t-107 -113t-38.5 -165.5
q0 -82 34 -146t95.5 -99.5t139.5 -35.5q46 0 92 11.5t73 29.5l29 -58q-33 -25 -89 -40t-113 -15q-100 0 -177.5 44.5zM428.5 84q26.5 14 43.5 34.5t17 38.5v78h-88q-49 0 -78 -23.5t-29 -62.5q0 -37 23.5 -58t56.5 -21q28 0 54.5 14z" />
    <glyph glyph-name="A" unicode="A" horiz-adv-x="611" 
d="M436 139h-261l-43 -139h-116l240 700h99l240 -700h-116zM408 228l-102 331l-103 -331h205z" />
    <glyph glyph-name="B" unicode="B" horiz-adv-x="595" 
d="M77 700h199q245 0 245 -170q0 -56 -25 -93.5t-78 -59.5v-3q69 -21 100 -62t31 -110q0 -202 -233 -202h-239v700zM295 410q57 0 87 28.5t30 81.5q0 49 -32.5 71.5t-103.5 22.5h-90v-204h109zM315 86q62 0 94 30.5t32 89.5q0 64 -39.5 93.5t-125.5 29.5h-90v-243h129z" />
    <glyph glyph-name="C" unicode="C" horiz-adv-x="597" 
d="M178.5 34q-69.5 44 -107.5 125t-38 191t38 191t108.5 125t165.5 44q77 0 137 -30t88 -84l-62 -58q-54 83 -161 83q-98 0 -151 -70.5t-53 -200.5q0 -129 52 -200t147 -71q58 0 99 20.5t67 62.5l62 -58q-29 -54 -88.5 -84t-139.5 -30q-94 0 -163.5 44z" />
    <glyph glyph-name="D" unicode="D" horiz-adv-x="629" 
d="M77 700h231q139 0 209.5 -84.5t70.5 -251.5q0 -130 -31.5 -209.5t-99 -117t-177.5 -37.5h-203v700zM296 89q96 0 139.5 65t43.5 210q0 128 -42 187.5t-133 59.5h-118v-522h110z" />
    <glyph glyph-name="E" unicode="E" horiz-adv-x="558" 
d="M77 700h435v-89h-326v-199h291v-89h-291v-234h326v-89h-435v700z" />
    <glyph glyph-name="F" unicode="F" horiz-adv-x="558" 
d="M77 700h440v-89h-331v-226h309v-89h-309v-296h-109v700z" />
    <glyph glyph-name="G" unicode="G" horiz-adv-x="642" 
d="M585 368v-368h-78l-15 43q-67 -53 -167 -53q-90 0 -156 43.5t-101 124.5t-35 192q0 109 38.5 190t108.5 125.5t164 44.5q80 0 141.5 -30t89.5 -84l-62 -58q-26 41 -68.5 62t-99.5 21q-96 0 -149 -71t-53 -200q0 -132 51 -204.5t143 -72.5q41 0 77.5 11.5t62.5 33.5v171
h-162v79h270z" />
    <glyph glyph-name="H" unicode="H" horiz-adv-x="683" 
d="M76 700h109v-301h313v301h109v-700h-109v310h-313v-310h-109v700z" />
    <glyph glyph-name="I" unicode="I" horiz-adv-x="302" 
d="M97 700h109v-700h-109v700z" />
    <glyph glyph-name="J" unicode="J" horiz-adv-x="457" 
d="M80 6q-45 16 -74 43l43 76q23 -21 55 -33.5t63 -12.5q56 0 80.5 37.5t24.5 123.5v460h110v-476q0 -121 -51 -177.5t-159 -56.5q-47 0 -92 16z" />
    <glyph glyph-name="K" unicode="K" horiz-adv-x="622" 
d="M492 0l-211 338l-96 -117v-221h-109v700h109v-334l268 334h127l-227 -276l259 -424h-120z" />
    <glyph glyph-name="L" unicode="L" horiz-adv-x="554" 
d="M76 700h109v-611h336v-89h-445v700z" />
    <glyph glyph-name="M" unicode="M" horiz-adv-x="804" 
d="M727 700v-700h-107v491l-180 -491h-76l-180 491v-491h-107v700h121l204 -570l204 570h121z" />
    <glyph glyph-name="N" unicode="N" horiz-adv-x="688" 
d="M612 700v-700h-105l-322 523v-523h-109v700h111l316 -516v516h109z" />
    <glyph glyph-name="O" unicode="O" horiz-adv-x="671" 
d="M174.5 33.5q-68.5 43.5 -105 124.5t-36.5 192t36.5 192t105 124.5t161.5 43.5t161 -43.5t104.5 -124.5t36.5 -192t-36.5 -192t-104.5 -124.5t-161 -43.5t-161.5 43.5zM477 150.5q52 73.5 52 199.5q0 127 -52 200t-141 73t-141.5 -73.5t-52.5 -199.5q0 -83 23.5 -145
t67.5 -95t103 -33q89 0 141 73.5z" />
    <glyph glyph-name="P" unicode="P" horiz-adv-x="579" 
d="M77 700h215q118 0 179 -55t61 -161q0 -112 -63 -171t-182 -59h-101v-254h-109v700zM299 343q62 0 95 35.5t33 101.5q0 64 -35 97.5t-101 33.5h-105v-268h113z" />
    <glyph glyph-name="Q" unicode="Q" horiz-adv-x="671" 
d="M580 117.5q-58 -91.5 -163 -117.5q82 -31 206 -41l-18 -76q-86 8 -175.5 39.5t-151.5 72.5q-115 20 -180 113t-65 242q0 111 36.5 192t105 124.5t161.5 43.5t161 -43.5t104.5 -124.5t36.5 -192q0 -141 -58 -232.5zM165.5 205q23.5 -62 67.5 -95t103 -33q89 0 141 73.5
t52 199.5q0 127 -52 200t-141 73t-141.5 -73.5t-52.5 -199.5q0 -83 23.5 -145z" />
    <glyph glyph-name="R" unicode="R" horiz-adv-x="586" 
d="M77 700h225q116 0 173 -47.5t57 -142.5q0 -69 -33 -117.5t-93 -67.5v-2q20 -13 32.5 -28t20.5 -35l105 -260h-117l-86 222q-15 40 -37 53.5t-72 13.5h-66v-289h-109v700zM294 377q133 0 133 124q0 56 -33.5 83t-102.5 27h-105v-234h108z" />
    <glyph glyph-name="S" unicode="S" horiz-adv-x="536" 
d="M133 20q-61 30 -98 84l65 64q31 -40 78.5 -64.5t91.5 -24.5q55 0 88.5 27t33.5 71q0 30 -11.5 51t-40.5 41.5t-85 48.5q-108 53 -152 100.5t-44 112.5q0 53 27 94t77 63t115 22q70 0 126.5 -29.5t81.5 -78.5l-70 -52q-24 34 -59.5 52.5t-76.5 18.5q-52 0 -82 -23.5
t-30 -64.5q0 -25 12.5 -43t45 -38.5t100.5 -53.5q95 -46 134.5 -94.5t39.5 -118.5q0 -58 -29 -102.5t-82.5 -68.5t-123.5 -24q-71 0 -132 30z" />
    <glyph glyph-name="T" unicode="T" horiz-adv-x="569" 
d="M230 617h-214v83h536v-83h-213v-617h-109v617z" />
    <glyph glyph-name="U" unicode="U" horiz-adv-x="659" 
d="M136.5 61.5q-65.5 71.5 -65.5 212.5v426h110v-424q0 -197 149 -197q148 0 148 197v424h110v-426q0 -140 -65.5 -212t-192.5 -72q-128 0 -193.5 71.5z" />
    <glyph glyph-name="V" unicode="V" horiz-adv-x="617" 
d="M601 700l-241 -700h-103l-241 700h116l177 -556l176 556h116z" />
    <glyph glyph-name="W" unicode="W" horiz-adv-x="845" 
d="M818 700l-145 -700h-107l-143 557l-144 -557h-106l-147 700h117l91 -527l135 527h107l135 -525l90 525h117z" />
    <glyph glyph-name="X" unicode="X" horiz-adv-x="622" 
d="M248 359l-207 341h125l145 -258l145 258h125l-207 -341l216 -359h-122l-157 270l-156 -270h-123z" />
    <glyph glyph-name="Y" unicode="Y" horiz-adv-x="591" 
d="M241 279l-225 421h120l159 -319l159 319h120l-223 -421v-279h-110v279z" />
    <glyph glyph-name="Z" unicode="Z" horiz-adv-x="575" 
d="M32 57l363 554h-335v89h471v-59l-362 -552h375v-89h-512v57z" />
    <glyph glyph-name="bracketleft" unicode="[" horiz-adv-x="316" 
d="M55 700h231v-77h-124v-655h124v-77h-231v809z" />
    <glyph glyph-name="backslash" unicode="\" horiz-adv-x="383" 
d="M-23 725h99l380 -768h-99z" />
    <glyph glyph-name="bracketright" unicode="]" horiz-adv-x="316" 
d="M30 -32h124v655h-124v77h231v-809h-231v77z" />
    <glyph glyph-name="asciicircum" unicode="^" horiz-adv-x="590" 
d="M253 700h85l212 -475h-97l-158 367l-157 -367h-98z" />
    <glyph glyph-name="underscore" unicode="_" horiz-adv-x="335" 
d="M0 -223h335v-76h-335v76z" />
    <glyph glyph-name="grave" unicode="`" horiz-adv-x="400" 
d="M87 714h98l86 -160h-79z" />
    <glyph glyph-name="a" unicode="a" horiz-adv-x="519" 
d="M118.5 10q-38.5 20 -60 55.5t-21.5 80.5q0 76 58 116.5t165 40.5h94v25q0 50 -27 77t-79 27q-45 0 -84 -17.5t-64 -50.5l-47 59q36 42 87.5 64.5t111.5 22.5q96 0 149 -46.5t53 -131.5v-232q0 -45 12 -100h-87q-10 24 -14 67h-2q-57 -77 -157 -77q-49 0 -87.5 20z
M316.5 96.5q37.5 29.5 37.5 71.5v66h-98q-59 0 -90.5 -22.5t-31.5 -65.5q0 -37 24.5 -58t66.5 -21q54 0 91.5 29.5z" />
    <glyph glyph-name="b" unicode="b" horiz-adv-x="547" 
d="M216 13.5q-43 23.5 -65 61.5h-2q1 -24 -1 -75h-92q3 32 3 128v614h99v-304h2q47 72 149 72q96 0 151.5 -67t55.5 -184q0 -125 -56.5 -197t-154.5 -72q-46 0 -89 23.5zM383 118q34 50 34 139q0 85 -33.5 131.5t-94.5 46.5q-58 0 -94.5 -39t-36.5 -101v-95
q0 -61 35.5 -96.5t95.5 -35.5t94 50z" />
    <glyph glyph-name="c" unicode="c" horiz-adv-x="479" 
d="M95 59q-63 69 -63 191q0 123 63 191.5t176 68.5q65 0 114.5 -25t77.5 -72l-59 -53q-21 34 -55 53t-74 19q-68 0 -106 -48t-38 -134q0 -85 38 -133.5t106 -48.5q40 0 74 19t55 53l59 -53q-28 -47 -77.5 -72t-114.5 -25q-113 0 -176 69z" />
    <glyph glyph-name="d" unicode="d" horiz-adv-x="547" 
d="M88 62q-56 72 -56 197q0 76 26 132.5t74 87.5t112 31q90 0 144 -72h2v304h99v-614q0 -96 3 -128h-92q-2 22 -2 75h-2q-23 -38 -65 -61.5t-89 -23.5q-98 0 -154 72zM354 103.5q36 35.5 36 96.5v95q0 62 -36.5 101t-95.5 39q-60 0 -93.5 -46.5t-33.5 -131.5
q0 -89 33.5 -139t93.5 -50t96 35.5z" />
    <glyph glyph-name="e" unicode="e" horiz-adv-x="526" 
d="M492 212h-356q8 -68 43.5 -103t97.5 -35q88 0 142 69l55 -53q-29 -47 -83 -73.5t-119 -26.5q-112 0 -174.5 68.5t-62.5 190.5t63 191.5t173 69.5q104 0 162.5 -68.5t58.5 -191.5v-38zM398 290q0 65 -35 102t-96 37q-57 0 -91 -38t-41 -108h263v7z" />
    <glyph glyph-name="f" unicode="f" horiz-adv-x="346" 
d="M92 430h-83v70h83v62q0 72 43 113.5t119 41.5q32 0 60.5 -10t46.5 -28l-36 -60q-25 22 -62 22q-33 0 -52.5 -22.5t-19.5 -61.5v-57h142v-70h-142v-430h-99v430z" />
    <glyph glyph-name="g" unicode="g" horiz-adv-x="546" 
d="M489 500v-483q0 -122 -60.5 -185t-177.5 -63q-54 0 -102.5 12.5t-86.5 36.5l33 70q76 -37 152 -37q148 0 148 181v35q-20 -35 -58.5 -54t-89.5 -19q-101 0 -158 70t-57 194q0 118 56 185t154 67q52 0 91 -20.5t62 -58.5h2l10 69h82zM390 282q0 73 -33.5 113t-93.5 40
q-62 0 -97 -47.5t-35 -132.5q0 -87 34.5 -134.5t97.5 -47.5q60 0 93.5 36t33.5 101v72z" />
    <glyph glyph-name="h" unicode="h" horiz-adv-x="561" 
d="M57 742h99v-314q22 38 66 60t97 22q87 0 136 -58t49 -161v-291h-99v288q0 71 -27.5 109t-79.5 38q-62 0 -102 -45t-40 -117v-273h-99v742z" />
    <glyph glyph-name="i" unicode="i" horiz-adv-x="254" 
d="M78 594q-18 17 -18 46t18 46t49 17t49.5 -17t18.5 -46t-18.5 -46t-49.5 -17t-49 17zM78 500h99v-500h-99v500z" />
    <glyph glyph-name="j" unicode="j" horiz-adv-x="258" 
d="M88.5 594.5q-18.5 17.5 -18.5 45.5t18.5 45.5t49.5 17.5t49.5 -17.5t18.5 -45.5t-18.5 -45.5t-49.5 -17.5t-49.5 17.5zM-54 -186l5 71q17 -2 47 -2q51 0 72 26.5t21 83.5v507h100v-509q0 -186 -169 -186q-39 0 -76 9z" />
    <glyph glyph-name="k" unicode="k" horiz-adv-x="502" 
d="M385 0l-159 245l-69 -68v-177h-100v742h100v-446l204 204h121l-189 -188l204 -312h-112z" />
    <glyph glyph-name="l" unicode="l" horiz-adv-x="294" 
d="M95 22.5q-29 32.5 -29 96.5v623h99v-623q0 -31 11.5 -44t37.5 -13q21 0 52 13l15 -57q-39 -28 -100 -28q-57 0 -86 32.5z" />
    <glyph glyph-name="m" unicode="m" horiz-adv-x="841" 
d="M57 372q0 76 -5 128h88q4 -37 4 -88h3q19 45 61.5 71.5t96.5 26.5q53 0 91 -25.5t51 -71.5q21 45 63.5 71t95.5 26q83 0 129.5 -53.5t46.5 -147.5v-309h-99v300q0 62 -26.5 96t-75.5 34q-50 0 -81.5 -36.5t-31.5 -94.5v-299h-98v296q0 134 -98 134q-32 0 -58.5 -18
t-42.5 -49t-16 -67v-296h-98v372z" />
    <glyph glyph-name="n" unicode="n" horiz-adv-x="554" 
d="M56 372q0 93 -4 128h92q5 -37 5 -88h3q20 45 65.5 71.5t101.5 26.5q176 0 176 -228v-282h-99v283q0 75 -25 111t-77 36q-61 0 -100 -44t-39 -112v-274h-99v372z" />
    <glyph glyph-name="o" unicode="o" horiz-adv-x="564" 
d="M101 59.5q-66 69.5 -66 190.5t66 190.5t181 69.5t181.5 -69.5t66.5 -190.5t-66.5 -190.5t-181.5 -69.5t-181 69.5zM391 114.5q40 49.5 40 135.5t-40 135.5t-109 49.5q-70 0 -109 -49.5t-39 -135.5t39 -135.5t109 -49.5q69 0 109 49.5z" />
    <glyph glyph-name="p" unicode="p" horiz-adv-x="552" 
d="M60 372q0 70 -4 128h92q3 -34 3 -75h2q22 39 64.5 62t93.5 23q96 0 151 -69.5t55 -190.5q0 -120 -56.5 -190t-153.5 -70q-50 0 -88.5 18.5t-56.5 52.5h-3v-303h-99v614zM383.5 115q34.5 50 34.5 138q0 87 -33 133t-94 46q-58 0 -95 -36.5t-37 -95.5v-95
q0 -61 36.5 -100.5t93.5 -39.5q60 0 94.5 50z" />
    <glyph glyph-name="q" unicode="q" horiz-adv-x="552" 
d="M393 65h-3q-21 -35 -60 -55t-87 -20q-96 0 -152 70.5t-56 190.5q0 121 55.5 190t152.5 69q52 0 94 -22.5t62 -60.5h2q0 37 3 73h92q-4 -58 -4 -128v-614h-99v307zM356.5 104q36.5 39 36.5 101v95q0 59 -36.5 95.5t-95.5 36.5q-62 0 -94.5 -46t-32.5 -133q0 -88 34 -138
t94 -50q58 0 94.5 39z" />
    <glyph glyph-name="r" unicode="r" horiz-adv-x="366" 
d="M63 378q0 85 -3 122h93q4 -40 4 -88v-10h3q20 51 63.5 79.5t102.5 28.5q16 0 29 -3v-80q-7 2 -31 2q-44 0 -81.5 -25.5t-59 -69t-21.5 -95.5v-239h-99v378z" />
    <glyph glyph-name="s" unicode="s" horiz-adv-x="424" 
d="M98 14q-47 24 -66 64l63 43q17 -26 46 -41t63 -15q39 0 64.5 22t25.5 56q0 27 -20 44.5t-74 37.5q-87 33 -122.5 67.5t-35.5 85.5q0 60 47.5 96t126.5 36q51 0 93 -21t66 -59l-59 -44q-17 24 -42.5 36.5t-56.5 12.5q-34 0 -55.5 -15t-21.5 -39q0 -25 22 -41.5t86 -41.5
q80 -31 112.5 -64.5t32.5 -86.5q0 -71 -52 -114t-137 -43q-59 0 -106 24z" />
    <glyph glyph-name="t" unicode="t" horiz-adv-x="391" 
d="M140.5 32.5q-39.5 42.5 -39.5 117.5v274h-90v76h90v132l95 28h4v-160h143v-76h-143v-262q0 -49 19.5 -72t59.5 -23t71 12l6 -71q-37 -18 -106 -18q-70 0 -109.5 42.5z" />
    <glyph glyph-name="u" unicode="u" horiz-adv-x="555" 
d="M101.5 46.5q-44.5 56.5 -44.5 166.5v287h99v-288q0 -72 25 -107t76 -35q60 0 99.5 45t39.5 114v271h99v-387q0 -54 9 -113h-93q-8 43 -9 89h-3q-20 -46 -65.5 -72.5t-101.5 -26.5q-86 0 -130.5 56.5z" />
    <glyph glyph-name="v" unicode="v" horiz-adv-x="495" 
d="M484 500l-192 -500h-88l-192 500h102l134 -382l133 382h103z" />
    <glyph glyph-name="w" unicode="w" horiz-adv-x="681" 
d="M669 500l-126 -500h-88l-114 394l-114 -394h-89l-126 500h103l75 -360l106 360h89l106 -360l75 360h103z" />
    <glyph glyph-name="x" unicode="x" horiz-adv-x="480" 
d="M189 254l-164 246h110l105 -173l105 173h110l-163 -246l176 -254h-111l-117 188l-117 -188h-111z" />
    <glyph glyph-name="y" unicode="y" horiz-adv-x="476" 
d="M465 500l-185 -514q-67 -185 -214 -185q-28 0 -64 9v77q21 -8 50 -8q49 0 83 35t65 116l-186 470h106l126 -363l112 363h107z" />
    <glyph glyph-name="z" unicode="z" horiz-adv-x="459" 
d="M24 55l282 369h-268v76h387v-53l-278 -371h288v-76h-411v55z" />
    <glyph glyph-name="braceleft" unicode="{" horiz-adv-x="330" 
d="M138 -76.5q-37 37.5 -37 113.5v165q0 29 -17 46.5t-49 19.5v61q32 1 49 18t17 47v165q0 76 37 113.5t117 37.5h43v-78h-44q-27 0 -38.5 -15.5t-11.5 -48.5v-173q0 -35 -14 -58t-51 -39q36 -15 50.5 -39.5t14.5 -57.5v-173q0 -33 11.5 -48.5t38.5 -15.5h44v-78h-43
q-80 0 -117 37.5z" />
    <glyph glyph-name="bar" unicode="|" horiz-adv-x="247" 
d="M75 700h97v-860h-97v860z" />
    <glyph glyph-name="braceright" unicode="}" horiz-adv-x="330" 
d="M32 -36h44q27 0 38.5 15.5t11.5 48.5v173q0 33 15 57.5t51 39.5q-37 16 -51 39t-14 58v173q0 32 -12 48t-39 16h-44v78h43q80 0 117.5 -38t37.5 -113v-165q0 -30 16.5 -47t48.5 -18v-61q-32 -2 -49 -19.5t-17 -46.5v-165q0 -76 -37 -113.5t-117 -37.5h-43v78z" />
    <glyph glyph-name="asciitilde" unicode="~" horiz-adv-x="610" 
d="M60 211q0 62 38 100t98 38q29 0 57 -11.5t68 -34.5q34 -18 53 -26.5t37 -8.5q28 0 42.5 22.5t14.5 58.5h85v-21q0 -64 -36.5 -103t-96.5 -39q-30 0 -58.5 12t-69.5 35q-34 18 -52.5 26.5t-35.5 8.5q-27 0 -42.5 -22t-17.5 -60h-84v25z" />
    <glyph glyph-name="uni00A0" unicode="&#xa0;" horiz-adv-x="240" 
 />
    <glyph glyph-name="exclamdown" unicode="&#xa1;" horiz-adv-x="243" 
d="M66 384.5q-21 20.5 -21 53.5q0 32 21 52t55 20t55.5 -20t21.5 -52q0 -33 -21.5 -53.5t-55.5 -20.5t-55 20.5zM75 298h93l13 -499h-119z" />
    <glyph glyph-name="cent" unicode="&#xa2;" horiz-adv-x="478" 
d="M349 157q34 19 55 53l59 -53q-25 -42 -66.5 -66.5t-97.5 -29.5v-89h-67v90q-95 12 -147.5 79.5t-52.5 178.5q0 112 52.5 179t147.5 79v90h67v-89q56 -5 97.5 -29.5t66.5 -66.5l-59 -53q-21 34 -55 53t-74 19q-68 0 -106 -48t-38 -134q0 -85 38 -133.5t106 -48.5
q40 0 74 19z" />
    <glyph glyph-name="sterling" unicode="&#xa3;" horiz-adv-x="541" 
d="M257.5 155.5q-18.5 -45.5 -57.5 -75.5h282v-80h-429v64q55 29 88.5 78.5t33.5 96.5q0 19 -7 66h-95v69h83q-17 98 -17 141q0 89 53 142t140 53q43 0 84.5 -15t66.5 -41l-35 -75q-21 19 -50 31t-56 12q-46 0 -73 -31t-27 -83q0 -28 14 -114l3 -20h163v-69h-151
q5 -37 5 -58q0 -46 -18.5 -91.5z" />
    <glyph glyph-name="currency" unicode="&#xa4;" horiz-adv-x="620" 
d="M230 74q-39 13 -73 36l-59 -58l-67 65l56 56q-24 32 -37.5 74.5t-13.5 83.5t13.5 84t37.5 74l-56 56l67 65l59 -58q34 23 73 36t78 13q40 0 80.5 -13t72.5 -36l62 58l66 -69l-57 -52q24 -30 37 -72t13 -86t-13 -86t-37 -72l57 -56l-66 -64l-62 57q-32 -23 -72.5 -36
t-80.5 -13q-39 0 -78 13zM400.5 173q40.5 23 63 64.5t22.5 93.5q0 53 -22.5 95t-63 65.5t-91.5 23.5q-50 0 -90.5 -23.5t-63 -65.5t-22.5 -95q0 -52 22.5 -93.5t63 -64.5t90.5 -23q51 0 91.5 23z" />
    <glyph glyph-name="yen" unicode="&#xa5;" horiz-adv-x="598" 
d="M402 368h127v-74h-166l-8 -15v-62h174v-72h-174v-145h-110v145h-176v72h176v62l-8 15h-168v73h129l-177 333h120l159 -319l159 319h120z" />
    <glyph glyph-name="brokenbar" unicode="&#xa6;" horiz-adv-x="247" 
d="M75 700h97v-387h-97v387zM75 227h97v-387h-97v387z" />
    <glyph glyph-name="section" unicode="&#xa7;" horiz-adv-x="536" 
d="M491 65q0 -80 -62.5 -125t-161.5 -45q-73 0 -130.5 27t-91.5 73l62 63q33 -39 74.5 -59.5t87.5 -20.5q51 0 82 22t31 61q0 25 -15 42.5t-39 30.5t-76 37q-7 3 -16 7t-19 8q-61 27 -91.5 45t-49.5 45t-19 68q0 59 46 102q-46 41 -46 100q0 49 27.5 86.5t75.5 57.5t108 20
q72 0 125.5 -27t80.5 -76l-59 -45q-23 31 -60.5 48t-81.5 17q-49 0 -78 -22t-29 -55q0 -24 14.5 -41t42 -32t91.5 -44q60 -27 94.5 -47t58.5 -50.5t24 -73.5q0 -28 -9.5 -51.5t-30.5 -45.5q40 -37 40 -100zM178.5 307q24.5 -17 83.5 -44l52 -25q48 -22 66 -31q19 30 19 49
q0 20 -12.5 34.5t-42 30t-92.5 43.5q-45 20 -77 36q-21 -22 -21 -52q0 -24 24.5 -41z" />
    <glyph glyph-name="dieresis" unicode="&#xa8;" horiz-adv-x="400" 
d="M57 570q-16 16 -16 40q0 25 16 40.5t41 15.5q24 0 40.5 -16t16.5 -40t-16.5 -40t-40.5 -16q-25 0 -41 16zM261.5 570q-16.5 16 -16.5 40t16.5 40t40.5 16q25 0 41 -15.5t16 -40.5q0 -24 -16 -40t-41 -16q-24 0 -40.5 16z" />
    <glyph glyph-name="copyright" unicode="&#xa9;" horiz-adv-x="806" 
d="M215.5 36q-82.5 46 -129 128t-46.5 186t46.5 186t129 128t187.5 46t187.5 -46t129 -128t46.5 -186t-46.5 -186t-129 -128t-187.5 -46t-187.5 46zM555.5 88.5q67.5 38.5 105.5 107t38 154.5t-38 154.5t-105.5 107t-152.5 38.5t-152 -38.5t-105 -107t-38 -154.5t38 -154.5
t105 -107t152 -38.5t152.5 38.5zM315.5 166.5q-40.5 26.5 -63 75t-22.5 111.5q0 98 50 155.5t133 57.5q46 0 82 -20t52 -52l-41 -42q-32 49 -93 49q-50 0 -79.5 -40t-29.5 -108q0 -67 29 -107.5t77 -40.5q59 0 96 51l41 -44q-18 -31 -55 -51.5t-82 -20.5q-54 0 -94.5 26.5z
" />
    <glyph glyph-name="ordfeminine" unicode="&#xaa;" horiz-adv-x="362" 
d="M66.5 390q-30.5 29 -30.5 75q0 49 34.5 76t99.5 27h70v14q0 34 -16.5 50.5t-50.5 16.5q-55 0 -87 -44l-37 42q47 60 133 60q65 0 99.5 -31t34.5 -88v-152q0 -35 7 -68h-69q-1 4 -8 43q-13 -23 -40.5 -36.5t-60.5 -13.5q-48 0 -78.5 29zM220 435q20 21 20 49v35h-55
q-74 0 -74 -54q0 -25 15 -38t40 -13q34 0 54 21z" />
    <glyph glyph-name="guillemotleft" unicode="&#xab;" horiz-adv-x="538" 
d="M35 260l155 197h107l-151 -197l151 -197h-107zM240 260l156 197h107l-152 -197l152 -197h-107z" />
    <glyph glyph-name="logicalnot" unicode="&#xac;" horiz-adv-x="610" 
d="M472 333h-432v72h530v-279h-98v207z" />
    <glyph glyph-name="uni00AD" unicode="&#xad;" horiz-adv-x="340" 
d="M30 301h280v-70h-280v70z" />
    <glyph glyph-name="registered" unicode="&#xae;" horiz-adv-x="522" 
d="M372 684q48 -26 74 -74t26 -110t-26.5 -109.5t-74 -73.5t-110.5 -26q-62 0 -110 26t-74.5 73.5t-26.5 109.5t26.5 110t74.5 74t110 26q63 0 111 -26zM381 378.5q46 44.5 46 119.5q0 76 -44.5 122t-119.5 46q-76 0 -122 -44.5t-46 -119.5q0 -76 44.5 -122t119.5 -46
q76 0 122 44.5zM298 474l49 -91h-50l-47 87h-29v-87h-47v239h95q82 0 82 -73q0 -62 -53 -75zM293.5 519.5q11.5 9.5 11.5 29.5q0 19 -10.5 26t-38.5 7h-35v-72h37q24 0 35.5 9.5z" />
    <glyph glyph-name="macron" unicode="&#xaf;" horiz-adv-x="400" 
d="M30 632h340v-58h-340v58z" />
    <glyph glyph-name="degree" unicode="&#xb0;" horiz-adv-x="317" 
d="M62 483.5q-37 36.5 -37 94.5t37 95t96 37q60 0 97 -36.5t37 -95.5q0 -58 -37 -94.5t-97 -36.5q-59 0 -96 36.5zM212 524q21 21 21 54q0 34 -21 55.5t-54 21.5t-53.5 -21.5t-20.5 -55.5q0 -33 20.5 -54t53.5 -21t54 21z" />
    <glyph glyph-name="plusminus" unicode="&#xb1;" horiz-adv-x="610" 
d="M352 305v-181h-94v181h-208v73h208v180h94v-180h209v-73h-209zM58 72h495v-72h-495v72z" />
    <glyph glyph-name="uni00B2" unicode="&#xb2;" horiz-adv-x="410" 
d="M47 276q78 55 145.5 135t67.5 149q0 31 -19 49t-52 18q-32 0 -59.5 -16t-45.5 -44l-50 52q25 41 68.5 63.5t94.5 22.5q76 0 118.5 -37.5t42.5 -103.5q0 -63 -49 -134t-132 -149h199v-73h-329v68z" />
    <glyph glyph-name="uni00B3" unicode="&#xb3;" horiz-adv-x="410" 
d="M103 219.5q-43 20.5 -64 55.5l47 54q21 -25 51 -39t60 -14q36 0 57.5 21.5t21.5 54.5q0 35 -26.5 55.5t-72.5 20.5h-41v70h40q38 0 61 20.5t23 52.5q0 26 -18.5 41t-49.5 15q-30 0 -59 -14t-49 -37l-45 54q25 35 70 55t96 20q69 0 110.5 -34t41.5 -90q0 -36 -21 -67
t-57 -47q45 -16 70 -48t25 -74q0 -66 -47 -106t-126 -40q-55 0 -98 20.5z" />
    <glyph glyph-name="acute" unicode="&#xb4;" horiz-adv-x="400" 
d="M203 714h99l-105 -160h-79z" />
    <glyph glyph-name="uni00B5" unicode="&#xb5;" horiz-adv-x="555" 
d="M57 500h98v-288q0 -68 26.5 -105t79.5 -37q60 0 97.5 46t37.5 116v268h99v-387q0 -50 9 -113h-92q-9 37 -10 78h-3q-42 -88 -138 -88q-31 0 -59 10.5t-47 30.5v-242h-98v711z" />
    <glyph glyph-name="paragraph" unicode="&#xb6;" horiz-adv-x="539" 
d="M272 267h-6q-65 0 -116.5 25.5t-80.5 72.5t-29 109q0 112 72 169t215 57h122v-793h-55v747h-70v-747h-52v360z" />
    <glyph glyph-name="periodcentered" unicode="&#xb7;" horiz-adv-x="264" 
d="M81.5 210q-19.5 20 -19.5 52t19.5 52t50.5 20q30 0 49.5 -20.5t19.5 -51.5t-19.5 -51.5t-49.5 -20.5q-31 0 -50.5 20z" />
    <glyph glyph-name="cedilla" unicode="&#xb8;" horiz-adv-x="400" 
d="M141.5 -232.5q-23.5 4.5 -36.5 11.5l13 50q10 -5 27 -8.5t31 -3.5q21 0 35 9.5t14 28.5q0 17 -19.5 26.5t-53.5 8.5l-26 28l53 95h67l-41 -76q41 0 65.5 -21.5t24.5 -56.5q0 -42 -29.5 -69t-78.5 -27q-22 0 -45.5 4.5z" />
    <glyph glyph-name="uni00B9" unicode="&#xb9;" horiz-adv-x="410" 
d="M86 281h80v307l-92 -54v87l126 77h65v-417h78v-73h-257v73z" />
    <glyph glyph-name="ordmasculine" unicode="&#xba;" horiz-adv-x="390" 
d="M74 407.5q-44 46.5 -44 126.5t44 126.5t121 46.5t121 -46.5t44 -126.5t-44 -126.5t-121 -46.5t-121 46.5zM260.5 447q22.5 31 22.5 87t-22.5 87t-65.5 31t-65.5 -31t-22.5 -87t22.5 -87t65.5 -31t65.5 31z" />
    <glyph glyph-name="guillemotright" unicode="&#xbb;" horiz-adv-x="538" 
d="M187 260l-152 197h108l154 -197l-154 -197h-108zM393 260l-153 197h108l155 -197l-155 -197h-108z" />
    <glyph glyph-name="onequarter" unicode="&#xbc;" horiz-adv-x="985" 
d="M658 706h83l-399 -734h-82zM83 333h72v273l-82 -48v77l112 69h57v-371h70v-65h-229v65zM779 68h-193v64l184 303h97v-303h45v-64h-45v-68h-88v68zM779 132v204l-122 -204h122z" />
    <glyph glyph-name="onehalf" unicode="&#xbd;" horiz-adv-x="985" 
d="M622 706h82l-399 -734h-82zM83 333h72v273l-82 -48v77l112 69h57v-371h70v-65h-229v65zM627 60q70 50 130 121t60 132q0 27 -17 43.5t-47 16.5q-28 0 -52 -14.5t-41 -39.5l-44 46q22 37 61 57t84 20q67 0 105 -33.5t38 -92.5q0 -103 -161 -251h177v-65h-293v60z" />
    <glyph glyph-name="threequarters" unicode="&#xbe;" horiz-adv-x="985" 
d="M101.5 279q-38.5 18 -56.5 49l42 48q18 -22 44.5 -34t53.5 -12q32 0 51 18.5t19 48.5q0 31 -23.5 49t-64.5 18h-36v62h35q34 0 54.5 18t20.5 48q0 23 -16.5 36.5t-43.5 13.5t-52.5 -12.5t-43.5 -33.5l-41 48q23 31 63 49t85 18q62 0 99 -30.5t37 -80.5q0 -32 -19 -59.5
t-51 -41.5q40 -13 62.5 -42t22.5 -66q0 -59 -42 -94.5t-113 -35.5q-48 0 -86.5 18zM648 706h82l-399 -734h-82zM768 68h-192v64l184 303h96v-303h45v-64h-45v-68h-88v68zM768 132v204l-121 -204h121z" />
    <glyph glyph-name="questiondown" unicode="&#xbf;" horiz-adv-x="460" 
d="M179.5 395q-19.5 19 -19.5 48t19.5 48t50.5 19q30 0 50 -19t20 -48t-20 -48t-50 -19q-31 0 -50.5 19zM83 -163q-53 48 -53 131q0 45 20.5 81t61.5 86q39 46 59 80.5t20 75.5q0 17 -4 39h92q5 -16 5 -43q0 -43 -19.5 -79.5t-57.5 -86.5q-36 -48 -53 -79.5t-17 -66.5
q0 -51 27.5 -77.5t78.5 -26.5q39 0 74 22.5t59 62.5l53 -63q-28 -48 -80 -76t-117 -28q-96 0 -149 48z" />
    <glyph glyph-name="Agrave" unicode="&#xc0;" horiz-adv-x="611" 
d="M436 139h-261l-43 -139h-116l240 700h99l240 -700h-116zM408 228l-102 331l-103 -331h205zM166 906h99l80 -152h-79z" />
    <glyph glyph-name="Aacute" unicode="&#xc1;" horiz-adv-x="611" 
d="M436 139h-261l-43 -139h-116l240 700h99l240 -700h-116zM408 228l-102 331l-103 -331h205zM349 906h100l-101 -152h-79z" />
    <glyph glyph-name="Acircumflex" unicode="&#xc2;" horiz-adv-x="611" 
d="M436 139h-261l-43 -139h-116l240 700h99l240 -700h-116zM408 228l-102 331l-103 -331h205zM274 904h64l119 -150h-86l-65 85l-65 -85h-86z" />
    <glyph glyph-name="Atilde" unicode="&#xc3;" horiz-adv-x="611" 
d="M436 139h-261l-43 -139h-116l240 700h99l240 -700h-116zM408 228l-102 331l-103 -331h205zM177 834q25 30 64 30q19 0 36.5 -7.5t38.5 -20.5q17 -10 27 -14.5t19 -4.5q27 0 30 51h61q-1 -54 -26.5 -84t-65.5 -30q-20 0 -38.5 8t-40.5 22q-2 1 -16 9t-23 8
q-12 0 -20.5 -12.5t-9.5 -34.5h-61q0 50 25 80z" />
    <glyph glyph-name="Adieresis" unicode="&#xc4;" horiz-adv-x="611" 
d="M436 139h-261l-43 -139h-116l240 700h99l240 -700h-116zM408 228l-102 331l-103 -331h205zM163 770q-16 16 -16 40q0 25 16 40.5t41 15.5q24 0 40.5 -16t16.5 -40t-16.5 -40t-40.5 -16q-25 0 -41 16zM367.5 770q-16.5 16 -16.5 40t16.5 40t40.5 16q25 0 41 -15.5
t16 -40.5q0 -24 -16 -40t-41 -16q-24 0 -40.5 16z" />
    <glyph glyph-name="Aring" unicode="&#xc5;" horiz-adv-x="611" 
d="M436 139h-261l-43 -139h-116l240 700h99l240 -700h-116zM408 228l-102 331l-103 -331h205zM235 744q-28 26 -28 67t28 67t71 26t71 -26t28 -67t-28 -67t-71 -26t-71 26zM342 774.5q14 14.5 14 36.5t-14 36.5t-36 14.5t-36 -14.5t-14 -36.5t14 -36.5t36 -14.5t36 14.5z
" />
    <glyph glyph-name="AE" unicode="&#xc6;" horiz-adv-x="809" 
d="M484 612v-202h245v-87h-245v-235h278v-88h-387v129h-183l-55 -129h-121l322 700h424v-88h-278zM375 213v350l-148 -350h148z" />
    <glyph glyph-name="Ccedilla" unicode="&#xc7;" horiz-adv-x="597" 
d="M441 99.5q41 20.5 67 62.5l62 -58q-26 -48 -75 -77t-116 -35l-30 -55q41 0 66.5 -19.5t25.5 -53.5q0 -41 -29.5 -66.5t-78.5 -25.5q-23 0 -46.5 4.5t-35.5 11.5l9 44q29 -9 60 -9q23 0 37 10t14 28q0 17 -19.5 26.5t-54.5 8.5l-23 26l39 69q-86 7 -149 52.5t-97 124
t-34 182.5q0 110 38 191t108.5 125t165.5 44q77 0 137 -30t88 -84l-62 -58q-54 83 -161 83q-98 0 -151 -70.5t-53 -200.5q0 -129 52 -200t147 -71q58 0 99 20.5z" />
    <glyph glyph-name="Egrave" unicode="&#xc8;" horiz-adv-x="558" 
d="M77 700h435v-89h-326v-199h291v-89h-291v-234h326v-89h-435v700zM158 906h99l80 -152h-79z" />
    <glyph glyph-name="Eacute" unicode="&#xc9;" horiz-adv-x="558" 
d="M77 700h435v-89h-326v-199h291v-89h-291v-234h326v-89h-435v700zM341 906h100l-101 -152h-79z" />
    <glyph glyph-name="Ecircumflex" unicode="&#xca;" horiz-adv-x="558" 
d="M77 700h435v-89h-326v-199h291v-89h-291v-234h326v-89h-435v700zM266 904h64l119 -150h-86l-65 85l-65 -85h-86z" />
    <glyph glyph-name="Edieresis" unicode="&#xcb;" horiz-adv-x="558" 
d="M77 700h435v-89h-326v-199h291v-89h-291v-234h326v-89h-435v700zM155 770q-16 16 -16 40q0 25 16 40.5t41 15.5q24 0 40.5 -16t16.5 -40t-16.5 -40t-40.5 -16q-25 0 -41 16zM359.5 770q-16.5 16 -16.5 40t16.5 40t40.5 16q25 0 41 -15.5t16 -40.5q0 -24 -16 -40t-41 -16
q-24 0 -40.5 16z" />
    <glyph glyph-name="Igrave" unicode="&#xcc;" horiz-adv-x="302" 
d="M97 700h109v-700h-109v700zM12 906h99l80 -152h-79z" />
    <glyph glyph-name="Iacute" unicode="&#xcd;" horiz-adv-x="302" 
d="M97 700h109v-700h-109v700zM195 906h100l-101 -152h-79z" />
    <glyph glyph-name="Icircumflex" unicode="&#xce;" horiz-adv-x="302" 
d="M97 700h109v-700h-109v700zM120 904h64l119 -150h-86l-65 85l-65 -85h-86z" />
    <glyph glyph-name="Idieresis" unicode="&#xcf;" horiz-adv-x="302" 
d="M97 700h109v-700h-109v700zM9 770q-16 16 -16 40q0 25 16 40.5t41 15.5q24 0 40.5 -16t16.5 -40t-16.5 -40t-40.5 -16q-25 0 -41 16zM213.5 770q-16.5 16 -16.5 40t16.5 40t40.5 16q25 0 41 -15.5t16 -40.5q0 -24 -16 -40t-41 -16q-24 0 -40.5 16z" />
    <glyph glyph-name="Eth" unicode="&#xd0;" horiz-adv-x="633" 
d="M520.5 615.5q70.5 -84.5 70.5 -251.5q0 -130 -31.5 -209.5t-98.5 -117t-177 -37.5h-204v297h-71v82h71v321h231q139 0 209.5 -84.5zM439 154q43 65 43 210q0 128 -42 187.5t-132 59.5h-119v-232h191v-82h-191v-208h110q97 0 140 65z" />
    <glyph glyph-name="Ntilde" unicode="&#xd1;" horiz-adv-x="688" 
d="M612 700v-700h-105l-322 523v-523h-109v700h111l316 -516v516h109zM215 834q25 30 64 30q19 0 36.5 -7.5t38.5 -20.5q17 -10 27 -14.5t19 -4.5q27 0 30 51h61q-1 -54 -26.5 -84t-65.5 -30q-20 0 -38.5 8t-40.5 22q-2 1 -16 9t-23 8q-12 0 -20.5 -12.5t-9.5 -34.5h-61
q0 50 25 80z" />
    <glyph glyph-name="Ograve" unicode="&#xd2;" horiz-adv-x="671" 
d="M174.5 33.5q-68.5 43.5 -105 124.5t-36.5 192t36.5 192t105 124.5t161.5 43.5t161 -43.5t104.5 -124.5t36.5 -192t-36.5 -192t-104.5 -124.5t-161 -43.5t-161.5 43.5zM477 150.5q52 73.5 52 199.5q0 127 -52 200t-141 73t-141.5 -73.5t-52.5 -199.5q0 -83 23.5 -145
t67.5 -95t103 -33q89 0 141 73.5zM196 906h99l80 -152h-79z" />
    <glyph glyph-name="Oacute" unicode="&#xd3;" horiz-adv-x="671" 
d="M174.5 33.5q-68.5 43.5 -105 124.5t-36.5 192t36.5 192t105 124.5t161.5 43.5t161 -43.5t104.5 -124.5t36.5 -192t-36.5 -192t-104.5 -124.5t-161 -43.5t-161.5 43.5zM477 150.5q52 73.5 52 199.5q0 127 -52 200t-141 73t-141.5 -73.5t-52.5 -199.5q0 -83 23.5 -145
t67.5 -95t103 -33q89 0 141 73.5zM379 906h100l-101 -152h-79z" />
    <glyph glyph-name="Ocircumflex" unicode="&#xd4;" horiz-adv-x="671" 
d="M174.5 33.5q-68.5 43.5 -105 124.5t-36.5 192t36.5 192t105 124.5t161.5 43.5t161 -43.5t104.5 -124.5t36.5 -192t-36.5 -192t-104.5 -124.5t-161 -43.5t-161.5 43.5zM477 150.5q52 73.5 52 199.5q0 127 -52 200t-141 73t-141.5 -73.5t-52.5 -199.5q0 -83 23.5 -145
t67.5 -95t103 -33q89 0 141 73.5zM304 904h64l119 -150h-86l-65 85l-65 -85h-86z" />
    <glyph glyph-name="Otilde" unicode="&#xd5;" horiz-adv-x="671" 
d="M174.5 33.5q-68.5 43.5 -105 124.5t-36.5 192t36.5 192t105 124.5t161.5 43.5t161 -43.5t104.5 -124.5t36.5 -192t-36.5 -192t-104.5 -124.5t-161 -43.5t-161.5 43.5zM477 150.5q52 73.5 52 199.5q0 127 -52 200t-141 73t-141.5 -73.5t-52.5 -199.5q0 -83 23.5 -145
t67.5 -95t103 -33q89 0 141 73.5zM207 834q25 30 64 30q19 0 36.5 -7.5t38.5 -20.5q17 -10 27 -14.5t19 -4.5q27 0 30 51h61q-1 -54 -26.5 -84t-65.5 -30q-20 0 -38.5 8t-40.5 22q-2 1 -16 9t-23 8q-12 0 -20.5 -12.5t-9.5 -34.5h-61q0 50 25 80z" />
    <glyph glyph-name="Odieresis" unicode="&#xd6;" horiz-adv-x="671" 
d="M174.5 33.5q-68.5 43.5 -105 124.5t-36.5 192t36.5 192t105 124.5t161.5 43.5t161 -43.5t104.5 -124.5t36.5 -192t-36.5 -192t-104.5 -124.5t-161 -43.5t-161.5 43.5zM477 150.5q52 73.5 52 199.5q0 127 -52 200t-141 73t-141.5 -73.5t-52.5 -199.5q0 -83 23.5 -145
t67.5 -95t103 -33q89 0 141 73.5zM193 770q-16 16 -16 40q0 25 16 40.5t41 15.5q24 0 40.5 -16t16.5 -40t-16.5 -40t-40.5 -16q-25 0 -41 16zM397.5 770q-16.5 16 -16.5 40t16.5 40t40.5 16q25 0 41 -15.5t16 -40.5q0 -24 -16 -40t-41 -16q-24 0 -40.5 16z" />
    <glyph glyph-name="multiply" unicode="&#xd7;" horiz-adv-x="610" 
d="M304 198l-181 -191l-64 58l184 195l-184 194l63 58l182 -190l183 190l63 -58l-184 -194l184 -195l-63 -58z" />
    <glyph glyph-name="Oslash" unicode="&#xd8;" horiz-adv-x="671" 
d="M610 521.5q28 -74.5 28 -171.5q0 -111 -36.5 -192t-104.5 -124.5t-161 -43.5q-78 0 -138 30l-34 -63h-86l57 107q-50 47 -76 120t-26 166q0 111 36.5 192t105 124.5t161.5 43.5q68 0 126 -25l21 40h90l-44 -83q53 -46 81 -120.5zM186 163l233 440q-38 20 -83 20
q-89 0 -141.5 -73.5t-52.5 -199.5q0 -115 44 -187zM477 150.5q52 73.5 52 199.5q0 125 -50 198l-237 -444q41 -27 94 -27q89 0 141 73.5z" />
    <glyph glyph-name="Ugrave" unicode="&#xd9;" horiz-adv-x="659" 
d="M136.5 61.5q-65.5 71.5 -65.5 212.5v426h110v-424q0 -197 149 -197q148 0 148 197v424h110v-426q0 -140 -65.5 -212t-192.5 -72q-128 0 -193.5 71.5zM190 906h99l80 -152h-79z" />
    <glyph glyph-name="Uacute" unicode="&#xda;" horiz-adv-x="659" 
d="M136.5 61.5q-65.5 71.5 -65.5 212.5v426h110v-424q0 -197 149 -197q148 0 148 197v424h110v-426q0 -140 -65.5 -212t-192.5 -72q-128 0 -193.5 71.5zM373 906h100l-101 -152h-79z" />
    <glyph glyph-name="Ucircumflex" unicode="&#xdb;" horiz-adv-x="659" 
d="M136.5 61.5q-65.5 71.5 -65.5 212.5v426h110v-424q0 -197 149 -197q148 0 148 197v424h110v-426q0 -140 -65.5 -212t-192.5 -72q-128 0 -193.5 71.5zM298 904h64l119 -150h-86l-65 85l-65 -85h-86z" />
    <glyph glyph-name="Udieresis" unicode="&#xdc;" horiz-adv-x="659" 
d="M136.5 61.5q-65.5 71.5 -65.5 212.5v426h110v-424q0 -197 149 -197q148 0 148 197v424h110v-426q0 -140 -65.5 -212t-192.5 -72q-128 0 -193.5 71.5zM187 770q-16 16 -16 40q0 25 16 40.5t41 15.5q24 0 40.5 -16t16.5 -40t-16.5 -40t-40.5 -16q-25 0 -41 16zM391.5 770
q-16.5 16 -16.5 40t16.5 40t40.5 16q25 0 41 -15.5t16 -40.5q0 -24 -16 -40t-41 -16q-24 0 -40.5 16z" />
    <glyph glyph-name="Yacute" unicode="&#xdd;" horiz-adv-x="591" 
d="M241 279l-225 421h120l159 -319l159 319h120l-223 -421v-279h-110v279zM338 906h100l-101 -152h-79z" />
    <glyph glyph-name="Thorn" unicode="&#xde;" horiz-adv-x="569" 
d="M77 700h109v-95h97q118 0 179 -54.5t61 -158.5q0 -109 -63.5 -167.5t-181.5 -58.5h-92v-166h-109v700zM290 255q61 0 94.5 34.5t33.5 98.5q0 63 -35 96t-101 33h-96v-262h104z" />
    <glyph glyph-name="germandbls" unicode="&#xdf;" horiz-adv-x="568" 
d="M261 12.5q-44 22.5 -65 65.5l64 43q37 -56 96 -56q37 0 60 22t23 56q0 35 -21.5 53.5t-68.5 36.5q-54 21 -78 51t-24 73q0 35 16 56.5t49 49.5q29 24 43 42.5t14 45.5q0 40 -25.5 61.5t-71.5 21.5q-61 0 -90 -38.5t-29 -115.5v-480h-98v485q0 109 55 167t158 58
q95 0 146 -41t51 -118q0 -41 -20 -67.5t-57 -57.5q-25 -21 -36 -34t-11 -28q0 -23 23 -40t61 -33q52 -22 82 -56t30 -88q0 -71 -48.5 -114t-127.5 -43q-56 0 -100 22.5z" />
    <glyph glyph-name="agrave" unicode="&#xe0;" horiz-adv-x="519" 
d="M118.5 10q-38.5 20 -60 55.5t-21.5 80.5q0 76 58 116.5t165 40.5h94v25q0 50 -27 77t-79 27q-45 0 -84 -17.5t-64 -50.5l-47 59q36 42 87.5 64.5t111.5 22.5q96 0 149 -46.5t53 -131.5v-232q0 -45 12 -100h-87q-10 24 -14 67h-2q-57 -77 -157 -77q-49 0 -87.5 20z
M316.5 96.5q37.5 29.5 37.5 71.5v66h-98q-59 0 -90.5 -22.5t-31.5 -65.5q0 -37 24.5 -58t66.5 -21q54 0 91.5 29.5zM116 706h99l80 -152h-79z" />
    <glyph glyph-name="aacute" unicode="&#xe1;" horiz-adv-x="519" 
d="M118.5 10q-38.5 20 -60 55.5t-21.5 80.5q0 76 58 116.5t165 40.5h94v25q0 50 -27 77t-79 27q-45 0 -84 -17.5t-64 -50.5l-47 59q36 42 87.5 64.5t111.5 22.5q96 0 149 -46.5t53 -131.5v-232q0 -45 12 -100h-87q-10 24 -14 67h-2q-57 -77 -157 -77q-49 0 -87.5 20z
M316.5 96.5q37.5 29.5 37.5 71.5v66h-98q-59 0 -90.5 -22.5t-31.5 -65.5q0 -37 24.5 -58t66.5 -21q54 0 91.5 29.5zM299 706h100l-101 -152h-79z" />
    <glyph glyph-name="acircumflex" unicode="&#xe2;" horiz-adv-x="519" 
d="M118.5 10q-38.5 20 -60 55.5t-21.5 80.5q0 76 58 116.5t165 40.5h94v25q0 50 -27 77t-79 27q-45 0 -84 -17.5t-64 -50.5l-47 59q36 42 87.5 64.5t111.5 22.5q96 0 149 -46.5t53 -131.5v-232q0 -45 12 -100h-87q-10 24 -14 67h-2q-57 -77 -157 -77q-49 0 -87.5 20z
M316.5 96.5q37.5 29.5 37.5 71.5v66h-98q-59 0 -90.5 -22.5t-31.5 -65.5q0 -37 24.5 -58t66.5 -21q54 0 91.5 29.5zM224 704h64l119 -150h-86l-65 85l-65 -85h-86z" />
    <glyph glyph-name="atilde" unicode="&#xe3;" horiz-adv-x="519" 
d="M118.5 10q-38.5 20 -60 55.5t-21.5 80.5q0 76 58 116.5t165 40.5h94v25q0 50 -27 77t-79 27q-45 0 -84 -17.5t-64 -50.5l-47 59q36 42 87.5 64.5t111.5 22.5q96 0 149 -46.5t53 -131.5v-232q0 -45 12 -100h-87q-10 24 -14 67h-2q-57 -77 -157 -77q-49 0 -87.5 20z
M316.5 96.5q37.5 29.5 37.5 71.5v66h-98q-59 0 -90.5 -22.5t-31.5 -65.5q0 -37 24.5 -58t66.5 -21q54 0 91.5 29.5zM127 634q25 30 64 30q19 0 36.5 -7.5t38.5 -20.5q17 -10 27 -14.5t19 -4.5q27 0 30 51h61q-1 -54 -26.5 -84t-65.5 -30q-20 0 -38.5 8t-40.5 22q-2 1 -16 9
t-23 8q-12 0 -20.5 -12.5t-9.5 -34.5h-61q0 50 25 80z" />
    <glyph glyph-name="adieresis" unicode="&#xe4;" horiz-adv-x="519" 
d="M118.5 10q-38.5 20 -60 55.5t-21.5 80.5q0 76 58 116.5t165 40.5h94v25q0 50 -27 77t-79 27q-45 0 -84 -17.5t-64 -50.5l-47 59q36 42 87.5 64.5t111.5 22.5q96 0 149 -46.5t53 -131.5v-232q0 -45 12 -100h-87q-10 24 -14 67h-2q-57 -77 -157 -77q-49 0 -87.5 20z
M316.5 96.5q37.5 29.5 37.5 71.5v66h-98q-59 0 -90.5 -22.5t-31.5 -65.5q0 -37 24.5 -58t66.5 -21q54 0 91.5 29.5zM113 570q-16 16 -16 40q0 25 16 40.5t41 15.5q24 0 40.5 -16t16.5 -40t-16.5 -40t-40.5 -16q-25 0 -41 16zM317.5 570q-16.5 16 -16.5 40t16.5 40t40.5 16
q25 0 41 -15.5t16 -40.5q0 -24 -16 -40t-41 -16q-24 0 -40.5 16z" />
    <glyph glyph-name="aring" unicode="&#xe5;" horiz-adv-x="519" 
d="M118.5 10q-38.5 20 -60 55.5t-21.5 80.5q0 76 58 116.5t165 40.5h94v25q0 50 -27 77t-79 27q-45 0 -84 -17.5t-64 -50.5l-47 59q36 42 87.5 64.5t111.5 22.5q96 0 149 -46.5t53 -131.5v-232q0 -45 12 -100h-87q-10 24 -14 67h-2q-57 -77 -157 -77q-49 0 -87.5 20z
M316.5 96.5q37.5 29.5 37.5 71.5v66h-98q-59 0 -90.5 -22.5t-31.5 -65.5q0 -37 24.5 -58t66.5 -21q54 0 91.5 29.5zM185 568q-28 26 -28 67t28 67t71 26t71 -26t28 -67t-28 -67t-71 -26t-71 26zM292 598.5q14 14.5 14 36.5t-14 36.5t-36 14.5t-36 -14.5t-14 -36.5t14 -36.5
t36 -14.5t36 14.5z" />
    <glyph glyph-name="ae" unicode="&#xe6;" horiz-adv-x="827" 
d="M793 227h-349q5 -75 40 -114t99 -39q43 0 76 17t62 52l54 -53q-28 -47 -80.5 -73.5t-116.5 -26.5q-57 0 -102.5 20t-75.5 59q-32 -36 -80 -57.5t-102 -21.5q-81 0 -131 42.5t-50 110.5q0 74 52.5 113.5t152.5 39.5h103v32q0 51 -26 77.5t-76 26.5q-45 0 -82 -17.5
t-62 -50.5l-47 59q36 43 85.5 65t109.5 22q55 0 96.5 -17.5t66.5 -50.5q62 68 166 68t160.5 -64t56.5 -183v-36zM696 301q0 62 -31.5 95t-91.5 33q-53 0 -86 -34.5t-41 -98.5h250v5zM345 227h-94q-57 0 -87.5 -22t-30.5 -62q0 -35 24 -55.5t64 -20.5q52 0 88 29.5t36 71.5
v59z" />
    <glyph glyph-name="ccedilla" unicode="&#xe7;" horiz-adv-x="479" 
d="M349 87q34 19 55 53l59 -53q-24 -41 -64.5 -65t-93.5 -30l-30 -55q42 0 67 -19.5t25 -53.5q0 -41 -29.5 -66.5t-78.5 -25.5q-22 0 -45.5 4.5t-36.5 11.5l10 44q29 -9 59 -9q23 0 37 10t14 28q0 17 -19.5 26.5t-53.5 8.5l-23 26l39 69q-99 10 -153.5 78t-54.5 181
q0 123 63 191.5t176 68.5q65 0 114.5 -25t77.5 -72l-59 -53q-21 34 -55 53t-74 19q-68 0 -106 -48t-38 -134q0 -85 38 -133.5t106 -48.5q40 0 74 19z" />
    <glyph glyph-name="egrave" unicode="&#xe8;" horiz-adv-x="526" 
d="M492 212h-356q8 -68 43.5 -103t97.5 -35q88 0 142 69l55 -53q-29 -47 -83 -73.5t-119 -26.5q-112 0 -174.5 68.5t-62.5 190.5t63 191.5t173 69.5q104 0 162.5 -68.5t58.5 -191.5v-38zM398 290q0 65 -35 102t-96 37q-57 0 -91 -38t-41 -108h263v7zM129 706h99l80 -152h-79
z" />
    <glyph glyph-name="eacute" unicode="&#xe9;" horiz-adv-x="526" 
d="M492 212h-356q8 -68 43.5 -103t97.5 -35q88 0 142 69l55 -53q-29 -47 -83 -73.5t-119 -26.5q-112 0 -174.5 68.5t-62.5 190.5t63 191.5t173 69.5q104 0 162.5 -68.5t58.5 -191.5v-38zM398 290q0 65 -35 102t-96 37q-57 0 -91 -38t-41 -108h263v7zM312 706h100l-101 -152
h-79z" />
    <glyph glyph-name="ecircumflex" unicode="&#xea;" horiz-adv-x="526" 
d="M492 212h-356q8 -68 43.5 -103t97.5 -35q88 0 142 69l55 -53q-29 -47 -83 -73.5t-119 -26.5q-112 0 -174.5 68.5t-62.5 190.5t63 191.5t173 69.5q104 0 162.5 -68.5t58.5 -191.5v-38zM398 290q0 65 -35 102t-96 37q-57 0 -91 -38t-41 -108h263v7zM237 704h64l119 -150
h-86l-65 85l-65 -85h-86z" />
    <glyph glyph-name="edieresis" unicode="&#xeb;" horiz-adv-x="526" 
d="M492 212h-356q8 -68 43.5 -103t97.5 -35q88 0 142 69l55 -53q-29 -47 -83 -73.5t-119 -26.5q-112 0 -174.5 68.5t-62.5 190.5t63 191.5t173 69.5q104 0 162.5 -68.5t58.5 -191.5v-38zM398 290q0 65 -35 102t-96 37q-57 0 -91 -38t-41 -108h263v7zM126 570q-16 16 -16 40
q0 25 16 40.5t41 15.5q24 0 40.5 -16t16.5 -40t-16.5 -40t-40.5 -16q-25 0 -41 16zM330.5 570q-16.5 16 -16.5 40t16.5 40t40.5 16q25 0 41 -15.5t16 -40.5q0 -24 -16 -40t-41 -16q-24 0 -40.5 16z" />
    <glyph glyph-name="igrave" unicode="&#xec;" horiz-adv-x="262" 
d="M82 500h98v-500h-98v500zM-9 706h99l80 -152h-79z" />
    <glyph glyph-name="iacute" unicode="&#xed;" horiz-adv-x="262" 
d="M82 500h98v-500h-98v500zM174 706h100l-101 -152h-79z" />
    <glyph glyph-name="icircumflex" unicode="&#xee;" horiz-adv-x="262" 
d="M82 500h98v-500h-98v500zM99 704h64l119 -150h-86l-65 85l-65 -85h-86z" />
    <glyph glyph-name="idieresis" unicode="&#xef;" horiz-adv-x="262" 
d="M82 500h98v-500h-98v500zM-12 570q-16 16 -16 40q0 25 16 40.5t41 15.5q24 0 40.5 -16t16.5 -40t-16.5 -40t-40.5 -16q-25 0 -41 16zM192.5 570q-16.5 16 -16.5 40t16.5 40t40.5 16q25 0 41 -15.5t16 -40.5q0 -24 -16 -40t-41 -16q-24 0 -40.5 16z" />
    <glyph glyph-name="eth" unicode="&#xf0;" horiz-adv-x="503" 
d="M428.5 440q40.5 -88 40.5 -187q0 -80 -27.5 -139.5t-78 -91.5t-117.5 -32q-62 0 -110 28t-74.5 78.5t-26.5 116.5t26.5 119t74 82.5t107.5 29.5q29 0 56 -10.5t45 -29.5q-30 83 -96 143l-127 -82l-38 56l107 70q-52 34 -119 49l8 60q96 -13 179 -65l117 76l37 -58
l-96 -62q72 -63 112.5 -151zM340 110q33 40 33 107q0 69 -33 109.5t-89 40.5q-55 0 -86.5 -40.5t-31.5 -109.5q0 -68 31.5 -107.5t86.5 -39.5q56 0 89 40z" />
    <glyph glyph-name="ntilde" unicode="&#xf1;" horiz-adv-x="554" 
d="M56 372q0 93 -4 128h92q5 -37 5 -88h3q20 45 65.5 71.5t101.5 26.5q176 0 176 -228v-282h-99v283q0 75 -25 111t-77 36q-61 0 -100 -44t-39 -112v-274h-99v372zM147 634q25 30 64 30q19 0 36.5 -7.5t38.5 -20.5q17 -10 27 -14.5t19 -4.5q27 0 30 51h61q-1 -54 -26.5 -84
t-65.5 -30q-20 0 -38.5 8t-40.5 22q-2 1 -16 9t-23 8q-12 0 -20.5 -12.5t-9.5 -34.5h-61q0 50 25 80z" />
    <glyph glyph-name="ograve" unicode="&#xf2;" horiz-adv-x="564" 
d="M101 59.5q-66 69.5 -66 190.5t66 190.5t181 69.5t181.5 -69.5t66.5 -190.5t-66.5 -190.5t-181.5 -69.5t-181 69.5zM391 114.5q40 49.5 40 135.5t-40 135.5t-109 49.5q-70 0 -109 -49.5t-39 -135.5t39 -135.5t109 -49.5q69 0 109 49.5zM142 706h99l80 -152h-79z" />
    <glyph glyph-name="oacute" unicode="&#xf3;" horiz-adv-x="564" 
d="M101 59.5q-66 69.5 -66 190.5t66 190.5t181 69.5t181.5 -69.5t66.5 -190.5t-66.5 -190.5t-181.5 -69.5t-181 69.5zM391 114.5q40 49.5 40 135.5t-40 135.5t-109 49.5q-70 0 -109 -49.5t-39 -135.5t39 -135.5t109 -49.5q69 0 109 49.5zM325 706h100l-101 -152h-79z" />
    <glyph glyph-name="ocircumflex" unicode="&#xf4;" horiz-adv-x="564" 
d="M101 59.5q-66 69.5 -66 190.5t66 190.5t181 69.5t181.5 -69.5t66.5 -190.5t-66.5 -190.5t-181.5 -69.5t-181 69.5zM391 114.5q40 49.5 40 135.5t-40 135.5t-109 49.5q-70 0 -109 -49.5t-39 -135.5t39 -135.5t109 -49.5q69 0 109 49.5zM250 704h64l119 -150h-86l-65 85
l-65 -85h-86z" />
    <glyph glyph-name="otilde" unicode="&#xf5;" horiz-adv-x="564" 
d="M101 59.5q-66 69.5 -66 190.5t66 190.5t181 69.5t181.5 -69.5t66.5 -190.5t-66.5 -190.5t-181.5 -69.5t-181 69.5zM391 114.5q40 49.5 40 135.5t-40 135.5t-109 49.5q-70 0 -109 -49.5t-39 -135.5t39 -135.5t109 -49.5q69 0 109 49.5zM153 634q25 30 64 30
q19 0 36.5 -7.5t38.5 -20.5q17 -10 27 -14.5t19 -4.5q27 0 30 51h61q-1 -54 -26.5 -84t-65.5 -30q-20 0 -38.5 8t-40.5 22q-2 1 -16 9t-23 8q-12 0 -20.5 -12.5t-9.5 -34.5h-61q0 50 25 80z" />
    <glyph glyph-name="odieresis" unicode="&#xf6;" horiz-adv-x="564" 
d="M101 59.5q-66 69.5 -66 190.5t66 190.5t181 69.5t181.5 -69.5t66.5 -190.5t-66.5 -190.5t-181.5 -69.5t-181 69.5zM391 114.5q40 49.5 40 135.5t-40 135.5t-109 49.5q-70 0 -109 -49.5t-39 -135.5t39 -135.5t109 -49.5q69 0 109 49.5zM139 570q-16 16 -16 40
q0 25 16 40.5t41 15.5q24 0 40.5 -16t16.5 -40t-16.5 -40t-40.5 -16q-25 0 -41 16zM343.5 570q-16.5 16 -16.5 40t16.5 40t40.5 16q25 0 41 -15.5t16 -40.5q0 -24 -16 -40t-41 -16q-24 0 -40.5 16z" />
    <glyph glyph-name="divide" unicode="&#xf7;" horiz-adv-x="610" 
d="M258.5 398.5q-18.5 17.5 -18.5 45.5t18.5 45t47.5 17t47.5 -17t18.5 -45t-18.5 -45.5t-47.5 -17.5t-47.5 17.5zM50 301h511v-78h-511v78zM258.5 35.5q-18.5 17.5 -18.5 45.5q0 27 18.5 44.5t47.5 17.5t47.5 -17.5t18.5 -44.5q0 -28 -18.5 -45.5t-47.5 -17.5t-47.5 17.5z
" />
    <glyph glyph-name="oslash" unicode="&#xf8;" horiz-adv-x="564" 
d="M505.5 377.5q24.5 -55.5 24.5 -127.5q0 -121 -66.5 -190.5t-181.5 -69.5q-49 0 -93 14l-25 -47h-72l40 76q-47 33 -72 88.5t-25 128.5q0 121 66 190.5t181 69.5q49 0 93 -14l21 39h76l-37 -70q46 -32 70.5 -87.5zM174 113l164 312q-24 10 -56 10q-70 0 -109 -49.5
t-39 -135.5q0 -88 40 -137zM391 114.5q40 49.5 40 135.5q0 85 -39 135l-165 -310q23 -10 55 -10q69 0 109 49.5z" />
    <glyph glyph-name="ugrave" unicode="&#xf9;" horiz-adv-x="555" 
d="M101.5 46.5q-44.5 56.5 -44.5 166.5v287h99v-288q0 -72 25 -107t76 -35q60 0 99.5 45t39.5 114v271h99v-387q0 -54 9 -113h-93q-8 43 -9 89h-3q-20 -46 -65.5 -72.5t-101.5 -26.5q-86 0 -130.5 56.5zM142 706h99l80 -152h-79z" />
    <glyph glyph-name="uacute" unicode="&#xfa;" horiz-adv-x="555" 
d="M101.5 46.5q-44.5 56.5 -44.5 166.5v287h99v-288q0 -72 25 -107t76 -35q60 0 99.5 45t39.5 114v271h99v-387q0 -54 9 -113h-93q-8 43 -9 89h-3q-20 -46 -65.5 -72.5t-101.5 -26.5q-86 0 -130.5 56.5zM325 706h100l-101 -152h-79z" />
    <glyph glyph-name="ucircumflex" unicode="&#xfb;" horiz-adv-x="555" 
d="M101.5 46.5q-44.5 56.5 -44.5 166.5v287h99v-288q0 -72 25 -107t76 -35q60 0 99.5 45t39.5 114v271h99v-387q0 -54 9 -113h-93q-8 43 -9 89h-3q-20 -46 -65.5 -72.5t-101.5 -26.5q-86 0 -130.5 56.5zM250 704h64l119 -150h-86l-65 85l-65 -85h-86z" />
    <glyph glyph-name="udieresis" unicode="&#xfc;" horiz-adv-x="555" 
d="M101.5 46.5q-44.5 56.5 -44.5 166.5v287h99v-288q0 -72 25 -107t76 -35q60 0 99.5 45t39.5 114v271h99v-387q0 -54 9 -113h-93q-8 43 -9 89h-3q-20 -46 -65.5 -72.5t-101.5 -26.5q-86 0 -130.5 56.5zM139 570q-16 16 -16 40q0 25 16 40.5t41 15.5q24 0 40.5 -16t16.5 -40
t-16.5 -40t-40.5 -16q-25 0 -41 16zM343.5 570q-16.5 16 -16.5 40t16.5 40t40.5 16q25 0 41 -15.5t16 -40.5q0 -24 -16 -40t-41 -16q-24 0 -40.5 16z" />
    <glyph glyph-name="yacute" unicode="&#xfd;" horiz-adv-x="476" 
d="M465 500l-185 -514q-67 -185 -214 -185q-28 0 -64 9v77q21 -8 50 -8q49 0 83 35t65 116l-186 470h106l126 -363l112 363h107zM285 706h100l-101 -152h-79z" />
    <glyph glyph-name="thorn" unicode="&#xfe;" horiz-adv-x="537" 
d="M56 742h98v-295q19 29 57 46t85 17q97 0 151.5 -68t54.5 -188q0 -79 -26.5 -139t-75 -92.5t-112.5 -32.5q-44 0 -80 15.5t-54 42.5v-278h-98v972zM369.5 116q34.5 51 34.5 138q0 86 -33 133t-93 47q-56 0 -90 -38t-34 -99v-79q0 -71 32.5 -112t89.5 -41q59 0 93.5 51z
" />
    <glyph glyph-name="ydieresis" unicode="&#xff;" horiz-adv-x="476" 
d="M465 500l-185 -514q-67 -185 -214 -185q-28 0 -64 9v77q21 -8 50 -8q49 0 83 35t65 116l-186 470h106l126 -363l112 363h107zM99 570q-16 16 -16 40q0 25 16 40.5t41 15.5q24 0 40.5 -16t16.5 -40t-16.5 -40t-40.5 -16q-25 0 -41 16zM303.5 570q-16.5 16 -16.5 40
t16.5 40t40.5 16q25 0 41 -15.5t16 -40.5q0 -24 -16 -40t-41 -16q-24 0 -40.5 16z" />
    <glyph glyph-name="Amacron" unicode="&#x100;" horiz-adv-x="611" 
d="M436 139h-261l-43 -139h-116l240 700h99l240 -700h-116zM408 228l-102 331l-103 -331h205zM145 834h322v-67h-322v67z" />
    <glyph glyph-name="amacron" unicode="&#x101;" horiz-adv-x="519" 
d="M118.5 10q-38.5 20 -60 55.5t-21.5 80.5q0 76 58 116.5t165 40.5h94v25q0 50 -27 77t-79 27q-45 0 -84 -17.5t-64 -50.5l-47 59q36 42 87.5 64.5t111.5 22.5q96 0 149 -46.5t53 -131.5v-232q0 -45 12 -100h-87q-10 24 -14 67h-2q-57 -77 -157 -77q-49 0 -87.5 20z
M316.5 96.5q37.5 29.5 37.5 71.5v66h-98q-59 0 -90.5 -22.5t-31.5 -65.5q0 -37 24.5 -58t66.5 -21q54 0 91.5 29.5zM95 634h322v-67h-322v67z" />
    <glyph glyph-name="Abreve" unicode="&#x102;" horiz-adv-x="611" 
d="M436 139h-261l-43 -139h-116l240 700h99l240 -700h-116zM408 228l-102 331l-103 -331h205zM197 789.5q-40 35.5 -42 104.5h65q2 -35 23.5 -55t62.5 -20q38 0 61 19t25 56h65q-2 -67 -40 -103.5t-111 -36.5q-69 0 -109 35.5z" />
    <glyph glyph-name="abreve" unicode="&#x103;" horiz-adv-x="519" 
d="M118.5 10q-38.5 20 -60 55.5t-21.5 80.5q0 76 58 116.5t165 40.5h94v25q0 50 -27 77t-79 27q-45 0 -84 -17.5t-64 -50.5l-47 59q36 42 87.5 64.5t111.5 22.5q96 0 149 -46.5t53 -131.5v-232q0 -45 12 -100h-87q-10 24 -14 67h-2q-57 -77 -157 -77q-49 0 -87.5 20z
M316.5 96.5q37.5 29.5 37.5 71.5v66h-98q-59 0 -90.5 -22.5t-31.5 -65.5q0 -37 24.5 -58t66.5 -21q54 0 91.5 29.5zM147 589.5q-40 35.5 -42 104.5h65q2 -35 23.5 -55t62.5 -20q38 0 61 19t25 56h65q-2 -67 -40 -103.5t-111 -36.5q-69 0 -109 35.5z" />
    <glyph glyph-name="Aogonek" unicode="&#x104;" horiz-adv-x="611" 
d="M612 -185q-17 -16 -42.5 -25t-53.5 -9q-48 0 -75.5 24t-27.5 71q0 76 89 124h-23l-43 139h-261l-43 -139h-116l240 700h99l240 -700h-26q-84 -58 -84 -111q0 -20 14 -32t44 -12q22 0 55 14zM408 228l-102 331l-103 -331h205z" />
    <glyph glyph-name="aogonek" unicode="&#x105;" horiz-adv-x="519" 
d="M496 -185q-17 -16 -42.5 -25t-53.5 -9q-48 0 -75.5 24t-27.5 71q0 76 89 124h-7q-10 24 -14 67h-2q-57 -77 -157 -77q-49 0 -87.5 20t-60 55.5t-21.5 80.5q0 76 58 116.5t165 40.5h94v25q0 50 -27 77t-79 27q-45 0 -84 -17.5t-64 -50.5l-47 59q36 42 87.5 64.5
t111.5 22.5q96 0 149 -46.5t53 -131.5v-232q0 -45 12 -100h-13q-84 -58 -84 -111q0 -20 14 -32t44 -12q22 0 55 14zM354 234h-98q-59 0 -90.5 -22.5t-31.5 -65.5q0 -37 24.5 -58t66.5 -21q54 0 91.5 29.5t37.5 71.5v66z" />
    <glyph glyph-name="Cacute" unicode="&#x106;" horiz-adv-x="597" 
d="M178.5 34q-69.5 44 -107.5 125t-38 191t38 191t108.5 125t165.5 44q77 0 137 -30t88 -84l-62 -58q-54 83 -161 83q-98 0 -151 -70.5t-53 -200.5q0 -129 52 -200t147 -71q58 0 99 20.5t67 62.5l62 -58q-29 -54 -88.5 -84t-139.5 -30q-94 0 -163.5 44zM385 906h100
l-101 -152h-79z" />
    <glyph glyph-name="cacute" unicode="&#x107;" horiz-adv-x="479" 
d="M95 59q-63 69 -63 191q0 123 63 191.5t176 68.5q65 0 114.5 -25t77.5 -72l-59 -53q-21 34 -55 53t-74 19q-68 0 -106 -48t-38 -134q0 -85 38 -133.5t106 -48.5q40 0 74 19t55 53l59 -53q-28 -47 -77.5 -72t-114.5 -25q-113 0 -176 69zM318 706h100l-101 -152h-79z" />
    <glyph glyph-name="Ccircumflex" unicode="&#x108;" horiz-adv-x="597" 
d="M178.5 34q-69.5 44 -107.5 125t-38 191t38 191t108.5 125t165.5 44q77 0 137 -30t88 -84l-62 -58q-54 83 -161 83q-98 0 -151 -70.5t-53 -200.5q0 -129 52 -200t147 -71q58 0 99 20.5t67 62.5l62 -58q-29 -54 -88.5 -84t-139.5 -30q-94 0 -163.5 44zM310 904h64l119 -150
h-86l-65 85l-65 -85h-86z" />
    <glyph glyph-name="ccircumflex" unicode="&#x109;" horiz-adv-x="479" 
d="M95 59q-63 69 -63 191q0 123 63 191.5t176 68.5q65 0 114.5 -25t77.5 -72l-59 -53q-21 34 -55 53t-74 19q-68 0 -106 -48t-38 -134q0 -85 38 -133.5t106 -48.5q40 0 74 19t55 53l59 -53q-28 -47 -77.5 -72t-114.5 -25q-113 0 -176 69zM243 704h64l119 -150h-86l-65 85
l-65 -85h-86z" />
    <glyph glyph-name="Cdotaccent" unicode="&#x10a;" horiz-adv-x="597" 
d="M178.5 34q-69.5 44 -107.5 125t-38 191t38 191t108.5 125t165.5 44q77 0 137 -30t88 -84l-62 -58q-54 83 -161 83q-98 0 -151 -70.5t-53 -200.5q0 -129 52 -200t147 -71q58 0 99 20.5t67 62.5l62 -58q-29 -54 -88.5 -84t-139.5 -30q-94 0 -163.5 44zM301 770
q-16 16 -16 40q0 25 16 40.5t41 15.5t41 -15.5t16 -40.5q0 -24 -16 -40t-41 -16t-41 16z" />
    <glyph glyph-name="cdotaccent" unicode="&#x10b;" horiz-adv-x="479" 
d="M95 59q-63 69 -63 191q0 123 63 191.5t176 68.5q65 0 114.5 -25t77.5 -72l-59 -53q-21 34 -55 53t-74 19q-68 0 -106 -48t-38 -134q0 -85 38 -133.5t106 -48.5q40 0 74 19t55 53l59 -53q-28 -47 -77.5 -72t-114.5 -25q-113 0 -176 69zM234 570q-16 16 -16 40
q0 25 16 40.5t41 15.5t41 -15.5t16 -40.5q0 -24 -16 -40t-41 -16t-41 16z" />
    <glyph glyph-name="Ccaron" unicode="&#x10c;" horiz-adv-x="597" 
d="M178.5 34q-69.5 44 -107.5 125t-38 191t38 191t108.5 125t165.5 44q77 0 137 -30t88 -84l-62 -58q-54 83 -161 83q-98 0 -151 -70.5t-53 -200.5q0 -129 52 -200t147 -71q58 0 99 20.5t67 62.5l62 -58q-29 -54 -88.5 -84t-139.5 -30q-94 0 -163.5 44zM191 904h86l65 -85
l65 85h86l-119 -150h-64z" />
    <glyph glyph-name="ccaron" unicode="&#x10d;" horiz-adv-x="479" 
d="M95 59q-63 69 -63 191q0 123 63 191.5t176 68.5q65 0 114.5 -25t77.5 -72l-59 -53q-21 34 -55 53t-74 19q-68 0 -106 -48t-38 -134q0 -85 38 -133.5t106 -48.5q40 0 74 19t55 53l59 -53q-28 -47 -77.5 -72t-114.5 -25q-113 0 -176 69zM124 704h86l65 -85l65 85h86
l-119 -150h-64z" />
    <glyph glyph-name="Dcaron" unicode="&#x10e;" horiz-adv-x="629" 
d="M77 700h231q139 0 209.5 -84.5t70.5 -251.5q0 -130 -31.5 -209.5t-99 -117t-177.5 -37.5h-203v700zM296 89q96 0 139.5 65t43.5 210q0 128 -42 187.5t-133 59.5h-118v-522h110zM164 904h86l65 -85l65 85h86l-119 -150h-64z" />
    <glyph glyph-name="dcaron" unicode="&#x10f;" horiz-adv-x="689" 
d="M88 62q-56 72 -56 197q0 76 26 132.5t74 87.5t112 31q90 0 144 -72h2v304h99v-614q0 -96 3 -128h-92q-2 22 -2 75h-2q-23 -38 -65 -61.5t-89 -23.5q-98 0 -154 72zM354 103.5q36 35.5 36 96.5v95q0 62 -36.5 101t-95.5 39q-60 0 -93.5 -46.5t-33.5 -131.5
q0 -89 33.5 -139t93.5 -50t96 35.5zM662 744q18 -20 18 -51q0 -35 -18.5 -74.5t-49.5 -68.5l-41 30q11 14 22 31.5t17 33.5q-25 1 -41 17t-16 41q0 27 16.5 44t43.5 17q31 0 49 -20z" />
    <glyph glyph-name="Dcroat" unicode="&#x110;" horiz-adv-x="633" 
d="M520.5 615.5q70.5 -84.5 70.5 -251.5q0 -130 -31.5 -209.5t-98.5 -117t-177 -37.5h-204v297h-71v82h71v321h231q139 0 209.5 -84.5zM439 154q43 65 43 210q0 128 -42 187.5t-132 59.5h-119v-232h191v-82h-191v-208h110q97 0 140 65z" />
    <glyph glyph-name="dcroat" unicode="&#x111;" horiz-adv-x="567" 
d="M489 595v-467q0 -96 3 -128h-92q-2 22 -2 75h-2q-23 -38 -65 -61.5t-89 -23.5q-98 0 -154 72t-56 197q0 76 26 132.5t74 87.5t112 31q90 0 144 -72h2v157h-142v67h142v80h99v-80h58v-67h-58zM390 295q0 62 -36.5 101t-95.5 39q-60 0 -93.5 -46.5t-33.5 -131.5
q0 -89 33.5 -139t93.5 -50t96 35.5t36 96.5v95z" />
    <glyph glyph-name="Emacron" unicode="&#x112;" horiz-adv-x="558" 
d="M77 700h435v-89h-326v-199h291v-89h-291v-234h326v-89h-435v700zM137 834h322v-67h-322v67z" />
    <glyph glyph-name="emacron" unicode="&#x113;" horiz-adv-x="526" 
d="M492 212h-356q8 -68 43.5 -103t97.5 -35q88 0 142 69l55 -53q-29 -47 -83 -73.5t-119 -26.5q-112 0 -174.5 68.5t-62.5 190.5t63 191.5t173 69.5q104 0 162.5 -68.5t58.5 -191.5v-38zM398 290q0 65 -35 102t-96 37q-57 0 -91 -38t-41 -108h263v7zM108 634h322v-67h-322
v67z" />
    <glyph glyph-name="Ebreve" unicode="&#x114;" horiz-adv-x="558" 
d="M77 700h435v-89h-326v-199h291v-89h-291v-234h326v-89h-435v700zM189 789.5q-40 35.5 -42 104.5h65q2 -35 23.5 -55t62.5 -20q38 0 61 19t25 56h65q-2 -67 -40 -103.5t-111 -36.5q-69 0 -109 35.5z" />
    <glyph glyph-name="ebreve" unicode="&#x115;" horiz-adv-x="526" 
d="M492 212h-356q8 -68 43.5 -103t97.5 -35q88 0 142 69l55 -53q-29 -47 -83 -73.5t-119 -26.5q-112 0 -174.5 68.5t-62.5 190.5t63 191.5t173 69.5q104 0 162.5 -68.5t58.5 -191.5v-38zM398 290q0 65 -35 102t-96 37q-57 0 -91 -38t-41 -108h263v7zM160 589.5
q-40 35.5 -42 104.5h65q2 -35 23.5 -55t62.5 -20q38 0 61 19t25 56h65q-2 -67 -40 -103.5t-111 -36.5q-69 0 -109 35.5z" />
    <glyph glyph-name="Edotaccent" unicode="&#x116;" horiz-adv-x="558" 
d="M77 700h435v-89h-326v-199h291v-89h-291v-234h326v-89h-435v700zM257 770q-16 16 -16 40q0 25 16 40.5t41 15.5t41 -15.5t16 -40.5q0 -24 -16 -40t-41 -16t-41 16z" />
    <glyph glyph-name="edotaccent" unicode="&#x117;" horiz-adv-x="526" 
d="M492 212h-356q8 -68 43.5 -103t97.5 -35q88 0 142 69l55 -53q-29 -47 -83 -73.5t-119 -26.5q-112 0 -174.5 68.5t-62.5 190.5t63 191.5t173 69.5q104 0 162.5 -68.5t58.5 -191.5v-38zM398 290q0 65 -35 102t-96 37q-57 0 -91 -38t-41 -108h263v7zM228 570q-16 16 -16 40
q0 25 16 40.5t41 15.5t41 -15.5t16 -40.5q0 -24 -16 -40t-41 -16t-41 16z" />
    <glyph glyph-name="Eogonek" unicode="&#x118;" horiz-adv-x="558" 
d="M555 -185q-17 -16 -42.5 -25t-53.5 -9q-48 0 -75.5 24t-27.5 71q0 76 89 124h-368v700h435v-89h-326v-199h291v-89h-291v-234h326v-89q-84 -58 -84 -111q0 -20 14 -32t44 -12q22 0 55 14z" />
    <glyph glyph-name="eogonek" unicode="&#x119;" horiz-adv-x="526" 
d="M492 212h-356q8 -68 43.5 -103t97.5 -35q88 0 142 69l55 -53q-25 -39 -64 -63q-52 -44 -52 -87q0 -20 14 -32t44 -12q22 0 55 14l14 -44q-18 -16 -43.5 -25t-52.5 -9q-48 0 -75.5 24t-27.5 71q0 36 19 65q-22 -2 -33 -2q-112 0 -174.5 68.5t-62.5 190.5t63 191.5
t173 69.5q104 0 162.5 -68.5t58.5 -191.5v-38zM398 290q0 65 -35 102t-96 37q-57 0 -91 -38t-41 -108h263v7z" />
    <glyph glyph-name="Ecaron" unicode="&#x11a;" horiz-adv-x="558" 
d="M77 700h435v-89h-326v-199h291v-89h-291v-234h326v-89h-435v700zM147 904h86l65 -85l65 85h86l-119 -150h-64z" />
    <glyph glyph-name="ecaron" unicode="&#x11b;" horiz-adv-x="526" 
d="M492 212h-356q8 -68 43.5 -103t97.5 -35q88 0 142 69l55 -53q-29 -47 -83 -73.5t-119 -26.5q-112 0 -174.5 68.5t-62.5 190.5t63 191.5t173 69.5q104 0 162.5 -68.5t58.5 -191.5v-38zM398 290q0 65 -35 102t-96 37q-57 0 -91 -38t-41 -108h263v7zM118 704h86l65 -85
l65 85h86l-119 -150h-64z" />
    <glyph glyph-name="Gcircumflex" unicode="&#x11c;" horiz-adv-x="642" 
d="M585 368v-368h-78l-15 43q-67 -53 -167 -53q-90 0 -156 43.5t-101 124.5t-35 192q0 109 38.5 190t108.5 125.5t164 44.5q80 0 141.5 -30t89.5 -84l-62 -58q-26 41 -68.5 62t-99.5 21q-96 0 -149 -71t-53 -200q0 -132 51 -204.5t143 -72.5q41 0 77.5 11.5t62.5 33.5v171
h-162v79h270zM309 904h64l119 -150h-86l-65 85l-65 -85h-86z" />
    <glyph glyph-name="gcircumflex" unicode="&#x11d;" horiz-adv-x="546" 
d="M489 500v-483q0 -122 -60.5 -185t-177.5 -63q-54 0 -102.5 12.5t-86.5 36.5l33 70q76 -37 152 -37q148 0 148 181v35q-20 -35 -58.5 -54t-89.5 -19q-101 0 -158 70t-57 194q0 118 56 185t154 67q52 0 91 -20.5t62 -58.5h2l10 69h82zM390 282q0 73 -33.5 113t-93.5 40
q-62 0 -97 -47.5t-35 -132.5q0 -87 34.5 -134.5t97.5 -47.5q60 0 93.5 36t33.5 101v72zM226 704h64l119 -150h-86l-65 85l-65 -85h-86z" />
    <glyph glyph-name="Gbreve" unicode="&#x11e;" horiz-adv-x="642" 
d="M585 368v-368h-78l-15 43q-67 -53 -167 -53q-90 0 -156 43.5t-101 124.5t-35 192q0 109 38.5 190t108.5 125.5t164 44.5q80 0 141.5 -30t89.5 -84l-62 -58q-26 41 -68.5 62t-99.5 21q-96 0 -149 -71t-53 -200q0 -132 51 -204.5t143 -72.5q41 0 77.5 11.5t62.5 33.5v171
h-162v79h270zM232 789.5q-40 35.5 -42 104.5h65q2 -35 23.5 -55t62.5 -20q38 0 61 19t25 56h65q-2 -67 -40 -103.5t-111 -36.5q-69 0 -109 35.5z" />
    <glyph glyph-name="gbreve" unicode="&#x11f;" horiz-adv-x="546" 
d="M489 500v-483q0 -122 -60.5 -185t-177.5 -63q-54 0 -102.5 12.5t-86.5 36.5l33 70q76 -37 152 -37q148 0 148 181v35q-20 -35 -58.5 -54t-89.5 -19q-101 0 -158 70t-57 194q0 118 56 185t154 67q52 0 91 -20.5t62 -58.5h2l10 69h82zM390 282q0 73 -33.5 113t-93.5 40
q-62 0 -97 -47.5t-35 -132.5q0 -87 34.5 -134.5t97.5 -47.5q60 0 93.5 36t33.5 101v72zM149 589.5q-40 35.5 -42 104.5h65q2 -35 23.5 -55t62.5 -20q38 0 61 19t25 56h65q-2 -67 -40 -103.5t-111 -36.5q-69 0 -109 35.5z" />
    <glyph glyph-name="Gdotaccent" unicode="&#x120;" horiz-adv-x="642" 
d="M585 368v-368h-78l-15 43q-67 -53 -167 -53q-90 0 -156 43.5t-101 124.5t-35 192q0 109 38.5 190t108.5 125.5t164 44.5q80 0 141.5 -30t89.5 -84l-62 -58q-26 41 -68.5 62t-99.5 21q-96 0 -149 -71t-53 -200q0 -132 51 -204.5t143 -72.5q41 0 77.5 11.5t62.5 33.5v171
h-162v79h270zM300 770q-16 16 -16 40q0 25 16 40.5t41 15.5t41 -15.5t16 -40.5q0 -24 -16 -40t-41 -16t-41 16z" />
    <glyph glyph-name="gdotaccent" unicode="&#x121;" horiz-adv-x="546" 
d="M489 500v-483q0 -122 -60.5 -185t-177.5 -63q-54 0 -102.5 12.5t-86.5 36.5l33 70q76 -37 152 -37q148 0 148 181v35q-20 -35 -58.5 -54t-89.5 -19q-101 0 -158 70t-57 194q0 118 56 185t154 67q52 0 91 -20.5t62 -58.5h2l10 69h82zM390 282q0 73 -33.5 113t-93.5 40
q-62 0 -97 -47.5t-35 -132.5q0 -87 34.5 -134.5t97.5 -47.5q60 0 93.5 36t33.5 101v72zM217 570q-16 16 -16 40q0 25 16 40.5t41 15.5t41 -15.5t16 -40.5q0 -24 -16 -40t-41 -16t-41 16z" />
    <glyph glyph-name="uni0122" unicode="&#x122;" horiz-adv-x="642" 
d="M585 368v-368h-78l-15 43q-67 -53 -167 -53q-90 0 -156 43.5t-101 124.5t-35 192q0 109 38.5 190t108.5 125.5t164 44.5q80 0 141.5 -30t89.5 -84l-62 -58q-26 41 -68.5 62t-99.5 21q-96 0 -149 -71t-53 -200q0 -132 51 -204.5t143 -72.5q41 0 77.5 11.5t62.5 33.5v171
h-162v79h270zM388 -92q18 -20 18 -51q0 -35 -19 -74.5t-50 -68.5l-40 30q28 37 39 66q-26 1 -41.5 17t-15.5 41q0 27 16.5 43.5t43.5 16.5q31 0 49 -20z" />
    <glyph glyph-name="uni0123" unicode="&#x123;" horiz-adv-x="546" 
d="M489 500v-483q0 -122 -60.5 -185t-177.5 -63q-54 0 -102.5 12.5t-86.5 36.5l33 70q76 -37 152 -37q148 0 148 181v35q-20 -35 -58.5 -54t-89.5 -19q-101 0 -158 70t-57 194q0 118 56 185t154 67q52 0 91 -20.5t62 -58.5h2l10 69h82zM390 282q0 73 -33.5 113t-93.5 40
q-62 0 -97 -47.5t-35 -132.5q0 -87 34.5 -134.5t97.5 -47.5q60 0 93.5 36t33.5 101v72zM306 657q16 -16 16 -42q0 -27 -16.5 -44t-42.5 -17q-32 0 -50 20t-18 51q0 35 19 75t50 69l41 -31q-28 -35 -41 -65q26 0 42 -16z" />
    <glyph glyph-name="Hcircumflex" unicode="&#x124;" horiz-adv-x="683" 
d="M76 700h109v-301h313v301h109v-700h-109v310h-313v-310h-109v700zM310 904h64l119 -150h-86l-65 85l-65 -85h-86z" />
    <glyph glyph-name="hcircumflex" unicode="&#x125;" horiz-adv-x="561" 
d="M57 742h99v-314q22 38 66 60t97 22q87 0 136 -58t49 -161v-291h-99v288q0 71 -27.5 109t-79.5 38q-62 0 -102 -45t-40 -117v-273h-99v742zM177 946h64l119 -150h-86l-65 85l-65 -85h-86z" />
    <glyph glyph-name="Hbar" unicode="&#x126;" horiz-adv-x="702" 
d="M676 499h-60v-499h-109v310h-312v-310h-109v499h-60v70h60v131h109v-131h312v131h109v-131h60v-70zM507 499h-312v-100h312v100z" />
    <glyph glyph-name="hbar" unicode="&#x127;" horiz-adv-x="561" 
d="M455 452q49 -58 49 -161v-291h-99v288q0 71 -27.5 109t-79.5 38q-62 0 -102 -45t-40 -117v-273h-99v595h-58v67h58v80h99v-80h136v-67h-136v-167q22 38 66 60t97 22q87 0 136 -58z" />
    <glyph glyph-name="Itilde" unicode="&#x128;" horiz-adv-x="302" 
d="M97 700h109v-700h-109v700zM23 834q25 30 64 30q19 0 36.5 -7.5t38.5 -20.5q17 -10 27 -14.5t19 -4.5q27 0 30 51h61q-1 -54 -26.5 -84t-65.5 -30q-20 0 -38.5 8t-40.5 22q-2 1 -16 9t-23 8q-12 0 -20.5 -12.5t-9.5 -34.5h-61q0 50 25 80z" />
    <glyph glyph-name="itilde" unicode="&#x129;" horiz-adv-x="262" 
d="M82 500h98v-500h-98v500zM2 634q25 30 64 30q19 0 36.5 -7.5t38.5 -20.5q17 -10 27 -14.5t19 -4.5q27 0 30 51h61q-1 -54 -26.5 -84t-65.5 -30q-20 0 -38.5 8t-40.5 22q-2 1 -16 9t-23 8q-12 0 -20.5 -12.5t-9.5 -34.5h-61q0 50 25 80z" />
    <glyph glyph-name="Imacron" unicode="&#x12a;" horiz-adv-x="302" 
d="M97 700h109v-700h-109v700zM-9 834h322v-67h-322v67z" />
    <glyph glyph-name="imacron" unicode="&#x12b;" horiz-adv-x="262" 
d="M82 500h98v-500h-98v500zM-30 634h322v-67h-322v67z" />
    <glyph glyph-name="Ibreve" unicode="&#x12c;" horiz-adv-x="302" 
d="M97 700h109v-700h-109v700zM43 789.5q-40 35.5 -42 104.5h65q2 -35 23.5 -55t62.5 -20q38 0 61 19t25 56h65q-2 -67 -40 -103.5t-111 -36.5q-69 0 -109 35.5z" />
    <glyph glyph-name="ibreve" unicode="&#x12d;" horiz-adv-x="262" 
d="M82 500h98v-500h-98v500zM22 589.5q-40 35.5 -42 104.5h65q2 -35 23.5 -55t62.5 -20q38 0 61 19t25 56h65q-2 -67 -40 -103.5t-111 -36.5q-69 0 -109 35.5z" />
    <glyph glyph-name="Iogonek" unicode="&#x12e;" horiz-adv-x="302" 
d="M232 -185q-17 -16 -42.5 -25t-53.5 -9q-48 0 -75.5 24t-27.5 71q0 76 89 124h-25v700h109v-700h-17q-84 -58 -84 -111q0 -20 14 -32t44 -12q22 0 55 14z" />
    <glyph glyph-name="iogonek" unicode="&#x12f;" horiz-adv-x="254" 
d="M78 594q-18 17 -18 46t18 46t49 17t49.5 -17t18.5 -46t-18.5 -46t-49.5 -17t-49 17zM207 -185q-17 -16 -42.5 -25t-53.5 -9q-48 0 -75.5 24t-27.5 71q0 76 89 124h-19v500h99v-500h-13q-84 -58 -84 -111q0 -20 14 -32t44 -12q22 0 55 14z" />
    <glyph glyph-name="Idotaccent" unicode="&#x130;" horiz-adv-x="302" 
d="M97 700h109v-700h-109v700zM111 770q-16 16 -16 40q0 25 16 40.5t41 15.5t41 -15.5t16 -40.5q0 -24 -16 -40t-41 -16t-41 16z" />
    <glyph glyph-name="dotlessi" unicode="&#x131;" horiz-adv-x="262" 
d="M82 500h98v-500h-98v500z" />
    <glyph glyph-name="IJ" unicode="&#x132;" horiz-adv-x="760" 
d="M97 700h109v-700h-109v700zM382 6q-45 16 -74 43l43 76q23 -21 55 -33.5t63 -12.5q56 0 80.5 37.5t24.5 123.5v460h110v-476q0 -121 -51 -177.5t-159 -56.5q-47 0 -92 16z" />
    <glyph glyph-name="ij" unicode="&#x133;" horiz-adv-x="512" 
d="M78 594q-18 17 -18 46t18 46t49 17t49.5 -17t18.5 -46t-18.5 -46t-49.5 -17t-49 17zM78 500h99v-500h-99v500zM342.5 594.5q-18.5 17.5 -18.5 45.5t18.5 45.5t49.5 17.5t49.5 -17.5t18.5 -45.5t-18.5 -45.5t-49.5 -17.5t-49.5 17.5zM200 -186l5 71q17 -2 47 -2
q51 0 72 26.5t21 83.5v507h100v-509q0 -186 -169 -186q-39 0 -76 9z" />
    <glyph glyph-name="Jcircumflex" unicode="&#x134;" horiz-adv-x="457" 
d="M80 6q-45 16 -74 43l43 76q23 -21 55 -33.5t63 -12.5q56 0 80.5 37.5t24.5 123.5v460h110v-476q0 -121 -51 -177.5t-159 -56.5q-47 0 -92 16zM210 904h64l119 -150h-86l-65 85l-65 -85h-86z" />
    <glyph glyph-name="jcircumflex" unicode="&#x135;" horiz-adv-x="257" 
d="M-54 -186l5 71q19 -2 47 -2q46 0 66 26.5t20 83.5v507h99v-509q0 -186 -163 -186q-39 0 -74 9zM101 704h64l119 -150h-86l-65 85l-65 -85h-86z" />
    <glyph glyph-name="uni0136" unicode="&#x136;" horiz-adv-x="622" 
d="M492 0l-211 338l-96 -117v-221h-109v700h109v-334l268 334h127l-227 -276l259 -424h-120zM362 -92q18 -20 18 -51q0 -35 -19 -74.5t-50 -68.5l-40 30q28 37 39 66q-26 1 -41.5 17t-15.5 41q0 27 16.5 43.5t43.5 16.5q31 0 49 -20z" />
    <glyph glyph-name="uni0137" unicode="&#x137;" horiz-adv-x="502" 
d="M385 0l-159 245l-69 -68v-177h-100v742h100v-446l204 204h121l-189 -188l204 -312h-112zM300 -92q18 -20 18 -51q0 -35 -19 -74.5t-50 -68.5l-40 30q28 37 39 66q-26 1 -41.5 17t-15.5 41q0 27 16.5 43.5t43.5 16.5q31 0 49 -20z" />
    <glyph glyph-name="kgreenlandic" unicode="&#x138;" horiz-adv-x="502" 
d="M385 0l-150 236l-78 -83v-153h-100v500h100v-227l205 227h120l-181 -194l196 -306h-112z" />
    <glyph glyph-name="Lacute" unicode="&#x139;" horiz-adv-x="554" 
d="M76 700h109v-611h336v-89h-445v700zM174 906h100l-101 -152h-79z" />
    <glyph glyph-name="lacute" unicode="&#x13a;" horiz-adv-x="294" 
d="M95 22.5q-29 32.5 -29 96.5v623h99v-623q0 -31 11.5 -44t37.5 -13q21 0 52 13l15 -57q-39 -28 -100 -28q-57 0 -86 32.5zM159 948h100l-101 -152h-79z" />
    <glyph glyph-name="uni013B" unicode="&#x13b;" horiz-adv-x="554" 
d="M76 700h109v-611h336v-89h-445v700zM344 -92q18 -20 18 -51q0 -35 -19 -74.5t-50 -68.5l-40 30q28 37 39 66q-26 1 -41.5 17t-15.5 41q0 27 16.5 43.5t43.5 16.5q31 0 49 -20z" />
    <glyph glyph-name="uni013C" unicode="&#x13c;" horiz-adv-x="294" 
d="M95 22.5q-29 32.5 -29 96.5v623h99v-623q0 -31 11.5 -44t37.5 -13q21 0 52 13l15 -57q-39 -28 -100 -28q-57 0 -86 32.5zM228 -92q18 -20 18 -51q0 -35 -19 -74.5t-50 -68.5l-40 30q28 37 39 66q-26 1 -41.5 17t-15.5 41q0 27 16.5 43.5t43.5 16.5q31 0 49 -20z" />
    <glyph glyph-name="Lcaron" unicode="&#x13d;" horiz-adv-x="554" 
d="M76 700h109v-611h336v-89h-445v700zM470 690q18 -20 18 -51q0 -35 -18.5 -74.5t-49.5 -68.5l-41 30q11 14 22 31.5t17 33.5q-25 1 -41 17t-16 41q0 27 16.5 44t43.5 17q31 0 49 -20z" />
    <glyph glyph-name="lcaron" unicode="&#x13e;" horiz-adv-x="351" 
d="M95 22.5q-29 32.5 -29 96.5v623h99v-623q0 -31 11.5 -44t37.5 -13q21 0 52 13l15 -57q-39 -28 -100 -28q-57 0 -86 32.5zM341 724q18 -20 18 -51q0 -35 -18.5 -74.5t-49.5 -68.5l-41 30q11 14 22 31.5t17 33.5q-25 1 -41 17t-16 41q0 27 16.5 44t43.5 17q31 0 49 -20z
" />
    <glyph glyph-name="Ldot" unicode="&#x13f;" horiz-adv-x="554" 
d="M76 700h109v-611h336v-89h-445v700zM294.5 296q-19.5 20 -19.5 52t19.5 52t50.5 20q30 0 49.5 -20.5t19.5 -51.5t-19.5 -51.5t-49.5 -20.5q-31 0 -50.5 20z" />
    <glyph glyph-name="ldot" unicode="&#x140;" horiz-adv-x="361" 
d="M95 22.5q-29 32.5 -29 96.5v623h99v-623q0 -31 11.5 -44t37.5 -13q21 0 52 13l15 -57q-39 -28 -100 -28q-57 0 -86 32.5zM232.5 281q-19.5 20 -19.5 52t19.5 52t50.5 20q30 0 49.5 -20.5t19.5 -51.5t-19.5 -51.5t-49.5 -20.5q-31 0 -50.5 20z" />
    <glyph glyph-name="Lslash" unicode="&#x141;" horiz-adv-x="554" 
d="M521 89v-89h-445v270l-64 -26v86l64 27v343h109v-297l169 72v-90l-169 -70v-226h336z" />
    <glyph glyph-name="lslash" unicode="&#x142;" horiz-adv-x="303" 
d="M284 18q-39 -28 -100 -28q-57 0 -86 32.5t-29 96.5v203l-50 -21v75l50 21v345h99v-302l99 42v-75l-99 -42v-246q0 -31 11.5 -44t37.5 -13q21 0 52 13z" />
    <glyph glyph-name="Nacute" unicode="&#x143;" horiz-adv-x="688" 
d="M612 700v-700h-105l-322 523v-523h-109v700h111l316 -516v516h109zM387 906h100l-101 -152h-79z" />
    <glyph glyph-name="nacute" unicode="&#x144;" horiz-adv-x="554" 
d="M56 372q0 93 -4 128h92q5 -37 5 -88h3q20 45 65.5 71.5t101.5 26.5q176 0 176 -228v-282h-99v283q0 75 -25 111t-77 36q-61 0 -100 -44t-39 -112v-274h-99v372zM319 706h100l-101 -152h-79z" />
    <glyph glyph-name="uni0145" unicode="&#x145;" horiz-adv-x="688" 
d="M612 700v-700h-105l-322 523v-523h-109v700h111l316 -516v516h109zM393 -92q18 -20 18 -51q0 -35 -19 -74.5t-50 -68.5l-40 30q28 37 39 66q-26 1 -41.5 17t-15.5 41q0 27 16.5 43.5t43.5 16.5q31 0 49 -20z" />
    <glyph glyph-name="uni0146" unicode="&#x146;" horiz-adv-x="554" 
d="M56 372q0 93 -4 128h92q5 -37 5 -88h3q20 45 65.5 71.5t101.5 26.5q176 0 176 -228v-282h-99v283q0 75 -25 111t-77 36q-61 0 -100 -44t-39 -112v-274h-99v372zM325 -92q18 -20 18 -51q0 -35 -19 -74.5t-50 -68.5l-40 30q28 37 39 66q-26 1 -41.5 17t-15.5 41
q0 27 16.5 43.5t43.5 16.5q31 0 49 -20z" />
    <glyph glyph-name="Ncaron" unicode="&#x147;" horiz-adv-x="688" 
d="M612 700v-700h-105l-322 523v-523h-109v700h111l316 -516v516h109zM193 904h86l65 -85l65 85h86l-119 -150h-64z" />
    <glyph glyph-name="ncaron" unicode="&#x148;" horiz-adv-x="554" 
d="M56 372q0 93 -4 128h92q5 -37 5 -88h3q20 45 65.5 71.5t101.5 26.5q176 0 176 -228v-282h-99v283q0 75 -25 111t-77 36q-61 0 -100 -44t-39 -112v-274h-99v372zM125 704h86l65 -85l65 85h86l-119 -150h-64z" />
    <glyph glyph-name="napostrophe" unicode="&#x149;" horiz-adv-x="648" 
d="M119 690q18 -20 18 -51q0 -35 -18.5 -74.5t-49.5 -68.5l-41 30q11 14 22 31.5t17 33.5q-25 1 -41 17t-16 41q0 27 16.5 44t43.5 17q31 0 49 -20zM151 372q0 93 -4 128h92q5 -37 5 -88h3q20 45 65.5 71.5t101.5 26.5q176 0 176 -228v-282h-99v283q0 75 -25 111t-77 36
q-61 0 -100 -44t-39 -112v-274h-99v372z" />
    <glyph glyph-name="Eng" unicode="&#x14a;" horiz-adv-x="688" 
d="M76 700h111l316 -515v515h109v-748q0 -110 -49 -163.5t-148 -53.5q-40 0 -77.5 12t-62.5 33l36 70q22 -16 48 -25.5t50 -9.5q50 0 73 33.5t23 106.5l-1 50l-319 518v-523h-109v700z" />
    <glyph glyph-name="eng" unicode="&#x14b;" horiz-adv-x="554" 
d="M258 -187l5 72q14 -2 47 -2q45 0 65.5 25.5t20.5 83.5v291q0 75 -25 111t-77 36q-61 0 -100 -44t-39 -112v-274h-99v372q0 93 -4 128h92q5 -37 5 -88h3q20 45 65.5 71.5t101.5 26.5q176 0 176 -228v-292q0 -185 -162 -185q-41 0 -75 8z" />
    <glyph glyph-name="Omacron" unicode="&#x14c;" horiz-adv-x="671" 
d="M174.5 33.5q-68.5 43.5 -105 124.5t-36.5 192t36.5 192t105 124.5t161.5 43.5t161 -43.5t104.5 -124.5t36.5 -192t-36.5 -192t-104.5 -124.5t-161 -43.5t-161.5 43.5zM477 150.5q52 73.5 52 199.5q0 127 -52 200t-141 73t-141.5 -73.5t-52.5 -199.5q0 -83 23.5 -145
t67.5 -95t103 -33q89 0 141 73.5zM175 834h322v-67h-322v67z" />
    <glyph glyph-name="omacron" unicode="&#x14d;" horiz-adv-x="564" 
d="M101 59.5q-66 69.5 -66 190.5t66 190.5t181 69.5t181.5 -69.5t66.5 -190.5t-66.5 -190.5t-181.5 -69.5t-181 69.5zM391 114.5q40 49.5 40 135.5t-40 135.5t-109 49.5q-70 0 -109 -49.5t-39 -135.5t39 -135.5t109 -49.5q69 0 109 49.5zM121 634h322v-67h-322v67z" />
    <glyph glyph-name="Obreve" unicode="&#x14e;" horiz-adv-x="671" 
d="M174.5 33.5q-68.5 43.5 -105 124.5t-36.5 192t36.5 192t105 124.5t161.5 43.5t161 -43.5t104.5 -124.5t36.5 -192t-36.5 -192t-104.5 -124.5t-161 -43.5t-161.5 43.5zM477 150.5q52 73.5 52 199.5q0 127 -52 200t-141 73t-141.5 -73.5t-52.5 -199.5q0 -83 23.5 -145
t67.5 -95t103 -33q89 0 141 73.5zM227 789.5q-40 35.5 -42 104.5h65q2 -35 23.5 -55t62.5 -20q38 0 61 19t25 56h65q-2 -67 -40 -103.5t-111 -36.5q-69 0 -109 35.5z" />
    <glyph glyph-name="obreve" unicode="&#x14f;" horiz-adv-x="564" 
d="M101 59.5q-66 69.5 -66 190.5t66 190.5t181 69.5t181.5 -69.5t66.5 -190.5t-66.5 -190.5t-181.5 -69.5t-181 69.5zM391 114.5q40 49.5 40 135.5t-40 135.5t-109 49.5q-70 0 -109 -49.5t-39 -135.5t39 -135.5t109 -49.5q69 0 109 49.5zM173 589.5q-40 35.5 -42 104.5h65
q2 -35 23.5 -55t62.5 -20q38 0 61 19t25 56h65q-2 -67 -40 -103.5t-111 -36.5q-69 0 -109 35.5z" />
    <glyph glyph-name="Ohungarumlaut" unicode="&#x150;" horiz-adv-x="671" 
d="M174.5 33.5q-68.5 43.5 -105 124.5t-36.5 192t36.5 192t105 124.5t161.5 43.5t161 -43.5t104.5 -124.5t36.5 -192t-36.5 -192t-104.5 -124.5t-161 -43.5t-161.5 43.5zM477 150.5q52 73.5 52 199.5q0 127 -52 200t-141 73t-141.5 -73.5t-52.5 -199.5q0 -83 23.5 -145
t67.5 -95t103 -33q89 0 141 73.5zM287 906h98l-99 -152h-80zM432 906h98l-99 -152h-80z" />
    <glyph glyph-name="ohungarumlaut" unicode="&#x151;" horiz-adv-x="564" 
d="M235 693h93l-93 -142h-76zM372 693h92l-93 -142h-75zM101 59.5q-66 69.5 -66 190.5t66 190.5t181 69.5t181.5 -69.5t66.5 -190.5t-66.5 -190.5t-181.5 -69.5t-181 69.5zM391 114.5q40 49.5 40 135.5t-40 135.5t-109 49.5q-70 0 -109 -49.5t-39 -135.5t39 -135.5
t109 -49.5q69 0 109 49.5z" />
    <glyph glyph-name="OE" unicode="&#x152;" horiz-adv-x="888" 
d="M563 612v-203h245v-82h-245v-239h278v-88h-387v52q-67 -62 -161 -62q-126 0 -193 92.5t-67 267.5t67 267.5t193 92.5q95 0 161 -61v51h387v-88h-278zM414 147q40 70 40 203q0 134 -40 203.5t-116 69.5q-79 0 -117.5 -67.5t-38.5 -205.5q0 -137 38.5 -205t117.5 -68
q76 0 116 70z" />
    <glyph glyph-name="oe" unicode="&#x153;" horiz-adv-x="865" 
d="M831 227h-349q5 -75 40 -114t99 -39q43 0 76 17t62 52l54 -53q-28 -47 -80.5 -73.5t-116.5 -26.5q-59 0 -105.5 21.5t-76.5 61.5q-27 -41 -71 -62t-102 -21q-110 0 -168 67t-58 193t58 193t168 67q119 0 174 -84q30 41 76 62.5t103 21.5q104 0 160.5 -64t56.5 -183v-36z
M352.5 111.5q30.5 46.5 30.5 138.5t-30.5 138.5t-91.5 46.5q-63 0 -95.5 -47t-32.5 -138t32.5 -138t95.5 -47q61 0 91.5 46.5zM734 301q0 62 -31.5 95t-91.5 33q-53 0 -86 -34.5t-41 -98.5h250v5z" />
    <glyph glyph-name="Racute" unicode="&#x154;" horiz-adv-x="586" 
d="M77 700h225q116 0 173 -47.5t57 -142.5q0 -69 -33 -117.5t-93 -67.5v-2q20 -13 32.5 -28t20.5 -35l105 -260h-117l-86 222q-15 40 -37 53.5t-72 13.5h-66v-289h-109v700zM294 377q133 0 133 124q0 56 -33.5 83t-102.5 27h-105v-234h108zM337 906h100l-101 -152h-79z" />
    <glyph glyph-name="racute" unicode="&#x155;" horiz-adv-x="366" 
d="M63 378q0 85 -3 122h93q4 -40 4 -88v-10h3q20 51 63.5 79.5t102.5 28.5q16 0 29 -3v-80q-7 2 -31 2q-44 0 -81.5 -25.5t-59 -69t-21.5 -95.5v-239h-99v378zM237 706h100l-101 -152h-79z" />
    <glyph glyph-name="uni0156" unicode="&#x156;" horiz-adv-x="586" 
d="M77 700h225q116 0 173 -47.5t57 -142.5q0 -69 -33 -117.5t-93 -67.5v-2q20 -13 32.5 -28t20.5 -35l105 -260h-117l-86 222q-15 40 -37 53.5t-72 13.5h-66v-289h-109v700zM294 377q133 0 133 124q0 56 -33.5 83t-102.5 27h-105v-234h108zM343 -92q18 -20 18 -51
q0 -35 -19 -74.5t-50 -68.5l-40 30q28 37 39 66q-26 1 -41.5 17t-15.5 41q0 27 16.5 43.5t43.5 16.5q31 0 49 -20z" />
    <glyph glyph-name="uni0157" unicode="&#x157;" horiz-adv-x="366" 
d="M63 378q0 85 -3 122h93q4 -40 4 -88v-10h3q20 51 63.5 79.5t102.5 28.5q16 0 29 -3v-80q-7 2 -31 2q-44 0 -81.5 -25.5t-59 -69t-21.5 -95.5v-239h-99v378zM163 -92q18 -20 18 -51q0 -35 -19 -74.5t-50 -68.5l-40 30q28 37 39 66q-26 1 -41.5 17t-15.5 41q0 27 16.5 43.5
t43.5 16.5q31 0 49 -20z" />
    <glyph glyph-name="Rcaron" unicode="&#x158;" horiz-adv-x="586" 
d="M77 700h225q116 0 173 -47.5t57 -142.5q0 -69 -33 -117.5t-93 -67.5v-2q20 -13 32.5 -28t20.5 -35l105 -260h-117l-86 222q-15 40 -37 53.5t-72 13.5h-66v-289h-109v700zM294 377q133 0 133 124q0 56 -33.5 83t-102.5 27h-105v-234h108zM143 904h86l65 -85l65 85h86
l-119 -150h-64z" />
    <glyph glyph-name="rcaron" unicode="&#x159;" horiz-adv-x="366" 
d="M63 378q0 85 -3 122h93q4 -40 4 -88v-10h3q20 51 63.5 79.5t102.5 28.5q16 0 29 -3v-80q-7 2 -31 2q-44 0 -81.5 -25.5t-59 -69t-21.5 -95.5v-239h-99v378zM43 704h86l65 -85l65 85h86l-119 -150h-64z" />
    <glyph glyph-name="Sacute" unicode="&#x15a;" horiz-adv-x="536" 
d="M133 20q-61 30 -98 84l65 64q31 -40 78.5 -64.5t91.5 -24.5q55 0 88.5 27t33.5 71q0 30 -11.5 51t-40.5 41.5t-85 48.5q-108 53 -152 100.5t-44 112.5q0 53 27 94t77 63t115 22q70 0 126.5 -29.5t81.5 -78.5l-70 -52q-24 34 -59.5 52.5t-76.5 18.5q-52 0 -82 -23.5
t-30 -64.5q0 -25 12.5 -43t45 -38.5t100.5 -53.5q95 -46 134.5 -94.5t39.5 -118.5q0 -58 -29 -102.5t-82.5 -68.5t-123.5 -24q-71 0 -132 30zM312 906h100l-101 -152h-79z" />
    <glyph glyph-name="sacute" unicode="&#x15b;" horiz-adv-x="424" 
d="M98 14q-47 24 -66 64l63 43q17 -26 46 -41t63 -15q39 0 64.5 22t25.5 56q0 27 -20 44.5t-74 37.5q-87 33 -122.5 67.5t-35.5 85.5q0 60 47.5 96t126.5 36q51 0 93 -21t66 -59l-59 -44q-17 24 -42.5 36.5t-56.5 12.5q-34 0 -55.5 -15t-21.5 -39q0 -25 22 -41.5t86 -41.5
q80 -31 112.5 -64.5t32.5 -86.5q0 -71 -52 -114t-137 -43q-59 0 -106 24zM256 706h100l-101 -152h-79z" />
    <glyph glyph-name="Scircumflex" unicode="&#x15c;" horiz-adv-x="536" 
d="M133 20q-61 30 -98 84l65 64q31 -40 78.5 -64.5t91.5 -24.5q55 0 88.5 27t33.5 71q0 30 -11.5 51t-40.5 41.5t-85 48.5q-108 53 -152 100.5t-44 112.5q0 53 27 94t77 63t115 22q70 0 126.5 -29.5t81.5 -78.5l-70 -52q-24 34 -59.5 52.5t-76.5 18.5q-52 0 -82 -23.5
t-30 -64.5q0 -25 12.5 -43t45 -38.5t100.5 -53.5q95 -46 134.5 -94.5t39.5 -118.5q0 -58 -29 -102.5t-82.5 -68.5t-123.5 -24q-71 0 -132 30zM237 904h64l119 -150h-86l-65 85l-65 -85h-86z" />
    <glyph glyph-name="scircumflex" unicode="&#x15d;" horiz-adv-x="424" 
d="M98 14q-47 24 -66 64l63 43q17 -26 46 -41t63 -15q39 0 64.5 22t25.5 56q0 27 -20 44.5t-74 37.5q-87 33 -122.5 67.5t-35.5 85.5q0 60 47.5 96t126.5 36q51 0 93 -21t66 -59l-59 -44q-17 24 -42.5 36.5t-56.5 12.5q-34 0 -55.5 -15t-21.5 -39q0 -25 22 -41.5t86 -41.5
q80 -31 112.5 -64.5t32.5 -86.5q0 -71 -52 -114t-137 -43q-59 0 -106 24zM181 704h64l119 -150h-86l-65 85l-65 -85h-86z" />
    <glyph glyph-name="Scedilla" unicode="&#x15e;" horiz-adv-x="536" 
d="M445.5 52q-54.5 -52 -146.5 -60l-29 -55q41 0 66.5 -19.5t25.5 -53.5q0 -41 -29.5 -66.5t-78.5 -25.5q-23 0 -46.5 4.5t-35.5 11.5l9 44q29 -9 60 -9q23 0 37 10t14 28q0 17 -19.5 26.5t-54.5 8.5l-23 26l39 70q-62 6 -114 35t-85 77l65 64q31 -40 78.5 -64.5t91.5 -24.5
q55 0 88.5 27t33.5 71q0 30 -11.5 51t-40.5 41.5t-85 48.5q-108 53 -152 100.5t-44 112.5q0 53 27 94t77 63t115 22q70 0 126.5 -29.5t81.5 -78.5l-70 -52q-24 34 -59.5 52.5t-76.5 18.5q-52 0 -82 -23.5t-30 -64.5q0 -25 12.5 -43t45 -38.5t100.5 -53.5q95 -46 134.5 -94.5
t39.5 -118.5q0 -81 -54.5 -133z" />
    <glyph glyph-name="scedilla" unicode="&#x15f;" horiz-adv-x="424" 
d="M353 44q-40 -41 -109 -51l-30 -56q41 0 66.5 -19.5t25.5 -53.5q0 -41 -29.5 -66.5t-78.5 -25.5q-23 0 -46.5 4.5t-35.5 11.5l9 44q29 -9 60 -9q23 0 37 10t14 28q0 17 -19.5 26.5t-54.5 8.5l-23 26l39 69q-51 5 -90.5 28.5t-55.5 58.5l63 43q17 -26 46 -41t63 -15
q39 0 64.5 22t25.5 56q0 27 -20 44.5t-74 37.5q-87 33 -122.5 67.5t-35.5 85.5q0 60 47.5 96t126.5 36q51 0 93 -21t66 -59l-59 -44q-17 24 -42.5 36.5t-56.5 12.5q-34 0 -55.5 -15t-21.5 -39q0 -25 22 -41.5t86 -41.5q80 -31 112.5 -64.5t32.5 -86.5q0 -62 -40 -103z" />
    <glyph glyph-name="Scaron" unicode="&#x160;" horiz-adv-x="536" 
d="M133 20q-61 30 -98 84l65 64q31 -40 78.5 -64.5t91.5 -24.5q55 0 88.5 27t33.5 71q0 30 -11.5 51t-40.5 41.5t-85 48.5q-108 53 -152 100.5t-44 112.5q0 53 27 94t77 63t115 22q70 0 126.5 -29.5t81.5 -78.5l-70 -52q-24 34 -59.5 52.5t-76.5 18.5q-52 0 -82 -23.5
t-30 -64.5q0 -25 12.5 -43t45 -38.5t100.5 -53.5q95 -46 134.5 -94.5t39.5 -118.5q0 -58 -29 -102.5t-82.5 -68.5t-123.5 -24q-71 0 -132 30zM118 904h86l65 -85l65 85h86l-119 -150h-64z" />
    <glyph glyph-name="scaron" unicode="&#x161;" horiz-adv-x="424" 
d="M98 14q-47 24 -66 64l63 43q17 -26 46 -41t63 -15q39 0 64.5 22t25.5 56q0 27 -20 44.5t-74 37.5q-87 33 -122.5 67.5t-35.5 85.5q0 60 47.5 96t126.5 36q51 0 93 -21t66 -59l-59 -44q-17 24 -42.5 36.5t-56.5 12.5q-34 0 -55.5 -15t-21.5 -39q0 -25 22 -41.5t86 -41.5
q80 -31 112.5 -64.5t32.5 -86.5q0 -71 -52 -114t-137 -43q-59 0 -106 24zM62 704h86l65 -85l65 85h86l-119 -150h-64z" />
    <glyph glyph-name="uni0162" unicode="&#x162;" horiz-adv-x="569" 
d="M319 0l-34 -63q41 0 66.5 -19.5t25.5 -53.5q0 -41 -29.5 -66.5t-78.5 -25.5q-23 0 -46.5 4.5t-35.5 11.5l9 44q29 -9 60 -9q23 0 37 10t14 28q0 17 -19.5 26.5t-54.5 8.5l-23 26l44 78h-24v617h-214v83h536v-83h-213v-617h-20z" />
    <glyph glyph-name="uni0163" unicode="&#x163;" horiz-adv-x="391" 
d="M309 -82.5q25 -19.5 25 -53.5q0 -41 -29.5 -66.5t-78.5 -25.5q-22 0 -45.5 4.5t-36.5 11.5l10 44q29 -9 59 -9q23 0 37 10t14 28q0 17 -19.5 26.5t-53.5 8.5l-23 26l41 72q-51 12 -79.5 52.5t-28.5 103.5v274h-90v76h90v132l95 28h4v-160h143v-76h-143v-262
q0 -49 19.5 -72t59.5 -23t71 12l6 -71q-31 -15 -85 -18l-29 -53q42 0 67 -19.5z" />
    <glyph glyph-name="Tcaron" unicode="&#x164;" horiz-adv-x="569" 
d="M230 617h-214v83h536v-83h-213v-617h-109v617zM133 904h86l65 -85l65 85h86l-119 -150h-64z" />
    <glyph glyph-name="tcaron" unicode="&#x165;" horiz-adv-x="485" 
d="M140.5 32.5q-39.5 42.5 -39.5 117.5v274h-90v76h90v132l95 28h4v-160h143v-76h-143v-262q0 -49 19.5 -72t59.5 -23t71 12l6 -71q-37 -18 -106 -18q-70 0 -109.5 42.5zM457 719q18 -20 18 -51q0 -35 -18.5 -74.5t-49.5 -68.5l-41 30q11 14 22 31.5t17 33.5q-25 1 -41 17
t-16 41q0 27 16.5 44t43.5 17q31 0 49 -20z" />
    <glyph glyph-name="Tbar" unicode="&#x166;" horiz-adv-x="569" 
d="M339 617v-243h160v-74h-160v-300h-109v300h-160v74h160v243h-214v83h536v-83h-213z" />
    <glyph glyph-name="tbar" unicode="&#x167;" horiz-adv-x="391" 
d="M356 8q-37 -18 -106 -18q-70 0 -109.5 42.5t-39.5 117.5v89h-78v64h78v121h-90v76h90v132l95 28h4v-160h143v-76h-143v-121h108v-64h-108v-77q0 -49 19.5 -72t59.5 -23t71 12z" />
    <glyph glyph-name="Utilde" unicode="&#x168;" horiz-adv-x="659" 
d="M136.5 61.5q-65.5 71.5 -65.5 212.5v426h110v-424q0 -197 149 -197q148 0 148 197v424h110v-426q0 -140 -65.5 -212t-192.5 -72q-128 0 -193.5 71.5zM201 834q25 30 64 30q19 0 36.5 -7.5t38.5 -20.5q17 -10 27 -14.5t19 -4.5q27 0 30 51h61q-1 -54 -26.5 -84t-65.5 -30
q-20 0 -38.5 8t-40.5 22q-2 1 -16 9t-23 8q-12 0 -20.5 -12.5t-9.5 -34.5h-61q0 50 25 80z" />
    <glyph glyph-name="utilde" unicode="&#x169;" horiz-adv-x="555" 
d="M101.5 46.5q-44.5 56.5 -44.5 166.5v287h99v-288q0 -72 25 -107t76 -35q60 0 99.5 45t39.5 114v271h99v-387q0 -54 9 -113h-93q-8 43 -9 89h-3q-20 -46 -65.5 -72.5t-101.5 -26.5q-86 0 -130.5 56.5zM153 634q25 30 64 30q19 0 36.5 -7.5t38.5 -20.5q17 -10 27 -14.5
t19 -4.5q27 0 30 51h61q-1 -54 -26.5 -84t-65.5 -30q-20 0 -38.5 8t-40.5 22q-2 1 -16 9t-23 8q-12 0 -20.5 -12.5t-9.5 -34.5h-61q0 50 25 80z" />
    <glyph glyph-name="Umacron" unicode="&#x16a;" horiz-adv-x="659" 
d="M136.5 61.5q-65.5 71.5 -65.5 212.5v426h110v-424q0 -197 149 -197q148 0 148 197v424h110v-426q0 -140 -65.5 -212t-192.5 -72q-128 0 -193.5 71.5zM169 834h322v-67h-322v67z" />
    <glyph glyph-name="umacron" unicode="&#x16b;" horiz-adv-x="555" 
d="M101.5 46.5q-44.5 56.5 -44.5 166.5v287h99v-288q0 -72 25 -107t76 -35q60 0 99.5 45t39.5 114v271h99v-387q0 -54 9 -113h-93q-8 43 -9 89h-3q-20 -46 -65.5 -72.5t-101.5 -26.5q-86 0 -130.5 56.5zM121 634h322v-67h-322v67z" />
    <glyph glyph-name="Ubreve" unicode="&#x16c;" horiz-adv-x="659" 
d="M136.5 61.5q-65.5 71.5 -65.5 212.5v426h110v-424q0 -197 149 -197q148 0 148 197v424h110v-426q0 -140 -65.5 -212t-192.5 -72q-128 0 -193.5 71.5zM221 789.5q-40 35.5 -42 104.5h65q2 -35 23.5 -55t62.5 -20q38 0 61 19t25 56h65q-2 -67 -40 -103.5t-111 -36.5
q-69 0 -109 35.5z" />
    <glyph glyph-name="ubreve" unicode="&#x16d;" horiz-adv-x="555" 
d="M101.5 46.5q-44.5 56.5 -44.5 166.5v287h99v-288q0 -72 25 -107t76 -35q60 0 99.5 45t39.5 114v271h99v-387q0 -54 9 -113h-93q-8 43 -9 89h-3q-20 -46 -65.5 -72.5t-101.5 -26.5q-86 0 -130.5 56.5zM173 589.5q-40 35.5 -42 104.5h65q2 -35 23.5 -55t62.5 -20
q38 0 61 19t25 56h65q-2 -67 -40 -103.5t-111 -36.5q-69 0 -109 35.5z" />
    <glyph glyph-name="Uring" unicode="&#x16e;" horiz-adv-x="659" 
d="M136.5 61.5q-65.5 71.5 -65.5 212.5v426h110v-424q0 -197 149 -197q148 0 148 197v424h110v-426q0 -140 -65.5 -212t-192.5 -72q-128 0 -193.5 71.5zM259 768q-28 26 -28 67t28 67t71 26t71 -26t28 -67t-28 -67t-71 -26t-71 26zM366 798.5q14 14.5 14 36.5t-14 36.5
t-36 14.5t-36 -14.5t-14 -36.5t14 -36.5t36 -14.5t36 14.5z" />
    <glyph glyph-name="uring" unicode="&#x16f;" horiz-adv-x="555" 
d="M101.5 46.5q-44.5 56.5 -44.5 166.5v287h99v-288q0 -72 25 -107t76 -35q60 0 99.5 45t39.5 114v271h99v-387q0 -54 9 -113h-93q-8 43 -9 89h-3q-20 -46 -65.5 -72.5t-101.5 -26.5q-86 0 -130.5 56.5zM211 568q-28 26 -28 67t28 67t71 26t71 -26t28 -67t-28 -67t-71 -26
t-71 26zM318 598.5q14 14.5 14 36.5t-14 36.5t-36 14.5t-36 -14.5t-14 -36.5t14 -36.5t36 -14.5t36 14.5z" />
    <glyph glyph-name="Uhungarumlaut" unicode="&#x170;" horiz-adv-x="659" 
d="M136.5 61.5q-65.5 71.5 -65.5 212.5v426h110v-424q0 -197 149 -197q148 0 148 197v424h110v-426q0 -140 -65.5 -212t-192.5 -72q-128 0 -193.5 71.5zM281 906h98l-99 -152h-80zM426 906h98l-99 -152h-80z" />
    <glyph glyph-name="uhungarumlaut" unicode="&#x171;" horiz-adv-x="555" 
d="M101.5 46.5q-44.5 56.5 -44.5 166.5v287h99v-288q0 -72 25 -107t76 -35q60 0 99.5 45t39.5 114v271h99v-387q0 -54 9 -113h-93q-8 43 -9 89h-3q-20 -46 -65.5 -72.5t-101.5 -26.5q-86 0 -130.5 56.5zM233 706h98l-99 -152h-80zM378 706h98l-99 -152h-80z" />
    <glyph glyph-name="Uogonek" unicode="&#x172;" horiz-adv-x="659" 
d="M588 700v-426q0 -127 -53.5 -198t-158.5 -83q-74 -55 -74 -104q0 -19 14.5 -31.5t43.5 -12.5q22 0 56 14l13 -44q-17 -16 -42.5 -25t-53.5 -9q-47 0 -75 24t-28 71q0 69 73 115q-115 8 -173.5 79t-58.5 204v426h110v-424q0 -197 149 -197q148 0 148 197v424h110z" />
    <glyph glyph-name="uogonek" unicode="&#x173;" horiz-adv-x="555" 
d="M532 -185q-18 -16 -43.5 -25t-52.5 -9q-48 0 -75.5 24t-27.5 71q0 77 89 124h-11q-8 43 -9 89h-3q-20 -46 -65.5 -72.5t-101.5 -26.5q-86 0 -130.5 56.5t-44.5 166.5v287h99v-288q0 -72 25 -107t76 -35q60 0 99.5 45t39.5 114v271h99v-387q0 -54 9 -113h-16
q-83 -58 -83 -111q0 -20 14 -32t44 -12q22 0 55 14z" />
    <glyph glyph-name="Wcircumflex" unicode="&#x174;" horiz-adv-x="845" 
d="M818 700l-145 -700h-107l-143 557l-144 -557h-106l-147 700h117l91 -527l135 527h107l135 -525l90 525h117zM390 904h64l119 -150h-86l-65 85l-65 -85h-86z" />
    <glyph glyph-name="wcircumflex" unicode="&#x175;" horiz-adv-x="681" 
d="M669 500l-126 -500h-88l-114 394l-114 -394h-89l-126 500h103l75 -360l106 360h89l106 -360l75 360h103zM309 704h64l119 -150h-86l-65 85l-65 -85h-86z" />
    <glyph glyph-name="Ycircumflex" unicode="&#x176;" horiz-adv-x="591" 
d="M241 279l-225 421h120l159 -319l159 319h120l-223 -421v-279h-110v279zM263 904h64l119 -150h-86l-65 85l-65 -85h-86z" />
    <glyph glyph-name="ycircumflex" unicode="&#x177;" horiz-adv-x="476" 
d="M465 500l-185 -514q-67 -185 -214 -185q-28 0 -64 9v77q21 -8 50 -8q49 0 83 35t65 116l-186 470h106l126 -363l112 363h107zM210 704h64l119 -150h-86l-65 85l-65 -85h-86z" />
    <glyph glyph-name="Ydieresis" unicode="&#x178;" horiz-adv-x="591" 
d="M241 279l-225 421h120l159 -319l159 319h120l-223 -421v-279h-110v279zM152 770q-16 16 -16 40q0 25 16 40.5t41 15.5q24 0 40.5 -16t16.5 -40t-16.5 -40t-40.5 -16q-25 0 -41 16zM356.5 770q-16.5 16 -16.5 40t16.5 40t40.5 16q25 0 41 -15.5t16 -40.5q0 -24 -16 -40
t-41 -16q-24 0 -40.5 16z" />
    <glyph glyph-name="Zacute" unicode="&#x179;" horiz-adv-x="575" 
d="M32 57l363 554h-335v89h471v-59l-362 -552h375v-89h-512v57zM330 906h100l-101 -152h-79z" />
    <glyph glyph-name="zacute" unicode="&#x17a;" horiz-adv-x="459" 
d="M24 55l282 369h-268v76h387v-53l-278 -371h288v-76h-411v55zM272 706h100l-101 -152h-79z" />
    <glyph glyph-name="Zdotaccent" unicode="&#x17b;" horiz-adv-x="575" 
d="M32 57l363 554h-335v89h471v-59l-362 -552h375v-89h-512v57zM246 770q-16 16 -16 40q0 25 16 40.5t41 15.5t41 -15.5t16 -40.5q0 -24 -16 -40t-41 -16t-41 16z" />
    <glyph glyph-name="zdotaccent" unicode="&#x17c;" horiz-adv-x="459" 
d="M24 55l282 369h-268v76h387v-53l-278 -371h288v-76h-411v55zM188 570q-16 16 -16 40q0 25 16 40.5t41 15.5t41 -15.5t16 -40.5q0 -24 -16 -40t-41 -16t-41 16z" />
    <glyph glyph-name="Zcaron" unicode="&#x17d;" horiz-adv-x="575" 
d="M32 57l363 554h-335v89h471v-59l-362 -552h375v-89h-512v57zM136 904h86l65 -85l65 85h86l-119 -150h-64z" />
    <glyph glyph-name="zcaron" unicode="&#x17e;" horiz-adv-x="459" 
d="M24 55l282 369h-268v76h387v-53l-278 -371h288v-76h-411v55zM78 704h86l65 -85l65 85h86l-119 -150h-64z" />
    <glyph glyph-name="uni018F" unicode="&#x18f;" horiz-adv-x="676" 
d="M495 667q72 -43 110 -125t38 -195q0 -111 -37 -191t-107 -123t-165 -43q-143 0 -222 92.5t-79 258.5v50h499q-9 111 -62.5 171.5t-143.5 60.5q-62 0 -112.5 -28.5t-84.5 -81.5l-64 65q38 63 106 97.5t153 34.5q99 0 171 -43zM473 138q52 61 60 172l-389 -1v-9
q0 -103 51 -163t139 -60q87 0 139 61z" />
    <glyph glyph-name="florin" unicode="&#x192;" horiz-adv-x="465" 
d="M293 613.5q-20 -17.5 -28 -54.5l-12 -59h145v-79h-161l-104 -506h-106l105 506h-94v79h110l16 78q13 64 52 98t120 34q35 0 67 -10t50 -25l-36 -66q-12 10 -30 16t-37 6q-37 0 -57 -17.5z" />
    <glyph glyph-name="Ohorn" unicode="&#x1a0;" horiz-adv-x="711" 
d="M743 700v-42q0 -63 -32 -113t-85 -76q12 -54 12 -119q0 -111 -36.5 -192t-104.5 -124.5t-161 -43.5t-161.5 43.5t-105 124.5t-36.5 192t36.5 192t105 124.5t161.5 43.5q96 0 165.5 -46.5t104.5 -132.5q27 24 39 54t12 73v42h86zM477 150.5q52 73.5 52 199.5
q0 127 -52 200t-141 73t-141.5 -73.5t-52.5 -199.5q0 -83 23.5 -145t67.5 -95t103 -33q89 0 141 73.5z" />
    <glyph glyph-name="ohorn" unicode="&#x1a1;" horiz-adv-x="616" 
d="M645 503v-42q0 -62 -31.5 -112t-84.5 -77q1 -7 1 -22q0 -121 -66.5 -190.5t-181.5 -69.5t-181 69.5t-66 190.5t66 190.5t181 69.5q91 0 152 -44t84 -123q22 22 31.5 50t9.5 68v42h86zM391 114.5q40 49.5 40 135.5t-40 135.5t-109 49.5q-70 0 -109 -49.5t-39 -135.5
t39 -135.5t109 -49.5q69 0 109 49.5z" />
    <glyph glyph-name="Uhorn" unicode="&#x1af;" horiz-adv-x="710" 
d="M746 700v-42q0 -75 -44 -130.5t-114 -74.5v-179q0 -140 -65.5 -212t-192.5 -72q-128 0 -193.5 71.5t-65.5 212.5v426h110v-424q0 -197 149 -197q148 0 148 197v424h110v-186q39 28 55.5 61t16.5 83v42h86z" />
    <glyph glyph-name="uhorn" unicode="&#x1b0;" horiz-adv-x="616" 
d="M645 500v-42q0 -72 -42 -126.5t-108 -75.5v-143q0 -54 9 -113h-93q-8 43 -9 89h-3q-20 -46 -65.5 -72.5t-101.5 -26.5q-86 0 -130.5 56.5t-44.5 166.5v287h99v-288q0 -72 25 -107t76 -35q60 0 99.5 45t39.5 114v271h99v-180q34 26 49 58t15 80v42h86z" />
    <glyph glyph-name="uni01CD" unicode="&#x1cd;" horiz-adv-x="611" 
d="M436 139h-261l-43 -139h-116l240 700h99l240 -700h-116zM408 228l-102 331l-103 -331h205zM155 904h86l65 -85l65 85h86l-119 -150h-64z" />
    <glyph glyph-name="uni01CE" unicode="&#x1ce;" horiz-adv-x="519" 
d="M118.5 10q-38.5 20 -60 55.5t-21.5 80.5q0 76 58 116.5t165 40.5h94v25q0 50 -27 77t-79 27q-45 0 -84 -17.5t-64 -50.5l-47 59q36 42 87.5 64.5t111.5 22.5q96 0 149 -46.5t53 -131.5v-232q0 -45 12 -100h-87q-10 24 -14 67h-2q-57 -77 -157 -77q-49 0 -87.5 20z
M316.5 96.5q37.5 29.5 37.5 71.5v66h-98q-59 0 -90.5 -22.5t-31.5 -65.5q0 -37 24.5 -58t66.5 -21q54 0 91.5 29.5zM105 704h86l65 -85l65 85h86l-119 -150h-64z" />
    <glyph glyph-name="uni01CF" unicode="&#x1cf;" horiz-adv-x="302" 
d="M97 700h109v-700h-109v700zM1 904h86l65 -85l65 85h86l-119 -150h-64z" />
    <glyph glyph-name="uni01D0" unicode="&#x1d0;" horiz-adv-x="262" 
d="M82 500h98v-500h-98v500zM-20 704h86l65 -85l65 85h86l-119 -150h-64z" />
    <glyph glyph-name="uni01D1" unicode="&#x1d1;" horiz-adv-x="671" 
d="M174.5 33.5q-68.5 43.5 -105 124.5t-36.5 192t36.5 192t105 124.5t161.5 43.5t161 -43.5t104.5 -124.5t36.5 -192t-36.5 -192t-104.5 -124.5t-161 -43.5t-161.5 43.5zM477 150.5q52 73.5 52 199.5q0 127 -52 200t-141 73t-141.5 -73.5t-52.5 -199.5q0 -83 23.5 -145
t67.5 -95t103 -33q89 0 141 73.5zM185 904h86l65 -85l65 85h86l-119 -150h-64z" />
    <glyph glyph-name="uni01D2" unicode="&#x1d2;" horiz-adv-x="564" 
d="M101 59.5q-66 69.5 -66 190.5t66 190.5t181 69.5t181.5 -69.5t66.5 -190.5t-66.5 -190.5t-181.5 -69.5t-181 69.5zM391 114.5q40 49.5 40 135.5t-40 135.5t-109 49.5q-70 0 -109 -49.5t-39 -135.5t39 -135.5t109 -49.5q69 0 109 49.5zM131 704h86l65 -85l65 85h86
l-119 -150h-64z" />
    <glyph glyph-name="uni01D3" unicode="&#x1d3;" horiz-adv-x="659" 
d="M136.5 61.5q-65.5 71.5 -65.5 212.5v426h110v-424q0 -197 149 -197q148 0 148 197v424h110v-426q0 -140 -65.5 -212t-192.5 -72q-128 0 -193.5 71.5zM179 904h86l65 -85l65 85h86l-119 -150h-64z" />
    <glyph glyph-name="uni01D4" unicode="&#x1d4;" horiz-adv-x="555" 
d="M101.5 46.5q-44.5 56.5 -44.5 166.5v287h99v-288q0 -72 25 -107t76 -35q60 0 99.5 45t39.5 114v271h99v-387q0 -54 9 -113h-93q-8 43 -9 89h-3q-20 -46 -65.5 -72.5t-101.5 -26.5q-86 0 -130.5 56.5zM131 704h86l65 -85l65 85h86l-119 -150h-64z" />
    <glyph glyph-name="uni01D5" unicode="&#x1d5;" horiz-adv-x="659" 
d="M136.5 61.5q-65.5 71.5 -65.5 212.5v426h110v-424q0 -197 149 -197q148 0 148 197v424h110v-426q0 -140 -65.5 -212t-192.5 -72q-128 0 -193.5 71.5zM187 971h286v-58h-286v58zM187 770q-16 16 -16 40q0 25 16 40.5t41 15.5q24 0 40.5 -16t16.5 -40t-16.5 -40t-40.5 -16
q-25 0 -41 16zM391.5 770q-16.5 16 -16.5 40t16.5 40t40.5 16q25 0 41 -15.5t16 -40.5q0 -24 -16 -40t-41 -16q-24 0 -40.5 16z" />
    <glyph glyph-name="uni01D6" unicode="&#x1d6;" horiz-adv-x="555" 
d="M101.5 46.5q-44.5 56.5 -44.5 166.5v287h99v-288q0 -72 25 -107t76 -35q60 0 99.5 45t39.5 114v271h99v-387q0 -54 9 -113h-93q-8 43 -9 89h-3q-20 -46 -65.5 -72.5t-101.5 -26.5q-86 0 -130.5 56.5zM139 771h286v-58h-286v58zM139 570q-16 16 -16 40q0 25 16 40.5
t41 15.5q24 0 40.5 -16t16.5 -40t-16.5 -40t-40.5 -16q-25 0 -41 16zM343.5 570q-16.5 16 -16.5 40t16.5 40t40.5 16q25 0 41 -15.5t16 -40.5q0 -24 -16 -40t-41 -16q-24 0 -40.5 16z" />
    <glyph glyph-name="uni01D7" unicode="&#x1d7;" horiz-adv-x="659" 
d="M136.5 61.5q-65.5 71.5 -65.5 212.5v426h110v-424q0 -197 149 -197q148 0 148 197v424h110v-426q0 -140 -65.5 -212t-192.5 -72q-128 0 -193.5 71.5zM340 1003h80l-63 -105h-64zM187 770q-16 16 -16 40q0 25 16 40.5t41 15.5q24 0 40.5 -16t16.5 -40t-16.5 -40t-40.5 -16
q-25 0 -41 16zM391.5 770q-16.5 16 -16.5 40t16.5 40t40.5 16q25 0 41 -15.5t16 -40.5q0 -24 -16 -40t-41 -16q-24 0 -40.5 16z" />
    <glyph glyph-name="uni01D8" unicode="&#x1d8;" horiz-adv-x="555" 
d="M101.5 46.5q-44.5 56.5 -44.5 166.5v287h99v-288q0 -72 25 -107t76 -35q60 0 99.5 45t39.5 114v271h99v-387q0 -54 9 -113h-93q-8 43 -9 89h-3q-20 -46 -65.5 -72.5t-101.5 -26.5q-86 0 -130.5 56.5zM292 803h80l-63 -105h-64zM139 570q-16 16 -16 40q0 25 16 40.5
t41 15.5q24 0 40.5 -16t16.5 -40t-16.5 -40t-40.5 -16q-25 0 -41 16zM343.5 570q-16.5 16 -16.5 40t16.5 40t40.5 16q25 0 41 -15.5t16 -40.5q0 -24 -16 -40t-41 -16q-24 0 -40.5 16z" />
    <glyph glyph-name="uni01D9" unicode="&#x1d9;" horiz-adv-x="659" 
d="M136.5 61.5q-65.5 71.5 -65.5 212.5v426h110v-424q0 -197 149 -197q148 0 148 197v424h110v-426q0 -140 -65.5 -212t-192.5 -72q-128 0 -193.5 71.5zM187 1009h81l62 -73l62 73h81l-114 -124h-59zM187 770q-16 16 -16 40q0 25 16 40.5t41 15.5q24 0 40.5 -16t16.5 -40
t-16.5 -40t-40.5 -16q-25 0 -41 16zM391.5 770q-16.5 16 -16.5 40t16.5 40t40.5 16q25 0 41 -15.5t16 -40.5q0 -24 -16 -40t-41 -16q-24 0 -40.5 16z" />
    <glyph glyph-name="uni01DA" unicode="&#x1da;" horiz-adv-x="555" 
d="M101.5 46.5q-44.5 56.5 -44.5 166.5v287h99v-288q0 -72 25 -107t76 -35q60 0 99.5 45t39.5 114v271h99v-387q0 -54 9 -113h-93q-8 43 -9 89h-3q-20 -46 -65.5 -72.5t-101.5 -26.5q-86 0 -130.5 56.5zM139 809h81l62 -73l62 73h81l-114 -124h-59zM139 570q-16 16 -16 40
q0 25 16 40.5t41 15.5q24 0 40.5 -16t16.5 -40t-16.5 -40t-40.5 -16q-25 0 -41 16zM343.5 570q-16.5 16 -16.5 40t16.5 40t40.5 16q25 0 41 -15.5t16 -40.5q0 -24 -16 -40t-41 -16q-24 0 -40.5 16z" />
    <glyph glyph-name="uni01DB" unicode="&#x1db;" horiz-adv-x="659" 
d="M136.5 61.5q-65.5 71.5 -65.5 212.5v426h110v-424q0 -197 149 -197q148 0 148 197v424h110v-426q0 -140 -65.5 -212t-192.5 -72q-128 0 -193.5 71.5zM238 1003h80l47 -105h-64zM187 770q-16 16 -16 40q0 25 16 40.5t41 15.5q24 0 40.5 -16t16.5 -40t-16.5 -40t-40.5 -16
q-25 0 -41 16zM391.5 770q-16.5 16 -16.5 40t16.5 40t40.5 16q25 0 41 -15.5t16 -40.5q0 -24 -16 -40t-41 -16q-24 0 -40.5 16z" />
    <glyph glyph-name="uni01DC" unicode="&#x1dc;" horiz-adv-x="555" 
d="M101.5 46.5q-44.5 56.5 -44.5 166.5v287h99v-288q0 -72 25 -107t76 -35q60 0 99.5 45t39.5 114v271h99v-387q0 -54 9 -113h-93q-8 43 -9 89h-3q-20 -46 -65.5 -72.5t-101.5 -26.5q-86 0 -130.5 56.5zM190 803h80l47 -105h-64zM139 570q-16 16 -16 40q0 25 16 40.5
t41 15.5q24 0 40.5 -16t16.5 -40t-16.5 -40t-40.5 -16q-25 0 -41 16zM343.5 570q-16.5 16 -16.5 40t16.5 40t40.5 16q25 0 41 -15.5t16 -40.5q0 -24 -16 -40t-41 -16q-24 0 -40.5 16z" />
    <glyph glyph-name="Gcaron" unicode="&#x1e6;" horiz-adv-x="642" 
d="M585 368v-368h-78l-15 43q-67 -53 -167 -53q-90 0 -156 43.5t-101 124.5t-35 192q0 109 38.5 190t108.5 125.5t164 44.5q80 0 141.5 -30t89.5 -84l-62 -58q-26 41 -68.5 62t-99.5 21q-96 0 -149 -71t-53 -200q0 -132 51 -204.5t143 -72.5q41 0 77.5 11.5t62.5 33.5v171
h-162v79h270zM190 904h86l65 -85l65 85h86l-119 -150h-64z" />
    <glyph glyph-name="gcaron" unicode="&#x1e7;" horiz-adv-x="546" 
d="M489 500v-483q0 -122 -60.5 -185t-177.5 -63q-54 0 -102.5 12.5t-86.5 36.5l33 70q76 -37 152 -37q148 0 148 181v35q-20 -35 -58.5 -54t-89.5 -19q-101 0 -158 70t-57 194q0 118 56 185t154 67q52 0 91 -20.5t62 -58.5h2l10 69h82zM390 282q0 73 -33.5 113t-93.5 40
q-62 0 -97 -47.5t-35 -132.5q0 -87 34.5 -134.5t97.5 -47.5q60 0 93.5 36t33.5 101v72zM107 704h86l65 -85l65 85h86l-119 -150h-64z" />
    <glyph glyph-name="Aringacute" unicode="&#x1fa;" horiz-adv-x="611" 
d="M352 929h-73l53 105h87zM234.5 744.5q-27.5 25.5 -27.5 66.5t27.5 67t71.5 26q43 0 70.5 -26t27.5 -67t-27.5 -66.5t-70.5 -25.5q-44 0 -71.5 25.5zM270 847.5q-14 -14.5 -14 -36.5t14 -36.5t36 -14.5t35.5 14.5t13.5 36.5q0 23 -13.5 37t-35.5 14t-36 -14.5zM436 139
h-261l-43 -139h-116l240 700h99l240 -700h-116zM408 228l-102 331l-103 -331h205z" />
    <glyph glyph-name="aringacute" unicode="&#x1fb;" horiz-adv-x="519" 
d="M277 863h87l-68 -105h-72zM185.5 568q-27.5 26 -27.5 67t27.5 67t70.5 26q44 0 71.5 -26t27.5 -67t-27.5 -67t-71.5 -26q-43 0 -70.5 26zM292 598.5q14 14.5 14 36.5t-14 36.5t-36 14.5t-35.5 -14t-13.5 -37q0 -22 13.5 -36.5t35.5 -14.5t36 14.5zM118.5 10
q-38.5 20 -60 55.5t-21.5 80.5q0 76 58 116.5t165 40.5h94v25q0 50 -27 77t-79 27q-45 0 -84 -17.5t-64 -50.5l-47 59q36 42 87.5 64.5t111.5 22.5q96 0 149 -46.5t53 -131.5v-232q0 -45 12 -100h-87q-10 24 -14 67h-2q-57 -77 -157 -77q-49 0 -87.5 20zM316.5 96.5
q37.5 29.5 37.5 71.5v66h-98q-59 0 -90.5 -22.5t-31.5 -65.5q0 -37 24.5 -58t66.5 -21q54 0 91.5 29.5z" />
    <glyph glyph-name="AEacute" unicode="&#x1fc;" horiz-adv-x="809" 
d="M484 612v-202h245v-87h-245v-235h278v-88h-387v129h-183l-55 -129h-121l322 700h424v-88h-278zM375 213v350l-148 -350h148zM507 906h100l-101 -152h-79z" />
    <glyph glyph-name="aeacute" unicode="&#x1fd;" horiz-adv-x="827" 
d="M793 227h-349q5 -75 40 -114t99 -39q43 0 76 17t62 52l54 -53q-28 -47 -80.5 -73.5t-116.5 -26.5q-57 0 -102.5 20t-75.5 59q-32 -36 -80 -57.5t-102 -21.5q-81 0 -131 42.5t-50 110.5q0 74 52.5 113.5t152.5 39.5h103v32q0 51 -26 77.5t-76 26.5q-45 0 -82 -17.5
t-62 -50.5l-47 59q36 43 85.5 65t109.5 22q55 0 96.5 -17.5t66.5 -50.5q62 68 166 68t160.5 -64t56.5 -183v-36zM696 301q0 62 -31.5 95t-91.5 33q-53 0 -86 -34.5t-41 -98.5h250v5zM345 227h-94q-57 0 -87.5 -22t-30.5 -62q0 -35 24 -55.5t64 -20.5q52 0 88 29.5t36 71.5
v59zM458 706h100l-101 -152h-79z" />
    <glyph glyph-name="Oslashacute" unicode="&#x1fe;" horiz-adv-x="671" 
d="M610 521.5q28 -74.5 28 -171.5q0 -111 -36.5 -192t-104.5 -124.5t-161 -43.5q-78 0 -138 30l-34 -63h-86l57 107q-50 47 -76 120t-26 166q0 111 36.5 192t105 124.5t161.5 43.5q68 0 126 -25l21 40h90l-44 -83q53 -46 81 -120.5zM186 163l233 440q-38 20 -83 20
q-89 0 -141.5 -73.5t-52.5 -199.5q0 -115 44 -187zM477 150.5q52 73.5 52 199.5q0 125 -50 198l-237 -444q41 -27 94 -27q89 0 141 73.5zM379 906h100l-101 -152h-79z" />
    <glyph glyph-name="oslashacute" unicode="&#x1ff;" horiz-adv-x="564" 
d="M505.5 377.5q24.5 -55.5 24.5 -127.5q0 -121 -66.5 -190.5t-181.5 -69.5q-49 0 -93 14l-25 -47h-72l40 76q-47 33 -72 88.5t-25 128.5q0 121 66 190.5t181 69.5q49 0 93 -14l21 39h76l-37 -70q46 -32 70.5 -87.5zM174 113l164 312q-24 10 -56 10q-70 0 -109 -49.5
t-39 -135.5q0 -88 40 -137zM391 114.5q40 49.5 40 135.5q0 85 -39 135l-165 -310q23 -10 55 -10q69 0 109 49.5zM325 706h100l-101 -152h-79z" />
    <glyph glyph-name="uni0218" unicode="&#x218;" horiz-adv-x="536" 
d="M133 20q-61 30 -98 84l65 64q31 -40 78.5 -64.5t91.5 -24.5q55 0 88.5 27t33.5 71q0 30 -11.5 51t-40.5 41.5t-85 48.5q-108 53 -152 100.5t-44 112.5q0 53 27 94t77 63t115 22q70 0 126.5 -29.5t81.5 -78.5l-70 -52q-24 34 -59.5 52.5t-76.5 18.5q-52 0 -82 -23.5
t-30 -64.5q0 -25 12.5 -43t45 -38.5t100.5 -53.5q95 -46 134.5 -94.5t39.5 -118.5q0 -58 -29 -102.5t-82.5 -68.5t-123.5 -24q-71 0 -132 30zM318 -92q18 -20 18 -51q0 -35 -19 -74.5t-50 -68.5l-40 30q28 37 39 66q-26 1 -41.5 17t-15.5 41q0 27 16.5 43.5t43.5 16.5
q31 0 49 -20z" />
    <glyph glyph-name="uni0219" unicode="&#x219;" horiz-adv-x="424" 
d="M98 14q-47 24 -66 64l63 43q17 -26 46 -41t63 -15q39 0 64.5 22t25.5 56q0 27 -20 44.5t-74 37.5q-87 33 -122.5 67.5t-35.5 85.5q0 60 47.5 96t126.5 36q51 0 93 -21t66 -59l-59 -44q-17 24 -42.5 36.5t-56.5 12.5q-34 0 -55.5 -15t-21.5 -39q0 -25 22 -41.5t86 -41.5
q80 -31 112.5 -64.5t32.5 -86.5q0 -71 -52 -114t-137 -43q-59 0 -106 24zM262 -92q18 -20 18 -51q0 -35 -19 -74.5t-50 -68.5l-40 30q28 37 39 66q-26 1 -41.5 17t-15.5 41q0 27 16.5 43.5t43.5 16.5q31 0 49 -20z" />
    <glyph glyph-name="uni021A" unicode="&#x21a;" horiz-adv-x="569" 
d="M230 617h-214v83h536v-83h-213v-617h-109v617zM333 -92q18 -20 18 -51q0 -35 -19 -74.5t-50 -68.5l-40 30q28 37 39 66q-26 1 -41.5 17t-15.5 41q0 27 16.5 43.5t43.5 16.5q31 0 49 -20z" />
    <glyph glyph-name="uni021B" unicode="&#x21b;" horiz-adv-x="391" 
d="M140.5 32.5q-39.5 42.5 -39.5 117.5v274h-90v76h90v132l95 28h4v-160h143v-76h-143v-262q0 -49 19.5 -72t59.5 -23t71 12l6 -71q-37 -18 -106 -18q-70 0 -109.5 42.5zM291 -92q18 -20 18 -51q0 -35 -19 -74.5t-50 -68.5l-40 30q28 37 39 66q-26 1 -41.5 17t-15.5 41
q0 27 16.5 43.5t43.5 16.5q31 0 49 -20z" />
    <glyph glyph-name="uni0237" unicode="&#x237;" horiz-adv-x="257" 
d="M-54 -186l5 71q19 -2 47 -2q46 0 66 26.5t20 83.5v507h99v-509q0 -186 -163 -186q-39 0 -74 9z" />
    <glyph glyph-name="uni0251" unicode="&#x251;" horiz-adv-x="538" 
d="M86.5 62.5q-54.5 72.5 -54.5 196.5q0 115 56 183t151 68q91 0 140 -72h2v62h98v-372q0 -95 3 -128h-91q-3 43 -2 75h-2q-22 -40 -62.5 -62.5t-87.5 -22.5q-96 0 -150.5 72.5zM346.5 103.5q34.5 35.5 34.5 96.5v95q0 62 -35 101t-92 39q-60 0 -92 -47t-32 -131
q0 -89 32 -139t92 -50q58 0 92.5 35.5z" />
    <glyph glyph-name="uni0259" unicode="&#x259;" horiz-adv-x="526" 
d="M429.5 442q62.5 -68 62.5 -191q0 -122 -63 -191.5t-173 -69.5q-104 0 -162.5 69t-58.5 191v38h356q-7 68 -43.5 103t-98.5 35q-87 0 -142 -68l-55 52q29 46 83 73t119 27q113 0 175.5 -68zM350.5 109q34.5 38 41.5 108h-264v-7q0 -65 35 -102t96 -37q57 0 91.5 38z" />
    <glyph glyph-name="uni02BB" unicode="&#x2bb;" horiz-adv-x="200" 
d="M148 657q16 -16 16 -42q0 -27 -16.5 -44t-42.5 -17q-32 0 -50 20t-18 51q0 35 19 75t50 69l41 -31q-28 -35 -41 -65q26 0 42 -16z" />
    <glyph glyph-name="uni02BC" unicode="&#x2bc;" horiz-adv-x="200" 
d="M149 721q18 -20 18 -51q0 -35 -18.5 -74.5t-49.5 -68.5l-41 30q11 14 22 31.5t17 33.5q-25 1 -41 17t-16 41q0 27 16.5 44t43.5 17q31 0 49 -20z" />
    <glyph glyph-name="uni02BE" unicode="&#x2be;" 
d="M0 584q22 0 36 14.5t14 36.5t-14 36.5t-36 14.5v42q43 0 71 -26t28 -67t-28 -67t-71 -26v42z" />
    <glyph glyph-name="uni02BF" unicode="&#x2bf;" 
d="M-71 568q-28 26 -28 67t28 67t71 26v-42q-22 0 -36 -14.5t-14 -36.5t14 -36.5t36 -14.5v-42q-43 0 -71 26z" />
    <glyph glyph-name="circumflex" unicode="&#x2c6;" horiz-adv-x="400" 
d="M169 704h63l119 -150h-86l-65 85l-64 -85h-87z" />
    <glyph glyph-name="caron" unicode="&#x2c7;" horiz-adv-x="400" 
d="M49 704h87l64 -85l65 85h86l-119 -150h-63z" />
    <glyph glyph-name="uni02C8" unicode="&#x2c8;" 
d="M-50 747h100v-167h-100v167z" />
    <glyph glyph-name="uni02C9" unicode="&#x2c9;" horiz-adv-x="512" 
d="M64 675h384v-67h-384v67z" />
    <glyph glyph-name="uni02CA" unicode="&#x2ca;" 
d="M-109 606l115 108q31 27 59 27q22 0 35.5 -12.5t13.5 -32.5q0 -33 -44 -57l-143 -82z" />
    <glyph glyph-name="uni02CB" unicode="&#x2cb;" 
d="M-64 639q-44 25 -44 57q0 20 13.5 32.5t35.5 12.5q29 0 59 -26l115 -109l-36 -49z" />
    <glyph glyph-name="uni02CC" unicode="&#x2cc;" 
d="M-50 -40h100v-167h-100v167z" />
    <glyph glyph-name="breve" unicode="&#x2d8;" horiz-adv-x="400" 
d="M91 589.5q-40 35.5 -42 104.5h65q2 -35 23.5 -55t62.5 -20q38 0 61 19t25 56h65q-2 -67 -40 -103.5t-111 -36.5q-69 0 -109 35.5z" />
    <glyph glyph-name="dotaccent" unicode="&#x2d9;" horiz-adv-x="400" 
d="M159 570q-16 16 -16 40q0 25 16 40.5t41 15.5t41 -15.5t16 -40.5q0 -24 -16 -40t-41 -16t-41 16z" />
    <glyph glyph-name="ring" unicode="&#x2da;" horiz-adv-x="400" 
d="M129.5 568q-27.5 26 -27.5 67t27.5 67t70.5 26t71 -26t28 -67t-28 -67t-71 -26t-70.5 26zM236 598.5q14 14.5 14 36.5t-14 36.5t-36 14.5t-36 -14.5t-14 -36.5t14 -36.5t36 -14.5t36 14.5z" />
    <glyph glyph-name="ogonek" unicode="&#x2db;" horiz-adv-x="400" 
d="M127 -195q-28 24 -28 71q0 80 99 128h67q-94 -61 -94 -115q0 -19 14.5 -31.5t43.5 -12.5q22 0 56 14l14 -44q-18 -16 -43.5 -25t-53.5 -9q-47 0 -75 24z" />
    <glyph glyph-name="tilde" unicode="&#x2dc;" horiz-adv-x="400" 
d="M76 634q24 30 63 30q19 0 36 -7.5t38 -20.5q13 -7 25.5 -13t21.5 -6q26 0 29 51h59q0 -54 -25 -84t-64 -30q-20 0 -37 7.5t-44 22.5q-2 1 -15 9t-22 8q-12 0 -21 -12.5t-10 -34.5h-59q1 50 25 80z" />
    <glyph glyph-name="hungarumlaut" unicode="&#x2dd;" horiz-adv-x="400" 
d="M123 714h99l-110 -160h-79zM278 714h99l-109 -160h-80z" />
    <glyph glyph-name="gravecomb" unicode="&#x300;" 
d="M-140 706h99l80 -152h-79z" />
    <glyph glyph-name="acutecomb" unicode="&#x301;" 
d="M43 706h100l-101 -152h-79z" />
    <glyph glyph-name="uni0302" unicode="&#x302;" 
d="M-32 704h64l119 -150h-86l-65 85l-65 -85h-86z" />
    <glyph glyph-name="tildecomb" unicode="&#x303;" 
d="M-129 634q25 30 64 30q19 0 36.5 -7.5t38.5 -20.5q17 -10 27 -14.5t19 -4.5q27 0 30 51h61q-1 -54 -26.5 -84t-65.5 -30q-20 0 -38.5 8t-40.5 22q-2 1 -16 9t-23 8q-12 0 -20.5 -12.5t-9.5 -34.5h-61q0 50 25 80z" />
    <glyph glyph-name="uni0304" unicode="&#x304;" 
d="M-161 634h322v-67h-322v67z" />
    <glyph glyph-name="uni0306" unicode="&#x306;" 
d="M-109 589.5q-40 35.5 -42 104.5h65q2 -35 23.5 -55t62.5 -20q38 0 61 19t25 56h65q-2 -67 -40 -103.5t-111 -36.5q-69 0 -109 35.5z" />
    <glyph glyph-name="uni0307" unicode="&#x307;" 
d="M-41 570q-16 16 -16 40q0 25 16 40.5t41 15.5t41 -15.5t16 -40.5q0 -24 -16 -40t-41 -16t-41 16z" />
    <glyph glyph-name="uni0308" unicode="&#x308;" 
d="M-143 570q-16 16 -16 40q0 25 16 40.5t41 15.5q24 0 40.5 -16t16.5 -40t-16.5 -40t-40.5 -16q-25 0 -41 16zM61.5 570q-16.5 16 -16.5 40t16.5 40t40.5 16q25 0 41 -15.5t16 -40.5q0 -24 -16 -40t-41 -16q-24 0 -40.5 16z" />
    <glyph glyph-name="hookabovecomb" unicode="&#x309;" 
d="M-27.5 596.5q10.5 16.5 30.5 34.5q16 15 23.5 26t7.5 26q0 30 -39 30q-38 0 -63 -46l-43 39q16 31 46 48.5t68 17.5q48 0 76 -22t28 -62q0 -25 -10.5 -42t-30.5 -37q-16 -17 -23.5 -28.5t-7.5 -26.5h-73q0 26 10.5 42.5z" />
    <glyph glyph-name="uni030A" unicode="&#x30a;" 
d="M-71 568q-28 26 -28 67t28 67t71 26t71 -26t28 -67t-28 -67t-71 -26t-71 26zM36 598.5q14 14.5 14 36.5t-14 36.5t-36 14.5t-36 -14.5t-14 -36.5t14 -36.5t36 -14.5t36 14.5z" />
    <glyph glyph-name="uni030B" unicode="&#x30b;" 
d="M-49 706h98l-99 -152h-80zM96 706h98l-99 -152h-80z" />
    <glyph glyph-name="uni030C" unicode="&#x30c;" 
d="M-151 704h86l65 -85l65 85h86l-119 -150h-64z" />
    <glyph glyph-name="uni031B" unicode="&#x31b;" 
d="M-95 361q50 31 71 66t21 91v42h86v-42q0 -53 -23.5 -97.5t-64 -73.5t-90.5 -38v52z" />
    <glyph glyph-name="dotbelowcomb" unicode="&#x323;" 
d="M-41 -168.5q-16 15.5 -16 40.5t16 40.5t41 15.5t41 -15.5t16 -40.5t-16 -40.5t-41 -15.5t-41 15.5z" />
    <glyph glyph-name="uni0324" unicode="&#x324;" 
d="M-148 -168.5q-16 15.5 -16 40.5t16 40.5t41 15.5t41 -15.5t16 -40.5t-16 -40.5t-41 -15.5t-41 15.5zM66 -168.5q-16 15.5 -16 40.5t16 40.5t41 15.5t41 -15.5t16 -40.5t-16 -40.5t-41 -15.5t-41 15.5z" />
    <glyph glyph-name="uni0326" unicode="&#x326;" 
d="M49 -92q18 -20 18 -51q0 -35 -19 -74.5t-50 -68.5l-40 30q28 37 39 66q-26 1 -41.5 17t-15.5 41q0 27 16.5 43.5t43.5 16.5q31 0 49 -20z" />
    <glyph glyph-name="uni0327" unicode="&#x327;" 
d="M-61.5 -223.5q-23.5 4.5 -36.5 11.5l10 44q29 -9 59 -9q23 0 37 10t14 28q0 17 -19.5 26.5t-53.5 8.5l-23 26l51 91h64l-41 -76q42 0 67 -19.5t25 -53.5q0 -42 -29 -67t-79 -25q-22 0 -45.5 4.5z" />
    <glyph glyph-name="uni0328" unicode="&#x328;" 
d="M-92 -195q-28 24 -28 71q0 81 99 129h57v-5q-84 -59 -84 -111q0 -19 14.5 -31.5t44.5 -12.5q22 0 55 14l13 -44q-17 -16 -42.5 -25t-53.5 -9q-47 0 -75 24z" />
    <glyph glyph-name="uni032E" unicode="&#x32e;" 
d="M-109 -176q-40 35 -42 104h65q2 -35 23.5 -55t62.5 -20q38 0 61 19t25 56h65q-2 -66 -40 -102.5t-111 -36.5q-69 0 -109 35z" />
    <glyph glyph-name="uni0331" unicode="&#x331;" 
d="M-161 -67h322v-67h-322v67z" />
    <glyph glyph-name="uni0394" unicode="&#x394;" horiz-adv-x="651" 
d="M6 51l297 649h45l296 -649v-51h-638v51zM528 81l-203 463l-202 -463h405z" />
    <glyph glyph-name="uni03A9" unicode="&#x3a9;" horiz-adv-x="774" 
d="M40 83h166q-68 52 -107.5 135t-39.5 176q0 97 39.5 168.5t114 109.5t175.5 38t175 -38t113.5 -109.5t39.5 -168.5q0 -93 -39.5 -176t-107.5 -135h165v-83h-292v96q76 25 120 102.5t44 187.5q0 109 -58.5 172t-159.5 63q-102 0 -161 -63t-59 -172q0 -111 44 -188t121 -101
v-97h-293v83z" />
    <glyph glyph-name="uni03BC" unicode="&#x3bc;" horiz-adv-x="555" 
d="M57 500h98v-288q0 -68 26.5 -105t79.5 -37q60 0 97.5 46t37.5 116v268h99v-387q0 -50 9 -113h-92q-9 37 -10 78h-3q-42 -88 -138 -88q-31 0 -59 10.5t-47 30.5v-242h-98v711z" />
    <glyph glyph-name="pi" unicode="&#x3c0;" horiz-adv-x="663" 
d="M437 92v332h-221v-424h-99v424h-94v76h607v-76h-94v-310q0 -42 38 -42q23 0 47 10v-70q-42 -22 -85 -22q-99 0 -99 102z" />
    <glyph glyph-name="uni0E01" unicode="&#xe01;" horiz-adv-x="583" 
d="M73 245q0 37 19.5 66.5t52.5 44.5q-40 13 -105 18q3 63 34.5 111t86.5 74.5t126 26.5q67 0 118 -25t79.5 -71t28.5 -107v-383h-100v373q0 61 -36.5 97.5t-97.5 36.5q-51 0 -90.5 -23t-54.5 -62q35 -5 66.5 -18t50.5 -29v-24q-37 -12 -57.5 -38.5t-20.5 -63.5v-249h-100
v245z" />
    <glyph glyph-name="uni0E02" unicode="&#xe02;" horiz-adv-x="607" 
d="M536 576v-441q0 -70 -44 -107.5t-126 -37.5t-125 37.5t-43 107.5v96q0 28 9.5 49.5t29.5 52.5q21 31 31 54.5t10 53.5q0 39 -23.5 58t-63.5 19q-44 0 -70 -20q3 1 10 1q39 0 65.5 -25t26.5 -70q0 -41 -27 -69.5t-74 -28.5q-49 0 -78 32t-29 88q0 70 48 115t132 45
q78 0 125.5 -35.5t47.5 -101.5q0 -37 -10 -63.5t-29 -58.5q-16 -30 -24 -49.5t-8 -44.5v-101q0 -31 18 -47t52 -16t52 16t18 47v444h99zM155 436q-12 12 -32 12t-32.5 -12t-12.5 -32t12.5 -32.5t32.5 -12.5t32 12.5t12 32.5t-12 32z" />
    <glyph glyph-name="uni0E03" unicode="&#xe03;" horiz-adv-x="623" 
d="M552 576v-441q0 -70 -44 -107.5t-126 -37.5t-125 37.5t-43 107.5v72q0 29 10.5 53t32.5 62q22 34 33.5 61t11.5 59q0 24 -9.5 43t-25.5 28l-58 -51l-63 49q-27 -19 -38 -59q9 3 20 3q42 0 69 -27t27 -70t-28 -69.5t-72 -26.5q-48 0 -78.5 36.5t-30.5 95.5q0 69 37 123
t96 69l61 -54l60 54q53 -10 88 -45.5t35 -90.5q0 -40 -11 -70.5t-33 -69.5q-18 -32 -26.5 -53t-8.5 -46v-79q0 -31 18 -47t52 -16t52 16t18 47v444h99zM156.5 391q-12.5 12 -32.5 12q-19 0 -31.5 -12t-12.5 -32t12 -32.5t32 -12.5t32.5 12.5t12.5 32.5t-12.5 32z" />
    <glyph glyph-name="uni0E04" unicode="&#xe04;" horiz-adv-x="610" 
d="M474 534.5q66 -51.5 66 -141.5v-393h-100v384q0 57 -39 90t-107 33q-74 0 -117 -36.5t-43 -98.5q0 -29 7.5 -70.5t9.5 -50.5q16 69 53 110t89 41q46 0 72.5 -24t26.5 -67q0 -41 -25.5 -66.5t-67.5 -25.5q-23 0 -43.5 10t-31.5 28q-19 -28 -31.5 -70t-12.5 -80v-107h-98
v145q0 23 -19 95q-12 45 -18.5 76.5t-6.5 57.5q0 97 68.5 154.5t187.5 57.5q114 0 180 -51.5zM267.5 341.5q-11.5 -11.5 -11.5 -29.5q0 -19 11.5 -31t29.5 -12q19 0 30.5 12t11.5 31q0 18 -11.5 29.5t-30.5 11.5q-18 0 -29.5 -11.5z" />
    <glyph glyph-name="uni0E05" unicode="&#xe05;" horiz-adv-x="614" 
d="M504 521q40 -54 40 -134v-387h-100v385q0 45 -11.5 73t-37.5 45l-99 -69l-104 72q-30 -20 -44 -51t-14 -79q0 -24 5.5 -61t7.5 -49l6 -34q18 65 53.5 105t87.5 40q46 0 72.5 -24t26.5 -67q0 -41 -26 -66.5t-67 -25.5q-22 0 -43 10.5t-32 29.5q-20 -29 -32.5 -64.5
t-12.5 -71.5v-98h-98v145q0 23 -19 95q-12 47 -18.5 78t-6.5 57q0 81 41.5 138t118.5 73l99 -74l100 74q67 -11 107 -65zM268 316q-12 -12 -12 -30q0 -19 12 -30.5t31 -11.5q18 0 29.5 11.5t11.5 30.5q0 18 -11.5 30t-29.5 12q-19 0 -31 -12z" />
    <glyph glyph-name="uni0E06" unicode="&#xe06;" horiz-adv-x="652" 
d="M581 576v-576h-92q-21 44 -60 76.5t-86 48.5q4 -9 4 -23q0 -49 -33.5 -80.5t-85.5 -31.5t-85 31.5t-33 79.5q0 46 31 76t75 31v6q0 27 10 49.5t31 60.5q22 36 33 61.5t11 56.5q0 24 -10 43t-27 28l-57 -51l-61 49q-27 -19 -38 -59q9 3 20 3q42 0 69 -27t27 -70t-28 -69.5
t-72 -26.5q-48 0 -78.5 36.5t-30.5 95.5q0 69 37 123t96 69l59 -54l60 54q52 -10 87 -45.5t35 -90.5q0 -38 -11 -67.5t-32 -67.5q-18 -32 -25.5 -50.5t-7.5 -41.5v-17q54 -9 97.5 -31t71.5 -55v456h99zM156.5 391q-12.5 12 -32.5 12q-19 0 -31.5 -12t-12.5 -32t12 -32.5
t32 -12.5t32.5 12.5t12.5 32.5t-12.5 32zM259 65.5q13 12.5 13 33.5q0 20 -13 33.5t-34 13.5q-20 0 -33 -13.5t-13 -33.5q0 -21 13 -33.5t33 -12.5q21 0 34 12.5z" />
    <glyph glyph-name="uni0E07" unicode="&#xe07;" horiz-adv-x="463" 
d="M361 555.5q32 -30.5 32 -78.5v-477h-99l-276 298l55 58l221 -239v264q-10 -3 -21 -3q-46 0 -75 29.5t-29 75.5q0 45 30.5 74t79.5 29q50 0 82 -30.5zM306.5 449q12.5 13 12.5 33t-12.5 33t-33.5 13q-20 0 -33 -13t-13 -33t13 -33t33 -13q21 0 33.5 13z" />
    <glyph glyph-name="uni0E08" unicode="&#xe08;" horiz-adv-x="561" 
d="M262.5 13.5q-33.5 23.5 -40.5 66.5l-18 107q-14 -6 -30 -6q-44 0 -72.5 27t-28.5 69q0 43 29.5 69t72.5 26q38 0 65.5 -21t33.5 -55l34 -198q2 -14 13.5 -22t28.5 -8q41 0 41 39v309q0 41 -34 66t-91 25q-56 0 -95 -25t-47 -66h-98q6 78 71 124t171 46q101 0 162 -44
t61 -117v-317q0 -57 -36 -87.5t-104 -30.5q-55 0 -88.5 23.5zM201.5 247q11.5 12 11.5 31t-11.5 30.5t-30.5 11.5t-31 -11.5t-12 -30.5t12 -31t31 -12t30.5 12z" />
    <glyph glyph-name="uni0E09" unicode="&#xe09;" horiz-adv-x="578" 
d="M509 142q15 -24 15 -52q0 -44 -29 -72.5t-74 -28.5q-49 0 -80 27.5t-32 70.5q-65 -32 -99 -87h-100v125q0 30 13 53q-39 2 -64 28.5t-25 67.5q0 42 28 68.5t73 26.5q47 0 74 -25t27 -66q0 -26 -18 -70q-15 -37 -15 -56v-58q39 51 145 90q24 9 41 34t17 58v139
q0 42 -35.5 67t-95.5 25q-59 0 -99.5 -25t-47.5 -67h-99q4 51 36 90t87 60t124 21q68 0 120 -21t80.5 -59t28.5 -87v-142q0 -29 -10 -54.5t-28 -43.5q27 -13 42 -37zM165 242.5q12 11.5 12 30.5t-12 31t-31 12t-30.5 -12t-11.5 -31t11.5 -30.5t30.5 -11.5t31 11.5z
M449.5 57.5q12.5 12.5 12.5 32.5t-12.5 33t-33.5 13q-20 0 -32.5 -13t-12.5 -33t12.5 -32.5t32.5 -12.5q21 0 33.5 12.5z" />
    <glyph glyph-name="uni0E0A" unicode="&#xe0a;" horiz-adv-x="621" 
d="M534.5 421.5q15.5 -25.5 15.5 -63.5v-223q0 -69 -46.5 -107t-130.5 -38q-83 0 -129 38t-46 107v96q0 28 9.5 49.5t29.5 52.5q21 31 31 54.5t10 53.5q0 39 -23.5 58t-63.5 19q-44 0 -70 -19h10q39 0 65.5 -25t26.5 -70q0 -41 -27 -69.5t-74 -28.5q-49 0 -78 32t-29 88
q0 70 48 115t132 45q77 0 122.5 -35t45.5 -102q0 -36 -9 -62.5t-27 -59.5q-15 -27 -22.5 -48t-7.5 -46v-101q0 -30 20 -46.5t57 -16.5t57 16.5t20 46.5v222q0 31 -13 48t-43 27v52q39 17 59 48t22 82h102q-4 -52 -30.5 -94t-57.5 -59q29 -11 44.5 -36.5zM155 436
q-12 12 -32 12t-32.5 -12t-12.5 -32t12.5 -32.5t32.5 -12.5t32 12.5t12 32.5t-12 32z" />
    <glyph glyph-name="uni0E0B" unicode="&#xe0b;" horiz-adv-x="633" 
d="M547 421.5q16 -25.5 16 -63.5v-223q0 -70 -45 -107.5t-130 -37.5q-83 0 -128.5 38t-45.5 107v72q0 29 10.5 54.5t32.5 60.5t33 62t11 58q0 52 -37 71l-57 -51l-61 49q-27 -19 -38 -59q9 3 20 3q42 0 69 -27t27 -70t-28 -69.5t-72 -26.5q-48 0 -78.5 36.5t-30.5 95.5
q0 69 37 123t96 69l59 -54l60 54q57 -10 89.5 -44.5t32.5 -91.5q0 -41 -11 -71.5t-32 -68.5q-17 -32 -25 -53t-8 -46v-79q0 -30 20 -46.5t56 -16.5q74 0 74 63v222q0 32 -10.5 48.5t-39.5 26.5v52q38 16 55.5 46.5t19.5 83.5h103q-4 -52 -31 -94t-58 -59q29 -11 45 -36.5z
M156.5 391q-12.5 12 -32.5 12q-19 0 -31.5 -12t-12.5 -32t12 -32.5t32 -12.5t32.5 12.5t12.5 32.5t-12.5 32z" />
    <glyph glyph-name="uni0E0C" unicode="&#xe0c;" horiz-adv-x="815" 
d="M745 576v-576h-89q-17 31 -53 60t-76 48q1 -3 1 -10q0 -46 -29.5 -77t-77.5 -31t-79.5 30.5t-31.5 77.5q0 36 23 64.5t60 37.5v176q0 62 -30 96.5t-90 34.5q-49 0 -86.5 -22t-52.5 -62q79 -14 117 -48v-24q-36 -11 -57 -37t-21 -65v-51h5q43 0 70 -30.5t27 -74.5
t-30 -73.5t-79 -29.5t-78.5 29.5t-29.5 74.5q0 31 15 53v98q0 38 18.5 67t53.5 44q-40 15 -105 18q3 63 33.5 111t83.5 74.5t123 26.5q99 0 155.5 -53.5t56.5 -146.5v-188q37 -10 79 -31.5t75 -48.5v458h99zM451 65q13 13 13 33q0 21 -13 33.5t-34 12.5q-20 0 -33 -12.5
t-13 -33.5q0 -20 13 -33t33 -13q21 0 34 13zM200 127.5q-13 12.5 -33 12.5q-21 0 -33.5 -12.5t-12.5 -33.5q0 -20 12.5 -33t33.5 -13q20 0 33 13t13 33q0 21 -13 33.5z" />
    <glyph glyph-name="uni0E0D" unicode="&#xe0d;" horiz-adv-x="836" 
d="M766 576v-448q0 -65 -51 -101.5t-136 -36.5t-135.5 36.5t-50.5 102.5v244q0 63 -33 98.5t-93 35.5q-48 0 -83 -22.5t-50 -62.5q35 -5 67 -18t50 -29v-24q-37 -12 -57.5 -38.5t-20.5 -63.5v-56q10 3 21 3q45 0 74 -28.5t29 -74.5t-30.5 -74.5t-79.5 -28.5q-50 0 -82 30.5
t-32 79.5v145q0 37 19.5 66.5t52.5 44.5q-37 13 -105 18q5 99 66 155.5t168 56.5q102 0 160 -54t58 -149v-251q0 -29 24.5 -46t63.5 -17t63 17t24 46v444h99zM160 126q-13 -13 -13 -33t13 -33t33 -13t33 13t13 33t-13 33t-33 13t-33 -13zM648 -168q32 41 33 112h85
q-2 -98 -56 -155.5t-152 -57.5q-51 0 -91 16.5t-62 45t-22 63.5q0 41 25.5 65.5t65.5 24.5q42 0 67 -22.5t25 -61.5q0 -20 -9.5 -38t-26.5 -28q17 -5 32 -5q54 0 86 41zM447 -168.5q10 -10.5 26 -10.5q18 0 28 10.5t10 27.5t-10 27.5t-28 10.5q-16 0 -26 -10.5t-10 -27.5
t10 -27.5z" />
    <glyph glyph-name="uni0E0E" unicode="&#xe0e;" horiz-adv-x="615" 
d="M484.5 531.5q60.5 -54.5 60.5 -148.5v-699h-96q-17 32 -52.5 61.5t-78.5 50.5q-12 -53 -45.5 -84t-87.5 -31q-50 0 -83.5 25t-33.5 70q0 50 37 78t104 28q28 0 60 -9q14 43 43 63l55 -24q-26 -19 -38 -61q73 -32 117 -76v598q0 62 -36 98t-95 36q-50 0 -88 -22t-53 -63
q36 -5 69 -18t51 -29v-24q-34 -10 -51 -33.5t-17 -54.5q0 -13 8 -59q12 -62 12 -100q0 -52 -32.5 -83t-84.5 -31q-48 0 -78.5 28.5t-30.5 74.5t28 75.5t73 29.5q11 0 27 -4q-11 39 -11 65q0 31 13.5 57.5t36.5 39.5q-37 13 -107 18q3 62 33 110t84 75t125 27
q102 0 162.5 -54.5zM158 61q13 13 13 33t-13 33t-33 13t-33 -13t-13 -33t13 -33t33 -13t33 13zM257 -182q-30 8 -53 8q-29 0 -47.5 -12t-18.5 -34q0 -20 12 -31.5t36 -11.5q51 0 71 81z" />
    <glyph glyph-name="uni0E0F" unicode="&#xe0f;" horiz-adv-x="615" 
d="M484.5 531.5q60.5 -54.5 60.5 -148.5v-699h-93l-76 92l-58 -92q-40 53 -65 80q-10 -40 -39 -63.5t-70 -23.5q-51 0 -80.5 26.5t-29.5 70.5q0 47 31.5 73.5t82.5 26.5q26 0 53 -8q12 48 60 75l51 -29q-47 -29 -54 -77q31 -24 57 -61l55 83l76 -84v600q0 62 -36 98t-95 36
q-50 0 -88 -22t-53 -63q36 -5 69 -18t51 -29v-24q-34 -10 -51 -33.5t-17 -54.5q0 -13 8 -59q12 -62 12 -100q0 -52 -32.5 -83t-84.5 -31q-48 0 -78.5 28.5t-30.5 74.5t28 75.5t73 29.5q11 0 27 -4q-11 39 -11 65q0 31 13.5 57.5t36.5 39.5q-37 13 -107 18q3 62 33 110t84 75
t125 27q102 0 162.5 -54.5zM158 61q13 13 13 33t-13 33t-33 13t-33 -13t-13 -33t13 -33t33 -13t33 13zM182 -249q14 17 15 55q-24 11 -46 11q-25 0 -39 -11.5t-14 -31.5q0 -19 11.5 -29.5t32.5 -10.5q26 0 40 17z" />
    <glyph glyph-name="uni0E10" unicode="&#xe10;" horiz-adv-x="550" 
d="M449.5 372.5q23.5 -25.5 23.5 -56.5v-199q0 -58 -42.5 -92.5t-114.5 -34.5q-71 0 -112.5 34t-41.5 93v43q-5 -1 -14 -1q-43 0 -70 27t-27 70t28.5 69.5t75.5 26.5q48 0 75 -27.5t27 -74.5v-126q0 -26 15 -40.5t43 -14.5t43.5 14.5t15.5 40.5v171q0 16 -9.5 28.5
t-32.5 21.5q-39 16 -127 34t-169 25q1 83 45.5 132.5t116.5 49.5q24 0 60.5 -7t68.5 -14q48 -12 62 -12q16 0 27 9.5t14 27.5l71 -16q-8 -46 -35 -72t-70 -26q-21 0 -97 20t-97 20q-24 0 -40 -13.5t-21 -35.5q63 -8 134.5 -23.5t106.5 -28.5q44 -17 67.5 -42.5zM119 225.5
q12 -11.5 31 -11.5t30.5 11.5t11.5 30.5t-11.5 30.5t-30.5 11.5t-31 -11.5t-12 -30.5t12 -30.5zM449 -91.5q24 -19.5 24 -49.5v-169h-83l-57 37l-69 -39q-34 49 -63 75q-14 -38 -38.5 -58.5t-71.5 -20.5q-41 0 -66 23t-25 58q0 38 31 60t82 22q23 0 49 -7q6 33 16.5 55.5
t32.5 34.5l55 -30q-19 -11 -29 -31t-21 -57q28 -22 62 -64l59 32l58 -38v50q-3 -1 -15 -1q-32 0 -52.5 19.5t-20.5 49.5t22 49t60 19q36 0 60 -19.5zM396 -161.5q8 8.5 8 21.5t-8 21.5t-20 8.5t-20 -8.5t-8 -21.5t8 -21.5t20 -8.5t20 8.5zM135 -246.5q12 13.5 18 38.5
q-18 6 -39 6q-22 0 -35 -7.5t-13 -22.5q0 -13 9.5 -20.5t25.5 -7.5q22 0 34 13.5z" />
    <glyph glyph-name="uni0E11" unicode="&#xe11;" horiz-adv-x="726" 
d="M655 466v-466h-99v473q0 33 -23 33q-20 0 -30 -29l-180 -477h-109v207q0 32 11 62.5t32 72.5q19 40 27.5 63t8.5 45q0 43 -36 63l-52 -51l-59 49q-27 -19 -38 -59q9 3 20 3q42 0 69 -27t27 -70t-28 -69.5t-72 -26.5q-48 0 -78.5 36.5t-30.5 95.5q0 69 37 123t96 69
l61 -54l60 54q55 -10 84 -44t29 -92q0 -30 -9.5 -57t-26.5 -62q-18 -40 -25.5 -62t-7.5 -48q0 -61 -7 -116l34 131l90 256q16 47 44 70.5t73 23.5q108 0 108 -120zM156.5 391q-12.5 12 -32.5 12q-19 0 -31.5 -12t-12.5 -32t12 -32.5t32 -12.5t32.5 12.5t12.5 32.5t-12.5 32z
" />
    <glyph glyph-name="uni0E12" unicode="&#xe12;" horiz-adv-x="846" 
d="M776 576v-576h-91q-15 31 -47.5 62t-73.5 49q1 -5 1 -15q0 -45 -30 -75.5t-77 -30.5q-49 0 -80 30.5t-31 76.5q0 35 23.5 63.5t60.5 38.5v186q0 43 -12 71.5t-38 46.5l-91 -69l-98 72q-29 -19 -43.5 -52.5t-14.5 -77.5q0 -20 4.5 -43t9.5 -45t7 -29q11 -41 16.5 -69.5
t6.5 -53.5q11 13 49 47q28 23 41 37q-32 5 -51.5 27.5t-19.5 56.5q0 39 26.5 64t67.5 25t67 -25.5t26 -66.5q0 -38 -24 -69t-73 -75q-50 -45 -76.5 -79.5t-29.5 -77.5h-96v134q0 19 -9 55t-11 43q-13 50 -20 84t-7 59q0 47 18.5 91.5t54.5 76.5t87 43l94 -75l91 75
q65 -10 105.5 -65.5t40.5 -133.5v-190q38 -9 77.5 -30t69.5 -49v458h100zM260.5 273.5q11.5 -11.5 30.5 -11.5t30.5 11.5t11.5 30.5t-11.5 30.5t-30.5 11.5t-30.5 -11.5t-11.5 -30.5t11.5 -30.5zM487.5 65q12.5 13 12.5 33t-12.5 33t-32.5 13q-21 0 -33.5 -13t-12.5 -33
t12.5 -33t33.5 -13q20 0 32.5 13z" />
    <glyph glyph-name="uni0E13" unicode="&#xe13;" horiz-adv-x="849" 
d="M785.5 155q17.5 -24 17.5 -55q0 -49 -30 -79.5t-78 -30.5t-77.5 29t-30.5 76q-57 -29 -95 -95h-98v376q0 62 -30 96.5t-89 34.5q-51 0 -88.5 -22.5t-52.5 -62.5q35 -5 66.5 -17.5t50.5 -29.5v-24q-36 -12 -57 -37.5t-21 -64.5v-56q10 3 21 3q45 0 74 -28.5t29 -74.5
t-30.5 -74.5t-79.5 -28.5q-50 0 -82 30.5t-32 79.5v145q0 38 18.5 67t53.5 44q-34 13 -105 18q3 63 34 111t84.5 74.5t122.5 26.5q99 0 155 -53.5t56 -146.5v-280q35 42 91 69q49 25 71.5 47t22.5 63v291h99v-292q0 -30 -10.5 -54.5t-28.5 -38.5q31 -12 48.5 -36zM728 61
q13 13 13 33t-13 33t-33 13t-33.5 -13t-13.5 -33t13.5 -33t33.5 -13t33 13zM160 126q-13 -13 -13 -33t13 -33t33 -13t33 13t13 33t-13 33t-33 13t-33 -13z" />
    <glyph glyph-name="uni0E14" unicode="&#xe14;" horiz-adv-x="599" 
d="M464.5 530.5q64.5 -55.5 64.5 -152.5v-378h-99v376q0 62 -38.5 96.5t-103.5 34.5q-48 0 -82.5 -18t-52 -47.5t-17.5 -63.5q0 -21 5 -45t15 -65q10 -40 15 -65.5t5 -46.5v-14q15 21 37.5 42t55.5 49q-34 5 -54.5 29t-20.5 59q0 39 26 64t67 25t67.5 -26t26.5 -66
q0 -38 -23 -70t-70 -78q-50 -50 -76.5 -87t-30.5 -83h-98v143q0 20 -19 94q-13 53 -19.5 85.5t-6.5 59.5q0 56 30 103t86.5 74t132.5 27q113 0 177.5 -55.5zM256.5 290q11.5 -12 30.5 -12t30.5 12t11.5 31q0 18 -11.5 29.5t-30.5 11.5t-30.5 -11.5t-11.5 -29.5
q0 -19 11.5 -31z" />
    <glyph glyph-name="uni0E15" unicode="&#xe15;" horiz-adv-x="614" 
d="M504 521q40 -54 40 -134v-387h-100v385q0 45 -11.5 73t-37.5 45l-99 -69l-104 72q-30 -20 -44 -51t-14 -79q0 -22 6.5 -52.5t14.5 -60.5q21 -73 21 -107v-24q16 21 43.5 45t34.5 30l17 14q-32 5 -51.5 27.5t-19.5 56.5q0 38 26.5 63.5t67.5 25.5t67 -26t26 -66
q0 -37 -23.5 -67t-71.5 -73q-52 -45 -80 -80.5t-31 -81.5h-98v143q0 14 -6 39.5t-13 53.5q-13 51 -19.5 82t-6.5 57q0 81 41.5 138t118.5 73l99 -74l100 74q67 -11 107 -65zM262.5 274.5q11.5 -11.5 30.5 -11.5t30.5 11.5t11.5 30.5q0 18 -11.5 29.5t-30.5 11.5t-30.5 -11.5
t-11.5 -29.5q0 -19 11.5 -30.5z" />
    <glyph glyph-name="uni0E16" unicode="&#xe16;" horiz-adv-x="587" 
d="M408.5 561q51.5 -25 79.5 -71t28 -107v-383h-98v373q0 61 -37.5 97.5t-98.5 36.5q-52 0 -92.5 -23t-55.5 -62q35 -5 66.5 -18t50.5 -29v-24q-37 -12 -57.5 -38.5t-20.5 -63.5v-56q10 3 21 3q45 0 74 -28.5t29 -74.5t-30.5 -74.5t-79.5 -28.5q-50 0 -82 30.5t-32 79.5v145
q0 37 19.5 66.5t52.5 44.5q-40 13 -105 18q3 63 35 111t87.5 74.5t126.5 26.5q68 0 119.5 -25zM160 126q-13 -13 -13 -33t13 -33t33 -13t33 13t13 33t-13 33t-33 13t-33 -13z" />
    <glyph glyph-name="uni0E17" unicode="&#xe17;" horiz-adv-x="664" 
d="M594 460v-460h-100v459q0 45 -29 45q-24 0 -34 -27l-183 -477h-103v381q-10 -3 -21 -3q-46 0 -75 29.5t-29 75.5q0 45 30.5 74t79.5 29q50 0 82 -30.5t32 -78.5v-252q0 -35 -3.5 -67.5t-4.5 -39.5l30 120l91 255q33 93 123 93q114 0 114 -126zM157.5 449q12.5 13 12.5 33
t-12.5 33t-33.5 13q-20 0 -33 -13t-13 -33t13 -33t33 -13q21 0 33.5 13z" />
    <glyph glyph-name="uni0E18" unicode="&#xe18;" horiz-adv-x="556" 
d="M126 25.5q-54 35.5 -54 96.5v196h98v-191q0 -27 27.5 -42t77.5 -15t77 15t27 42v159q0 21 -13 34.5t-53 24.5q-43 11 -122 24.5t-146 18.5q1 93 47 145.5t123 52.5q27 0 54 -5.5t62 -15.5q48 -13 66 -13q35 0 44 35l72 -17q-13 -48 -39 -72.5t-63 -24.5q-27 0 -89 17
q-5 1 -37 9t-55 8q-30 0 -50.5 -15t-23.5 -40q67 -6 135 -20t105 -28q44 -15 63 -39t19 -57v-186q0 -61 -54.5 -96.5t-148.5 -35.5q-95 0 -149 35.5z" />
    <glyph glyph-name="uni0E19" unicode="&#xe19;" horiz-adv-x="641" 
d="M578 155q18 -24 18 -55q0 -49 -30.5 -79.5t-79.5 -30.5q-47 0 -77 30t-30 78v1q-40 -16 -76.5 -42.5t-58.5 -56.5h-99v381q-10 -3 -21 -3q-46 0 -75 29.5t-29 75.5q0 45 30.5 74t79.5 29q50 0 82 -30.5t32 -78.5v-378q14 16 41 32.5t68 35.5q47 23 71.5 40t34.5 34.5
t10 43.5v291h99v-292q0 -31 -10 -55.5t-29 -37.5q31 -12 49 -36zM157.5 449q12.5 13 12.5 33t-12.5 33t-33.5 13q-20 0 -33 -13t-13 -33t13 -33t33 -13q21 0 33.5 13zM520 61q13 13 13 33t-13 33t-34 13q-20 0 -32.5 -13t-12.5 -33t12.5 -33t32.5 -13q21 0 34 13z" />
    <glyph glyph-name="uni0E1A" unicode="&#xe1a;" horiz-adv-x="647" 
d="M577 576v-449q0 -64 -57.5 -100.5t-158.5 -36.5t-158.5 36.5t-57.5 100.5v254q-10 -3 -21 -3q-46 0 -75 29.5t-29 75.5q0 45 30.5 74t79.5 29q50 0 82 -30.5t32 -78.5v-338q0 -32 31 -51t86 -19q54 0 85 19t31 51v437h100zM157.5 449q12.5 13 12.5 33t-12.5 33t-33.5 13
q-20 0 -33 -13t-13 -33t13 -33t33 -13q21 0 33.5 13z" />
    <glyph glyph-name="uni0E1B" unicode="&#xe1b;" horiz-adv-x="660" 
d="M589 815v-688q0 -64 -58.5 -100.5t-163.5 -36.5q-102 0 -162 36.5t-60 100.5v254q-10 -3 -21 -3q-46 0 -75 29.5t-29 75.5q0 45 30.5 74t79.5 29q50 0 82 -30.5t32 -78.5v-338q0 -32 33.5 -51t89.5 -19q58 0 90.5 18.5t32.5 51.5v676h99zM157.5 449q12.5 13 12.5 33
t-12.5 33t-33.5 13q-20 0 -33 -13t-13 -33t13 -33t33 -13q21 0 33.5 13z" />
    <glyph glyph-name="uni0E1C" unicode="&#xe1c;" horiz-adv-x="631" 
d="M561 576v-576h-102l-145 220l-145 -220h-101v477q0 48 31.5 78.5t81.5 30.5q49 0 79.5 -29t30.5 -74q0 -47 -29 -76t-75 -29q-8 0 -20 2v-242l113 164h69l112 -164v438h100zM153 515q-13 -13 -13 -33t13 -33t34 -13q20 0 33 13t13 33t-13 33t-33 13q-21 0 -34 -13z" />
    <glyph glyph-name="uni0E1D" unicode="&#xe1d;" horiz-adv-x="631" 
d="M561 815v-815h-102l-145 220l-145 -220h-101v477q0 48 31.5 78.5t81.5 30.5q49 0 79.5 -29t30.5 -74q0 -47 -29 -76t-75 -29q-8 0 -20 2v-242l113 164h69l112 -164v677h100zM153 515q-13 -13 -13 -33t13 -33t34 -13q20 0 33 13t13 33t-13 33t-33 13q-21 0 -34 -13z" />
    <glyph glyph-name="uni0E1E" unicode="&#xe1e;" horiz-adv-x="726" 
d="M656 576v-576h-109l-146 457l-146 -457h-109v381q-10 -3 -22 -3q-46 0 -75 29.5t-29 75.5q0 45 30.5 74t79.5 29q50 0 82 -30.5t32 -78.5v-248q0 -25 -5 -82l21 86l103 339h77l102 -339l21 -86q-5 57 -5 82v347h98zM157.5 449q12.5 13 12.5 33t-12.5 33t-33.5 13
q-20 0 -33 -13t-13 -33t13 -33t33 -13q21 0 33.5 13z" />
    <glyph glyph-name="uni0E1F" unicode="&#xe1f;" horiz-adv-x="726" 
d="M656 815v-815h-109l-146 457l-146 -457h-109v381q-10 -3 -22 -3q-46 0 -75 29.5t-29 75.5q0 45 30.5 74t79.5 29q50 0 82 -30.5t32 -78.5v-248q0 -25 -5 -82l21 86l103 339h77l102 -339l21 -86q-5 57 -5 82v586h98zM157.5 449q12.5 13 12.5 33t-12.5 33t-33.5 13
q-20 0 -33 -13t-13 -33t13 -33t33 -13q21 0 33.5 13z" />
    <glyph glyph-name="uni0E20" unicode="&#xe20;" horiz-adv-x="621" 
d="M489 531.5q61 -54.5 61 -148.5v-383h-99v373q0 62 -36.5 98t-97.5 36q-49 0 -88.5 -22.5t-54.5 -62.5q36 -5 69 -18t51 -29v-24q-34 -10 -51 -33.5t-17 -54.5q0 -13 8 -59q12 -62 12 -100q0 -51 -32.5 -82.5t-84.5 -31.5q-48 0 -78.5 28.5t-30.5 74.5t28 75.5t73 29.5
q11 0 27 -4q-11 39 -11 65q0 31 13.5 57.5t36.5 39.5q-37 13 -107 18q3 62 34 110t85 75t125 27q104 0 165 -54.5zM158 61q13 13 13 33t-13 33t-33 13t-33 -13t-13 -33t13 -33t33 -13t33 13z" />
    <glyph glyph-name="uni0E21" unicode="&#xe21;" horiz-adv-x="619" 
d="M549 576v-576h-91q-40 35 -90.5 63.5t-94.5 42.5v-4q0 -49 -34 -80.5t-85 -31.5t-82.5 31t-31.5 80q0 48 32 78.5t85 30.5h2v171q-10 -3 -21 -3q-45 0 -74 29.5t-29 75.5q0 45 30.5 74t79.5 29q50 0 82 -30.5t32 -78.5v-282q53 -17 104 -41.5t87 -49.5v472h99zM106 449
q13 -13 33 -13t33.5 13t13.5 33t-13.5 33t-33.5 13t-33 -13t-13 -33t13 -33zM185.5 65.5q13.5 13.5 13.5 34.5q0 20 -13.5 33.5t-35.5 13.5q-20 0 -33.5 -13.5t-13.5 -33.5q0 -21 13.5 -34.5t33.5 -13.5q22 0 35.5 13.5z" />
    <glyph glyph-name="uni0E22" unicode="&#xe22;" horiz-adv-x="577" 
d="M507 576v-436q0 -70 -60 -110t-164 -40q-103 0 -163.5 40t-60.5 110v63q0 33 16 58.5t49 40.5q-38 18 -56 55t-18 84q0 67 35 106t96 39q48 0 76 -25.5t28 -69.5q0 -42 -26 -67t-71 -25q-25 0 -44 10q3 -32 22 -51t46 -19h98v-76h-99q-24 0 -38.5 -16t-14.5 -43v-56
q0 -37 33.5 -58t91.5 -21t91 21t33 58v428h100zM154.5 524q-12.5 -12 -12.5 -32q0 -19 12.5 -31.5t31.5 -12.5q20 0 32 12.5t12 31.5q0 20 -12 32t-32 12q-19 0 -31.5 -12z" />
    <glyph glyph-name="uni0E23" unicode="&#xe23;" horiz-adv-x="489" 
d="M156 492.5q-18 -14.5 -20 -40.5q116 -13 192 -48t76 -87v-217q0 -49 -32 -79.5t-82 -30.5q-49 0 -79.5 29t-30.5 74q0 47 28.5 76t74.5 29q10 0 21 -3v108q0 29 -77 52t-196 36q1 93 41.5 144t110.5 51q26 0 49.5 -5t55.5 -15q5 -1 24 -6.5t32 -5.5t24 10t15 26l72 -21
q-13 -46 -38 -70.5t-58 -24.5q-15 0 -35.5 5t-41.5 11q-22 6 -45 11.5t-39 5.5q-24 0 -42 -14.5zM317 61q13 13 13 33t-13 33t-33 13q-21 0 -33.5 -13t-12.5 -33t12.5 -33t33.5 -13q20 0 33 13z" />
    <glyph glyph-name="uni0E24" unicode="&#xe24;" horiz-adv-x="587" 
d="M408.5 561q51.5 -25 79.5 -71t28 -107v-633h-98v623q0 61 -37.5 97.5t-98.5 36.5q-52 0 -92.5 -23t-55.5 -62q35 -5 66.5 -18t50.5 -29v-24q-37 -12 -57.5 -38.5t-20.5 -63.5v-56q10 3 21 3q45 0 74 -28.5t29 -74.5t-30.5 -74.5t-79.5 -28.5q-50 0 -82 30.5t-32 79.5v145
q0 37 19.5 66.5t52.5 44.5q-40 13 -105 18q3 63 35 111t87.5 74.5t126.5 26.5q68 0 119.5 -25zM160 126q-13 -13 -13 -33t13 -33t33 -13t33 13t13 33t-13 33t-33 13t-33 -13z" />
    <glyph glyph-name="uni0E25" unicode="&#xe25;" horiz-adv-x="587" 
d="M452 539q64 -47 64 -127v-412h-98v230q0 42 -39.5 67t-90.5 25t-85 -24t-34 -65v-38q10 3 21 3q46 0 74.5 -29t28.5 -76q0 -45 -30.5 -74t-79.5 -29q-50 0 -81.5 30.5t-31.5 79.5v132q0 50 27.5 87t75 56.5t104.5 19.5q40 0 77.5 -12t63.5 -38v70q0 42 -37.5 67
t-100.5 25q-61 0 -102 -24.5t-49 -66.5h-96q6 78 72.5 124t174.5 46t172 -47zM222.5 127q-12.5 13 -32.5 13q-21 0 -34 -13t-13 -33t13 -33t34 -13q20 0 32.5 13t12.5 33t-12.5 33z" />
    <glyph glyph-name="uni0E26" unicode="&#xe26;" horiz-adv-x="615" 
d="M484.5 531.5q60.5 -54.5 60.5 -148.5v-633h-99v623q0 62 -36 98t-95 36q-50 0 -88 -22t-53 -63q36 -5 69 -18t51 -29v-24q-34 -10 -51 -33.5t-17 -54.5q0 -13 8 -59q12 -62 12 -100q0 -52 -32.5 -83t-84.5 -31q-48 0 -78.5 28.5t-30.5 74.5t28 75.5t73 29.5q11 0 27 -4
q-11 39 -11 65q0 31 13.5 57.5t36.5 39.5q-37 13 -107 18q3 62 33 110t84 75t125 27q102 0 162.5 -54.5zM158 61q13 13 13 33t-13 33t-33 13t-33 -13t-13 -33t13 -33t33 -13t33 13z" />
    <glyph glyph-name="uni0E27" unicode="&#xe27;" horiz-adv-x="520" 
d="M393 539q56 -47 56 -129v-310q0 -49 -32 -79.5t-82 -30.5q-49 0 -79.5 29t-30.5 74q0 47 29 76t75 29q11 0 21 -3v207q0 49 -29.5 77t-83.5 28q-49 0 -81.5 -27t-39.5 -73h-99q7 83 66.5 131t155.5 48q98 0 154 -47zM363 61q13 13 13 33t-13 33t-34 13q-20 0 -33 -13
t-13 -33t13 -33t33 -13q21 0 34 13z" />
    <glyph glyph-name="uni0E28" unicode="&#xe28;" horiz-adv-x="609" 
d="M494 515q45 -48 45 -122v-393h-99v384q0 34 -16 63q-37 -30 -77 -56q45 -24 45 -80q0 -41 -25.5 -66.5t-67.5 -25.5q-23 0 -43.5 10t-31.5 28q-19 -28 -31.5 -70t-12.5 -80v-107h-98v145q0 23 -19 95q-12 45 -18.5 76.5t-6.5 57.5q0 97 68 154.5t187 57.5q75 0 130 -23
q19 36 24 69h111q-14 -57 -64 -117zM371 492q-32 15 -78 15q-73 0 -116 -36.5t-43 -98.5q0 -22 5 -52t6 -38l6 -34q14 61 43 101t71 50q66 49 106 93zM327.5 281q11.5 12 11.5 31q0 18 -11.5 29.5t-30.5 11.5q-18 0 -29.5 -11.5t-11.5 -29.5q0 -19 11.5 -31t29.5 -12
q19 0 30.5 12z" />
    <glyph glyph-name="uni0E29" unicode="&#xe29;" horiz-adv-x="691" 
d="M596 251v-124q0 -65 -59 -101t-166 -36q-104 0 -165 36.5t-61 100.5v254q-10 -3 -21 -3q-46 0 -75 29.5t-29 75.5q0 45 30.5 74t79.5 29q50 0 82 -30.5t32 -78.5v-338q0 -32 35 -51t92 -19q61 0 93.5 18.5t32.5 51.5v78q-20 -3 -41 -3q-51 0 -91.5 16.5t-63 46
t-22.5 66.5q0 39 25 63.5t65 24.5t64.5 -23t24.5 -60q0 -21 -8 -38.5t-22 -26.5q15 -5 31 -5q22 0 38 4v294h99v-242q33 29 53 70l51 -42q-33 -70 -104 -111zM157.5 449q12.5 13 12.5 33t-12.5 33t-33.5 13q-20 0 -33 -13t-13 -33t13 -33t33 -13q21 0 33.5 13zM395 316
q11 11 11 28t-10.5 27.5t-27.5 10.5q-16 0 -27 -10.5t-11 -27.5t11 -28t27 -11t27 11z" />
    <glyph glyph-name="uni0E2A" unicode="&#xe2a;" horiz-adv-x="587" 
d="M476 518q40 -43 40 -106v-412h-98v222q0 43 -39.5 67.5t-90.5 24.5t-85 -24t-34 -65v-30q10 3 21 3q46 0 74.5 -29t28.5 -76q0 -45 -30.5 -74t-79.5 -29q-50 0 -81.5 30.5t-31.5 79.5v125q0 62 41.5 103.5t109.5 54.5q78 56 131 113q-31 11 -72 11q-61 0 -102 -24.5
t-49 -66.5h-96q6 78 72.5 124t174.5 46q70 0 127 -22q22 36 27 68h111q-8 -52 -69 -114zM418 415q0 22 -11 41q-36 -30 -98 -70q68 -9 109 -48v77zM222.5 127q-12.5 13 -32.5 13q-21 0 -34 -13t-13 -33t13 -33t34 -13q20 0 32.5 13t12.5 33t-12.5 33z" />
    <glyph glyph-name="uni0E2B" unicode="&#xe2b;" horiz-adv-x="639" 
d="M572.5 434q-11.5 -22 -32.5 -36q29 -31 29 -84v-314h-100v309q0 41 -23 41q-20 0 -38 -34l-176 -316h-87v381q-10 -3 -21 -3q-46 0 -75 29.5t-29 75.5q0 45 30.5 74t79.5 29q50 0 82 -30.5t32 -78.5v-249q0 -33 -4 -60t-5 -34l120 221q20 39 50 53q-30 30 -30 75t29 74
t75 29q45 0 75 -29t30 -74q0 -27 -11.5 -49zM157.5 449q12.5 13 12.5 33t-12.5 33t-33.5 13q-20 0 -33 -13t-13 -33t13 -33t33 -13q21 0 33.5 13zM446 515q-13 -13 -13 -33t13 -33t33 -13t33 13t13 33t-13 33t-33 13t-33 -13z" />
    <glyph glyph-name="uni0E2C" unicode="&#xe2c;" horiz-adv-x="726" 
d="M647 545q9 -21 9 -46v-499h-113l-142 279l-142 -279h-113v381q-10 -3 -22 -3q-46 0 -75 29.5t-29 75.5q0 45 30.5 74t79.5 29q50 0 82 -30.5t32 -78.5v-263q0 -32 -5 -89l126 245h73l125 -245q-5 57 -5 89v189q-10 -3 -22 -3q-46 0 -74.5 29t-28.5 76q0 45 30.5 74
t79.5 29q23 0 45 -8q15 17 18 44h99q-9 -59 -58 -99zM570 471q13 13 13 33t-13 33t-33 13q-21 0 -33.5 -13t-12.5 -33t12.5 -33t33.5 -13q20 0 33 13zM157.5 449q12.5 13 12.5 33t-12.5 33t-33.5 13q-20 0 -33 -13t-13 -33t13 -33t33 -13q21 0 33.5 13z" />
    <glyph glyph-name="uni0E2D" unicode="&#xe2d;" horiz-adv-x="592" 
d="M411 564.5q53 -21.5 81.5 -61t28.5 -91.5v-277q0 -69 -57 -107t-158 -38t-157 38.5t-56 106.5v150q0 48 31 78t81 30q49 0 79 -28.5t30 -74.5q0 -45 -28.5 -73.5t-73.5 -28.5q-9 0 -21 2v-48q0 -35 31.5 -54t86.5 -19t84 20.5t29 57.5v263q0 44 -37 70.5t-99 26.5
q-60 0 -101 -24.5t-49 -66.5h-96q7 78 75 124t173 46q70 0 123 -21.5zM178 323.5q-13 -12.5 -13 -32.5t13 -33t33 -13t33 13t13 33t-13 32.5t-33 12.5t-33 -12.5z" />
    <glyph glyph-name="uni0E2E" unicode="&#xe2e;" horiz-adv-x="571" 
d="M485 465q11 -30 11 -62v-265q0 -70 -57.5 -109t-159.5 -39t-159.5 39.5t-57.5 108.5v120q0 49 31 79t81 30q49 0 79.5 -28.5t30.5 -73.5t-29 -73.5t-74 -28.5q-9 0 -21 2v-23q0 -35 32.5 -54t87.5 -19q58 0 87.5 21t29.5 58v257v6q-69 -25 -155 -25t-138 25.5t-52 71.5
q0 47 57 75t150 28q113 0 178 -54q14 24 15 57h91q-6 -75 -58 -124zM376 479q-35 44 -124 44q-51 0 -81.5 -11t-30.5 -28q0 -15 26 -22.5t71 -7.5q88 0 139 25zM147.5 297.5q-12.5 -12.5 -12.5 -32.5q0 -21 13 -33.5t33 -12.5t32.5 12.5t12.5 33.5q0 20 -12.5 32.5
t-32.5 12.5q-21 0 -33.5 -12.5z" />
    <glyph glyph-name="uni0E2F" unicode="&#xe2f;" horiz-adv-x="555" 
d="M460.5 552q24.5 -24 24.5 -67v-485h-99v464q0 30 -28 31q-31 -63 -83 -99t-115 -36q-62 0 -99.5 32.5t-37.5 85.5q0 49 30.5 78.5t80.5 29.5q49 0 79.5 -29.5t30.5 -74.5q0 -17 -7 -33q33 17 54 50t28 77h73q44 0 68.5 -24zM166 449q13 13 13 33t-13 33t-33 13t-33.5 -13
t-13.5 -33t13.5 -33t33.5 -13t33 13z" />
    <glyph glyph-name="uni0E30" unicode="&#xe30;" horiz-adv-x="539" 
d="M141 337.5q-45 16.5 -71 47t-26 70.5q0 46 32 76.5t79 30.5q46 0 77.5 -30.5t31.5 -76.5q0 -38 -28 -62q5 0 5 1q71 2 107 46t38 126h99q-2 -71 -31.5 -126.5t-84 -87t-128.5 -31.5q-55 0 -100 16.5zM186.5 426q12.5 12 12.5 32q0 21 -12.5 33t-32.5 12t-32 -12t-12 -33
q0 -20 12 -32t32 -12t32.5 12zM141 34q-45 17 -71 47.5t-26 70.5q0 46 32 76.5t79 30.5q46 0 77.5 -30.5t31.5 -76.5q0 -20 -7 -35t-21 -29l5 1q142 9 145 173h99q-2 -71 -31.5 -126.5t-84 -87t-128.5 -31.5q-55 0 -100 17zM186.5 122.5q12.5 12.5 12.5 32.5t-12.5 32
t-32.5 12t-32 -12t-12 -32t12 -32.5t32 -12.5t32.5 12.5z" />
    <glyph glyph-name="uni0E31" unicode="&#xe31;" 
d="M78 922q0 -74 -33.5 -129.5t-92 -85.5t-132.5 -30q-60 0 -105 17.5t-69 48t-24 69.5q0 44 29 71.5t74 27.5t73.5 -27.5t28.5 -72.5q0 -44 -27 -71q5 -1 17 -1q83 0 130 51.5t48 131.5h83zM-308.5 781q13.5 -13 33.5 -13q19 0 32 13t13 32q0 20 -13 32.5t-32 12.5
q-20 0 -33.5 -13t-13.5 -32t13.5 -32z" />
    <glyph glyph-name="uni0E32" unicode="&#xe32;" horiz-adv-x="493" 
d="M324 420q0 41 -26 64t-72 23q-48 0 -76.5 -27.5t-28.5 -74.5h-96q0 85 54 133t147 48q92 0 144.5 -43t52.5 -119v-424h-99v420z" />
    <glyph glyph-name="uni0E33" unicode="&#xe33;" horiz-adv-x="493" 
d="M-212 697q-34 33 -34 85t34 85t88 33t88 -33t34 -85t-34 -85t-88 -33t-88 33zM-81 738q17 17 17 44q0 26 -17 43t-43 17t-43 -17t-17 -43q0 -27 17 -44t43 -17t43 17zM324 420q0 41 -26 64t-72 23q-48 0 -76.5 -27.5t-28.5 -74.5h-96q0 85 54 133t147 48q92 0 144.5 -43
t52.5 -119v-424h-99v420z" />
    <glyph glyph-name="uni0E34" unicode="&#xe34;" 
d="M-234 703.5q-100 16.5 -192 16.5q-57 0 -105 -8q3 86 63 137.5t158 51.5q108 0 173 -64t73 -178q-70 28 -170 44.5zM-212.5 814q-41.5 26 -96.5 26q-49 0 -83.5 -19t-46.5 -50q17 2 55 2q62 0 124.5 -9.5t109.5 -26.5q-21 51 -62.5 77z" />
    <glyph glyph-name="uni0E35" unicode="&#xe35;" 
d="M-64 659q-70 28 -170 44.5t-192 16.5q-57 0 -105 -8q3 86 63 137.5t158 51.5q93 0 155 -48v100h84v-244q6 -32 7 -50zM-259.5 763.5q62.5 -9.5 109.5 -26.5q-21 51 -62.5 77t-96.5 26q-49 0 -83.5 -19t-46.5 -50q17 2 55 2q62 0 124.5 -9.5z" />
    <glyph glyph-name="uni0E36" unicode="&#xe36;" 
d="M-48 815.5q-20 -22.5 -53 -25.5q31 -53 37 -131q-70 28 -170 44.5t-192 16.5q-57 0 -105 -8q3 86 63 137.5t158 51.5q63 0 114 -23q2 33 25 54t59 21q37 0 60.5 -23t23.5 -59q0 -33 -20 -55.5zM-86 845q10 10 10 26t-10 26.5t-26 10.5t-26 -10.5t-10 -26.5t10 -26t26 -10
t26 10zM-259.5 763.5q62.5 -9.5 109.5 -26.5q-21 51 -62.5 77t-96.5 26q-49 0 -83.5 -19t-46.5 -50q17 2 55 2q62 0 124.5 -9.5z" />
    <glyph glyph-name="uni0E37" unicode="&#xe37;" 
d="M-64 659q-70 28 -170 44.5t-192 16.5q-57 0 -105 -8q3 86 63 137.5t158 51.5q22 0 42 -3v55h68v-73q35 -15 60 -40v113h69v-244q6 -32 7 -50zM-259.5 763.5q62.5 -9.5 109.5 -26.5q-21 51 -62.5 77t-96.5 26q-49 0 -83.5 -19t-46.5 -50q17 2 55 2q62 0 124.5 -9.5z" />
    <glyph glyph-name="uni0E38" unicode="&#xe38;" 
d="M-157 -229q-5 -2 -13 -3t-16 -1q-37 0 -61 24t-24 62t27.5 62.5t69.5 24.5q47 0 75 -24.5t28 -61.5v-192h-86v109zM-157.5 -173.5q10.5 10.5 10.5 26.5q0 17 -10.5 27.5t-26.5 10.5t-26.5 -10.5t-10.5 -27.5q0 -16 10.5 -26.5t26.5 -10.5t26.5 10.5z" />
    <glyph glyph-name="uni0E39" unicode="&#xe39;" 
d="M-287 -314.5q-32 23.5 -32 64.5v25q-11 -3 -28 -3q-37 0 -59.5 23t-22.5 61q0 37 25.5 60.5t65.5 23.5q43 0 69.5 -22.5t26.5 -57.5v-102q0 -15 12 -25t33 -10q22 0 33.5 9.5t11.5 25.5v177h81v-185q0 -41 -33.5 -64.5t-93.5 -23.5q-57 0 -89 23.5zM-319 -170
q10 10 10 26t-10 26t-26 10t-26.5 -10t-10.5 -26t10.5 -26t26.5 -10t26 10z" />
    <glyph glyph-name="uni0E3A" unicode="&#xe3a;" 
d="M-165 -165q-17 17 -17 44t17 44t44 17t44 -17t17 -44t-17 -44t-44 -17t-44 17z" />
    <glyph glyph-name="uni0E3F" unicode="&#xe3f;" horiz-adv-x="594" 
d="M332 0v-80h-89v80h-166v700h166v69h89v-72q189 -18 189 -167q0 -56 -25 -93.5t-78 -59.5v-3q69 -21 100 -62t31 -110q0 -194 -217 -202zM186 410h109q57 0 87 28.5t30 81.5q0 49 -32.5 71.5t-103.5 22.5h-90v-204zM409 116.5q32 30.5 32 89.5q0 64 -39.5 93.5
t-125.5 29.5h-90v-243h129q62 0 94 30.5z" />
    <glyph glyph-name="uni0E40" unicode="&#xe40;" horiz-adv-x="315" 
d="M270.5 168.5q28.5 -29.5 28.5 -75.5q0 -45 -30.5 -74t-79.5 -29q-50 0 -81.5 30.5t-31.5 79.5v476h99v-381q11 3 21 3q46 0 74.5 -29.5zM228.5 61q12.5 13 12.5 33t-12.5 33t-33.5 13q-20 0 -33 -13t-13 -33t13 -33t33 -13q21 0 33.5 13z" />
    <glyph glyph-name="uni0E41" unicode="&#xe41;" horiz-adv-x="591" 
d="M270.5 168.5q28.5 -29.5 28.5 -75.5q0 -45 -30.5 -74t-79.5 -29q-50 0 -81.5 30.5t-31.5 79.5v476h99v-381q11 3 21 3q46 0 74.5 -29.5zM228.5 61q12.5 13 12.5 33t-12.5 33t-33.5 13q-20 0 -33 -13t-13 -33t13 -33t33 -13q21 0 33.5 13zM546.5 168.5
q28.5 -29.5 28.5 -75.5q0 -45 -30.5 -74t-79.5 -29q-50 0 -81.5 30.5t-31.5 79.5v476h99v-381q11 3 21 3q46 0 74.5 -29.5zM504.5 61q12.5 13 12.5 33t-12.5 33t-33.5 13q-20 0 -33 -13t-13 -33t13 -33t33 -13q21 0 33.5 13z" />
    <glyph glyph-name="uni0E42" unicode="&#xe42;" horiz-adv-x="389" 
d="M330 168.5q29 -29.5 29 -75.5q0 -45 -30.5 -74t-79.5 -29q-50 0 -81.5 30.5t-31.5 79.5v595q0 29 -28 53.5t-70.5 39.5t-83.5 17q0 56 22 95t57 58.5t75 19.5q29 0 52.5 -7.5t53.5 -21.5q32 -16 46 -16q12 0 20.5 10.5t11.5 28.5l70 -14q-8 -45 -31.5 -72.5t-60.5 -27.5
q-19 0 -38 5.5t-44 16.5q-25 10 -40 15t-31 5q-24 0 -40.5 -12t-20.5 -33q179 -49 179 -153v-507q9 3 21 3q45 0 74 -29.5zM288.5 61q12.5 13 12.5 33t-12.5 33t-32.5 13q-21 0 -34 -13t-13 -33t13 -33t34 -13q20 0 32.5 13z" />
    <glyph glyph-name="uni0E43" unicode="&#xe43;" horiz-adv-x="394" 
d="M338.5 168.5q29.5 -29.5 29.5 -75.5q0 -45 -30.5 -74t-79.5 -29q-50 0 -82 30.5t-32 79.5v548q0 39 9.5 67.5t26.5 64.5q13 26 18 40t5 30q0 33 -24.5 51.5t-63.5 18.5q-47 0 -73 -28h6q38 0 63.5 -24.5t25.5 -63.5q0 -40 -27.5 -66t-72.5 -26t-73.5 28t-28.5 81
q0 47 22.5 85.5t65 61t98.5 22.5q76 0 128 -37.5t52 -101.5q0 -23 -6 -40.5t-19 -42.5q-15 -28 -23.5 -53.5t-8.5 -62.5v-456q12 2 21 2q44 0 73.5 -29.5zM67.5 831.5q-11.5 11.5 -29.5 11.5t-29.5 -11.5t-11.5 -29.5t11.5 -29.5t29.5 -11.5t29.5 11.5t11.5 29.5t-11.5 29.5
zM297 61q13 13 13 33t-13 33t-33 13t-33 -13t-13 -33t13 -33t33 -13t33 13z" />
    <glyph glyph-name="uni0E44" unicode="&#xe44;" horiz-adv-x="410" 
d="M355 168.5q29 -29.5 29 -75.5q0 -45 -30.5 -74t-79.5 -29q-50 0 -82 30.5t-32 79.5v763l-108 -154l-78 26q-7 99 -39 263h80q23 -114 28 -193l123 178h94v-788q11 3 21 3q45 0 74 -29.5zM313 61q13 13 13 33t-13 33t-33 13t-33 -13t-13 -33t13 -33t33 -13t33 13z" />
    <glyph glyph-name="uni0E45" unicode="&#xe45;" horiz-adv-x="297" 
d="M128 420q0 40 -26.5 63.5t-70.5 23.5q-49 0 -77.5 -27.5t-28.5 -74.5h-96q0 85 54 133t148 48q91 0 143 -43t52 -119v-674h-98v670z" />
    <glyph glyph-name="uni0E46" unicode="&#xe46;" horiz-adv-x="636" 
d="M546 411v-661h-100v661q0 32 -11 53t-36 38l-80 -58l-92 58q-20 -13 -32.5 -35.5t-16.5 -48.5q10 3 22 3q50 0 81.5 -29.5t31.5 -76.5q0 -46 -32 -75.5t-81 -29.5q-59 0 -90.5 39.5t-31.5 107.5q0 77 40 142t111 87l89 -60l80 60q148 -43 148 -175zM234 347.5
q-13 12.5 -34 12.5q-20 0 -32.5 -12.5t-12.5 -33.5q0 -20 12.5 -32.5t32.5 -12.5q21 0 34 12.5t13 32.5q0 21 -13 33.5z" />
    <glyph glyph-name="uni0E47" unicode="&#xe47;" 
d="M-119.5 822.5q22.5 -20.5 22.5 -54.5q0 -36 -24.5 -58.5t-67.5 -22.5q-35 0 -73 18t-69 50q-16 -9 -35.5 -29.5t-36.5 -44.5q-40 15 -62.5 51.5t-22.5 79.5q0 55 42 91t108 36h102q63 0 65 92h75q0 -75 -34 -116.5t-102 -41.5h-112q-29 0 -47.5 -17t-18.5 -44
q0 -12 4 -25.5t11 -22.5q14 18 35 33t41 22q26 -31 66 -58q-1 3 -1 10q0 32 22 52t56 20t56.5 -20.5zM-153.5 744.5q9.5 9.5 9.5 22.5q0 14 -9 23t-23 9t-22.5 -9t-8.5 -23t9 -23t22 -9t22.5 9.5z" />
    <glyph glyph-name="uni0E48" unicode="&#xe48;" 
d="M-165 903h92v-216h-92v216z" />
    <glyph glyph-name="uni0E49" unicode="&#xe49;" 
d="M33 950q-8 -79 -55 -138.5t-123 -92t-170 -32.5h-42v45q23 9 47.5 25.5t42.5 37.5h-11q-39 0 -61 23t-22 61q0 37 25.5 60t64.5 23t64.5 -25t25.5 -66q0 -29 -13.5 -61t-37.5 -55q74 13 123 69t56 126h86zM-297.5 850.5q10.5 -10.5 26.5 -10.5t26 10.5t10 26.5t-10 26
t-26 10t-26.5 -10t-10.5 -26t10.5 -26.5z" />
    <glyph glyph-name="uni0E4A" unicode="&#xe4a;" 
d="M12 941q0 -117 -65.5 -185.5t-180.5 -68.5v50q20 11 33 36t13 51q0 23 -9.5 40.5t-26.5 24.5l-61 -44l-61 43q-23 -13 -40 -45q2 1 8 1q35 0 57.5 -22t22.5 -56q0 -35 -22.5 -57t-57.5 -22q-43 0 -65.5 28t-22.5 72q0 57 33 103.5t88 57.5l60 -44l62 43q50 -7 76 -39
t26 -76t-32 -82q81 42 81 191h84zM-354.5 790q-9.5 9 -24.5 9q-16 0 -25 -9t-9 -24q0 -16 9 -25t25 -9q15 0 24.5 9t9.5 25q0 15 -9.5 24z" />
    <glyph glyph-name="uni0E4B" unicode="&#xe4b;" 
d="M12 770h-87v-83h-88v83h-88v67h88v82h88v-82h87v-67z" />
    <glyph glyph-name="uni0E4C" unicode="&#xe4c;" 
d="M-1 976q0 -44 -26 -67t-84 -43l-46 -15q35 -27 35 -72q0 -40 -27 -66t-68 -26q-42 0 -68 27t-26 70q0 41 24 66t48.5 35t86.5 30q37 12 55 24t19 37h77zM-186.5 749q10.5 11 10.5 28t-10.5 28t-26.5 11q-17 0 -27.5 -11t-10.5 -28t10.5 -28t27.5 -11q16 0 26.5 11z" />
    <glyph glyph-name="uni0E4D" unicode="&#xe4d;" 
d="M-212 697q-34 33 -34 85t34 85t88 33t88 -33t34 -85t-34 -85t-88 -33t-88 33zM-81 738q17 17 17 44q0 26 -17 43t-43 17t-43 -17t-17 -43q0 -27 17 -44t43 -17t43 17z" />
    <glyph glyph-name="uni0E4E" unicode="&#xe4e;" 
d="M-276 704.5q-30 23.5 -30 62.5q0 36 25.5 60.5t70.5 30.5q-14 9 -22 25t-8 34q0 39 35 64t92 25q44 0 83 -18l-20 -54q-33 13 -64 13q-25 0 -38.5 -9.5t-13.5 -26.5q0 -19 18.5 -31t58.5 -19l-21 -46q-27 9 -53 9q-33 0 -51.5 -12.5t-18.5 -34.5q0 -20 16.5 -31t42.5 -11
q24 0 52 12l3 -50q-35 -16 -77 -16q-50 0 -80 23.5z" />
    <glyph glyph-name="uni0E4F" unicode="&#xe4f;" horiz-adv-x="623" 
d="M182 23q-57 32 -89.5 89t-32.5 130q0 72 32.5 129t89.5 89t130 32t130 -32t89 -89t32 -129q0 -73 -32 -130t-89 -89t-130 -32t-130 32zM414 69.5q45 25.5 70 70.5t25 102t-25 102t-70 70t-102 25t-102 -25t-70.5 -70t-25.5 -102t25.5 -102t70.5 -70.5t102 -25.5t102 25.5
zM209 138.5q-40 40.5 -40 103.5q0 62 40 102.5t103 40.5q62 0 102 -40.5t40 -102.5q0 -63 -40 -103.5t-102 -40.5q-63 0 -103 40.5zM379.5 174q26.5 27 26.5 68t-26.5 67.5t-67.5 26.5t-68 -26.5t-27 -67.5t27 -68t68 -27t67.5 27z" />
    <glyph glyph-name="uni0E50" unicode="&#xe50;" horiz-adv-x="662" 
d="M184.5 18.5q-63.5 28.5 -99 79t-35.5 114.5t35.5 114.5t99 79t146.5 28.5t146.5 -28.5t99 -79t35.5 -114.5t-35.5 -114.5t-99 -79t-146.5 -28.5t-146.5 28.5zM465.5 107q51.5 40 51.5 105t-51.5 105.5t-134.5 40.5t-134.5 -40.5t-51.5 -105.5t51.5 -105t134.5 -40
t134.5 40z" />
    <glyph glyph-name="uni0E51" unicode="&#xe51;" horiz-adv-x="681" 
d="M487 404q67 -30 105.5 -88t38.5 -137q0 -56 -20.5 -111t-57.5 -92h-107q43 37 66.5 89t23.5 107q0 57 -26 99t-71.5 64.5t-102.5 22.5q-55 0 -98.5 -20t-68 -56.5t-24.5 -83.5q0 -61 34 -100.5t90 -39.5q29 0 51 12.5t32 34.5q-12 -2 -20 -2q-41 0 -68.5 26.5t-27.5 67.5
t28 67.5t73 26.5q49 0 78.5 -32t29.5 -84q0 -50 -24 -92.5t-68 -67.5t-101 -25q-61 0 -107 26.5t-70.5 74t-24.5 109.5q0 71 37.5 124t102.5 81.5t147 28.5q83 0 150 -30zM305 164q13 -13 32 -13q20 0 33.5 13t13.5 32q0 20 -13.5 33.5t-33.5 13.5q-19 0 -32 -13.5
t-13 -33.5q0 -19 13 -32z" />
    <glyph glyph-name="uni0E52" unicode="&#xe52;" horiz-adv-x="695" 
d="M612.5 380q33.5 -54 33.5 -149q0 -123 -70 -182t-214 -59q-146 0 -222.5 53t-76.5 157v288q0 18 -10.5 28t-29.5 12v80h42q93 0 93 -92v-316q0 -69 52 -101t154 -32q106 0 150 41.5t44 127.5q0 57 -13.5 93t-40.5 36q-22 0 -36 -19t-16 -48h-46q-5 32 -21 50t-40 18
t-40 -15t-23 -40q14 6 30 6q40 0 65.5 -26t25.5 -66t-28 -65.5t-71 -25.5q-50 0 -78 34t-28 93q0 76 38.5 124.5t101.5 48.5q30 0 53.5 -14.5t36.5 -43.5q11 28 33 43t52 15q66 0 99.5 -54zM335.5 256.5q-11.5 11.5 -29.5 11.5t-29.5 -11.5t-11.5 -30.5q0 -17 11.5 -28.5
t29.5 -11.5t29.5 11.5t11.5 28.5q0 19 -11.5 30.5z" />
    <glyph glyph-name="uni0E53" unicode="&#xe53;" horiz-adv-x="699" 
d="M603 395q36 -39 36 -108v-287h-95v286q0 72 -59 72q-33 0 -51 -23t-18 -56v-279h-88v270q0 37 -21.5 62.5t-57.5 25.5q-96 0 -101 -149q-1 -10 -0.5 -21t0.5 -15q20 15 46 15q41 0 67.5 -28.5t26.5 -72.5q0 -43 -29.5 -70t-75.5 -27q-64 0 -98.5 52.5t-34.5 151.5
q0 112 51 176t139 64q49 0 83 -19.5t50 -54.5q16 35 48 54.5t77 19.5q69 0 105 -39zM153 122q-13 -13 -13 -33q0 -19 13.5 -32.5t32.5 -13.5q20 0 33 13t13 33t-13 33t-33 13t-33 -13z" />
    <glyph glyph-name="uni0E54" unicode="&#xe54;" horiz-adv-x="681" 
d="M547 9.5q-35 10.5 -59 10.5q-14 0 -84 -12q-36 -6 -76 -12t-66 -6q-95 0 -153.5 56t-58.5 156q0 112 74 170t213 62q84 2 117 6t62 15q35 15 60.5 54.5t29.5 98.5h86q-11 -97 -49.5 -149.5t-102.5 -76.5q-32 -12 -69.5 -15t-103.5 -4h-30q-88 0 -140 -39t-52 -123
q0 -65 35.5 -102t95.5 -37q57 0 125 14q-73 16 -111 52t-38 86q0 44 29.5 70.5t74.5 26.5q44 0 72.5 -26t28.5 -65q0 -28 -15.5 -53t-38.5 -35q14 -5 81 -24q64 -18 103 -31.5t76 -35.5l-40 -62q-41 20 -76 30.5zM386.5 183.5q12.5 12.5 12.5 32.5t-12.5 32t-32.5 12
t-32 -12t-12 -32t12 -32.5t32 -12.5t32.5 12.5z" />
    <glyph glyph-name="uni0E55" unicode="&#xe55;" horiz-adv-x="681" 
d="M441.5 167q-15.5 -25 -38.5 -35q14 -5 81 -24q64 -18 103 -31.5t76 -35.5l-40 -62q-41 20 -76 30.5t-59 10.5q-14 0 -84 -12q-36 -6 -76 -12t-66 -6q-95 0 -153.5 56t-58.5 156q0 102 61 159t177 70q-16 26 -16 53q0 46 29 75t75 29q47 0 77 -29t30 -75q0 -19 -10 -41
q28 6 43 12q35 15 60.5 54.5t29.5 98.5h86q-11 -97 -49.5 -149.5t-102.5 -76.5q-32 -12 -69.5 -15t-103.5 -4h-30q-88 0 -140 -39t-52 -123q0 -65 35.5 -102t95.5 -37q57 0 125 14q-73 16 -111 52t-38 86q0 44 29.5 70.5t74.5 26.5q44 0 72.5 -26t28.5 -65q0 -28 -15.5 -53z
M342.5 519q-13.5 -13 -13.5 -34q0 -20 13.5 -33.5t33.5 -13.5q22 0 35.5 13.5t13.5 33.5q0 21 -13.5 34t-35.5 13q-20 0 -33.5 -13zM386.5 183.5q12.5 12.5 12.5 32.5t-12.5 32t-32.5 12t-32 -12t-12 -32t12 -32.5t32 -12.5t32.5 12.5z" />
    <glyph glyph-name="uni0E56" unicode="&#xe56;" horiz-adv-x="674" 
d="M165.5 28q-59.5 38 -59.5 105q0 44 29.5 72t74.5 28q46 0 75.5 -27.5t29.5 -70.5q0 -20 -8.5 -38.5t-20.5 -29.5q22 -3 43 -3q93 0 147 38.5t54 110.5q0 70 -49 107.5t-125 37.5q-61 0 -111.5 -20t-83.5 -54h-61q-5 97 -27 187t-53 137h100q23 -47 38 -107t18 -120
q37 25 83.5 39t98.5 14q76 0 136.5 -26t95 -75.5t34.5 -116.5t-36 -118t-103 -79.5t-156 -28.5q-104 0 -163.5 38zM243.5 99.5q13.5 13.5 13.5 33.5t-13.5 33.5t-33.5 13.5t-33 -13.5t-13 -33.5t13 -33.5t33 -13.5t33.5 13.5z" />
    <glyph glyph-name="uni0E57" unicode="&#xe57;" horiz-adv-x="760" 
d="M740 608q-17 -45 -21 -96.5t-5 -146.5q-1 -17 -1 -51q-2 -300 -238 -320l-45 33q47 124 47 225q0 48 -15 75t-42 27t-40 -22t-13 -58v-85h-78v85q0 31 -17 55.5t-45 24.5q-36 0 -56.5 -36t-22.5 -108q-1 -10 -0.5 -21t0.5 -16q17 14 45 14q42 0 69 -28t27 -72
q0 -43 -29.5 -70t-76.5 -27q-65 0 -99 54.5t-34 151.5q0 110 46 174t125 64q35 0 64 -19.5t44 -56.5q30 76 103 76q66 0 101.5 -47.5t35.5 -136.5q0 -77 -29 -158q46 31 65 82t19 146v82q0 73 5 122.5t21 83.5h90zM154 121.5q-13 -13.5 -13 -33.5t13 -33t33 -13t33.5 13
t13.5 33t-13.5 33.5t-33.5 13.5t-33 -13.5z" />
    <glyph glyph-name="uni0E58" unicode="&#xe58;" horiz-adv-x="677" 
d="M599.5 233.5q29.5 -30.5 29.5 -80.5q0 -71 -44 -117t-123 -46q-52 0 -96.5 27t-88.5 84q-17 -11 -43.5 -43.5t-39.5 -57.5h-56q-44 31 -66 82.5t-22 119.5q0 113 68 172.5t195 59.5q12 0 67 -5q38 -4 47 -4q54 0 81.5 35t27.5 103v45h91v-50q0 -103 -47.5 -159
t-138.5 -56q-21 0 -61 5q-13 1 -35 3t-33 2q-167 0 -167 -147q0 -31 8 -63.5t21 -47.5q56 74 129 108q23 -56 70 -98.5t91 -42.5q27 0 46 12q-37 0 -61.5 26.5t-24.5 67.5q0 43 27.5 69.5t71.5 26.5q47 0 76.5 -30.5zM556.5 136q12.5 13 12.5 33t-12.5 32.5t-32.5 12.5
q-21 0 -33.5 -12.5t-12.5 -32.5t12.5 -33t33.5 -13q20 0 32.5 13z" />
    <glyph glyph-name="uni0E59" unicode="&#xe59;" horiz-adv-x="695" 
d="M527 165q50 -70 108 -119l-56 -56q-67 60 -126.5 143.5t-85.5 159.5q-8 24 -37.5 43t-64.5 19q-54 0 -87 -41t-33 -105q0 -71 38 -108q-1 3 -1 10q0 34 28 58.5t67 24.5q45 0 74 -28t29 -72q0 -46 -34.5 -75t-88.5 -29q-64 0 -110.5 29.5t-71.5 79.5t-25 111q0 62 26 113
t74 81t113 30q38 0 75 -14.5t63 -43.5q4 26 21 42t40 16q17 0 31 -7.5t31 -20.5q13 -10 21.5 -15t16.5 -5q17 0 25 24.5t8 64.5q0 59 -14 133h76q12 -70 12 -132q0 -157 -95 -157q-19 0 -32.5 6.5t-29.5 18.5q-21 15 -32 15q-13 0 -20 -11.5t-10 -33.5q27 -79 77 -149z
M243.5 127q-13.5 -13 -13.5 -33t13 -33t33 -13t33 13t13 33t-13 33t-33 13q-19 0 -32.5 -13z" />
    <glyph glyph-name="uni0E5A" unicode="&#xe5a;" horiz-adv-x="788" 
d="M693.5 552q24.5 -24 24.5 -67v-485h-99v464q0 29 -29 31q-38 -82 -105 -114v-381h-99v464q0 30 -28 31q-31 -63 -83 -99t-115 -36q-62 0 -99.5 32.5t-37.5 85.5q0 49 30.5 78.5t80.5 29.5q49 0 79.5 -29.5t30.5 -74.5q0 -17 -7 -33q33 17 54 50t28 77h73q44 0 68.5 -24
t24.5 -67v-23q26 20 43.5 49.5t23.5 64.5h73q44 0 68.5 -24zM166 449q13 13 13 33t-13 33t-33 13t-33.5 -13t-13.5 -33t13.5 -33t33.5 -13t33 13z" />
    <glyph glyph-name="uni0E5B" unicode="&#xe5b;" horiz-adv-x="1032" 
d="M997 290v-58h-113l-37 64l-45 -107h-49l-43 101l-41 -117h-65l-39 100q-8 -82 -44 -139.5t-92.5 -87t-124.5 -29.5q-71 0 -124 31.5t-81.5 89.5t-28.5 134q0 112 55 177.5t148 65.5q78 0 121 -47t43 -130q0 -71 -33 -115.5t-89 -44.5q-42 0 -68 25.5t-26 64.5
q0 40 25 64.5t64 24.5q34 0 54 -17v4q0 46 -23 70.5t-68 24.5q-55 0 -87.5 -46.5t-32.5 -123.5q0 -81 40 -128t111 -47q56 0 100 29.5t69 81t25 116.5v89h92l48 -140l38 107h62l40 -97l37 84h56l42 -74h84zM339.5 240q10.5 11 10.5 27q0 17 -11 28t-27 11q-18 0 -28.5 -11
t-10.5 -28t10.5 -27.5t28.5 -10.5q17 0 27.5 11z" />
    <glyph glyph-name="uni1E0C" unicode="&#x1e0c;" horiz-adv-x="629" 
d="M77 700h231q139 0 209.5 -84.5t70.5 -251.5q0 -130 -31.5 -209.5t-99 -117t-177.5 -37.5h-203v700zM296 89q96 0 139.5 65t43.5 210q0 128 -42 187.5t-133 59.5h-118v-522h110zM262 -168.5q-16 15.5 -16 40.5t16 40.5t41 15.5t41 -15.5t16 -40.5t-16 -40.5t-41 -15.5
t-41 15.5z" />
    <glyph glyph-name="uni1E0D" unicode="&#x1e0d;" horiz-adv-x="547" 
d="M88 62q-56 72 -56 197q0 76 26 132.5t74 87.5t112 31q90 0 144 -72h2v304h99v-614q0 -96 3 -128h-92q-2 22 -2 75h-2q-23 -38 -65 -61.5t-89 -23.5q-98 0 -154 72zM354 103.5q36 35.5 36 96.5v95q0 62 -36.5 101t-95.5 39q-60 0 -93.5 -46.5t-33.5 -131.5
q0 -89 33.5 -139t93.5 -50t96 35.5zM239 -168.5q-16 15.5 -16 40.5t16 40.5t41 15.5t41 -15.5t16 -40.5t-16 -40.5t-41 -15.5t-41 15.5z" />
    <glyph glyph-name="uni1E0E" unicode="&#x1e0e;" horiz-adv-x="629" 
d="M77 700h231q139 0 209.5 -84.5t70.5 -251.5q0 -130 -31.5 -209.5t-99 -117t-177.5 -37.5h-203v700zM296 89q96 0 139.5 65t43.5 210q0 128 -42 187.5t-133 59.5h-118v-522h110zM142 -67h322v-67h-322v67z" />
    <glyph glyph-name="uni1E0F" unicode="&#x1e0f;" horiz-adv-x="547" 
d="M88 62q-56 72 -56 197q0 76 26 132.5t74 87.5t112 31q90 0 144 -72h2v304h99v-614q0 -96 3 -128h-92q-2 22 -2 75h-2q-23 -38 -65 -61.5t-89 -23.5q-98 0 -154 72zM354 103.5q36 35.5 36 96.5v95q0 62 -36.5 101t-95.5 39q-60 0 -93.5 -46.5t-33.5 -131.5
q0 -89 33.5 -139t93.5 -50t96 35.5zM119 -67h322v-67h-322v67z" />
    <glyph glyph-name="uni1E20" unicode="&#x1e20;" horiz-adv-x="642" 
d="M585 368v-368h-78l-15 43q-67 -53 -167 -53q-90 0 -156 43.5t-101 124.5t-35 192q0 109 38.5 190t108.5 125.5t164 44.5q80 0 141.5 -30t89.5 -84l-62 -58q-26 41 -68.5 62t-99.5 21q-96 0 -149 -71t-53 -200q0 -132 51 -204.5t143 -72.5q41 0 77.5 11.5t62.5 33.5v171
h-162v79h270zM180 834h322v-67h-322v67z" />
    <glyph glyph-name="uni1E21" unicode="&#x1e21;" horiz-adv-x="546" 
d="M489 500v-483q0 -122 -60.5 -185t-177.5 -63q-54 0 -102.5 12.5t-86.5 36.5l33 70q76 -37 152 -37q148 0 148 181v35q-20 -35 -58.5 -54t-89.5 -19q-101 0 -158 70t-57 194q0 118 56 185t154 67q52 0 91 -20.5t62 -58.5h2l10 69h82zM390 282q0 73 -33.5 113t-93.5 40
q-62 0 -97 -47.5t-35 -132.5q0 -87 34.5 -134.5t97.5 -47.5q60 0 93.5 36t33.5 101v72zM97 634h322v-67h-322v67z" />
    <glyph glyph-name="uni1E24" unicode="&#x1e24;" horiz-adv-x="683" 
d="M76 700h109v-301h313v301h109v-700h-109v310h-313v-310h-109v700zM301 -168.5q-16 15.5 -16 40.5t16 40.5t41 15.5t41 -15.5t16 -40.5t-16 -40.5t-41 -15.5t-41 15.5z" />
    <glyph glyph-name="uni1E25" unicode="&#x1e25;" horiz-adv-x="561" 
d="M57 742h99v-314q22 38 66 60t97 22q87 0 136 -58t49 -161v-291h-99v288q0 71 -27.5 109t-79.5 38q-62 0 -102 -45t-40 -117v-273h-99v742zM239 -168.5q-16 15.5 -16 40.5t16 40.5t41 15.5t41 -15.5t16 -40.5t-16 -40.5t-41 -15.5t-41 15.5z" />
    <glyph glyph-name="uni1E2A" unicode="&#x1e2a;" horiz-adv-x="683" 
d="M76 700h109v-301h313v301h109v-700h-109v310h-313v-310h-109v700zM233 -176q-40 35 -42 104h65q2 -35 23.5 -55t62.5 -20q38 0 61 19t25 56h65q-2 -66 -40 -102.5t-111 -36.5q-69 0 -109 35z" />
    <glyph glyph-name="uni1E2B" unicode="&#x1e2b;" horiz-adv-x="561" 
d="M57 742h99v-314q22 38 66 60t97 22q87 0 136 -58t49 -161v-291h-99v288q0 71 -27.5 109t-79.5 38q-62 0 -102 -45t-40 -117v-273h-99v742zM171 -176q-40 35 -42 104h65q2 -35 23.5 -55t62.5 -20q38 0 61 19t25 56h65q-2 -66 -40 -102.5t-111 -36.5q-69 0 -109 35z" />
    <glyph glyph-name="uni1E36" unicode="&#x1e36;" horiz-adv-x="554" 
d="M76 700h109v-611h336v-89h-445v700zM254 -168.5q-16 15.5 -16 40.5t16 40.5t41 15.5t41 -15.5t16 -40.5t-16 -40.5t-41 -15.5t-41 15.5z" />
    <glyph glyph-name="uni1E37" unicode="&#x1e37;" horiz-adv-x="294" 
d="M95 22.5q-29 32.5 -29 96.5v623h99v-623q0 -31 11.5 -44t37.5 -13q21 0 52 13l15 -57q-39 -28 -100 -28q-57 0 -86 32.5zM138 -168.5q-16 15.5 -16 40.5t16 40.5t41 15.5t41 -15.5t16 -40.5t-16 -40.5t-41 -15.5t-41 15.5z" />
    <glyph glyph-name="uni1E38" unicode="&#x1e38;" horiz-adv-x="554" 
d="M76 700h109v-611h336v-89h-445v700zM254 -168.5q-16 15.5 -16 40.5t16 40.5t41 15.5t41 -15.5t16 -40.5t-16 -40.5t-41 -15.5t-41 15.5zM-30 834h322v-67h-322v67z" />
    <glyph glyph-name="uni1E39" unicode="&#x1e39;" horiz-adv-x="294" 
d="M95 22.5q-29 32.5 -29 96.5v623h99v-623q0 -31 11.5 -44t37.5 -13q21 0 52 13l15 -57q-39 -28 -100 -28q-57 0 -86 32.5zM138 -168.5q-16 15.5 -16 40.5t16 40.5t41 15.5t41 -15.5t16 -40.5t-16 -40.5t-41 -15.5t-41 15.5zM-45 876h322v-67h-322v67z" />
    <glyph glyph-name="uni1E3A" unicode="&#x1e3a;" horiz-adv-x="554" 
d="M76 700h109v-611h336v-89h-445v700zM134 -67h322v-67h-322v67z" />
    <glyph glyph-name="uni1E3B" unicode="&#x1e3b;" horiz-adv-x="294" 
d="M95 22.5q-29 32.5 -29 96.5v623h99v-623q0 -31 11.5 -44t37.5 -13q21 0 52 13l15 -57q-39 -28 -100 -28q-57 0 -86 32.5zM18 -67h322v-67h-322v67z" />
    <glyph glyph-name="uni1E42" unicode="&#x1e42;" horiz-adv-x="804" 
d="M727 700v-700h-107v491l-180 -491h-76l-180 491v-491h-107v700h121l204 -570l204 570h121zM361 -168.5q-16 15.5 -16 40.5t16 40.5t41 15.5t41 -15.5t16 -40.5t-16 -40.5t-41 -15.5t-41 15.5z" />
    <glyph glyph-name="uni1E43" unicode="&#x1e43;" horiz-adv-x="841" 
d="M57 372q0 76 -5 128h88q4 -37 4 -88h3q19 45 61.5 71.5t96.5 26.5q53 0 91 -25.5t51 -71.5q21 45 63.5 71t95.5 26q83 0 129.5 -53.5t46.5 -147.5v-309h-99v300q0 62 -26.5 96t-75.5 34q-50 0 -81.5 -36.5t-31.5 -94.5v-299h-98v296q0 134 -98 134q-32 0 -58.5 -18
t-42.5 -49t-16 -67v-296h-98v372zM378 -168.5q-16 15.5 -16 40.5t16 40.5t41 15.5t41 -15.5t16 -40.5t-16 -40.5t-41 -15.5t-41 15.5z" />
    <glyph glyph-name="uni1E44" unicode="&#x1e44;" horiz-adv-x="688" 
d="M612 700v-700h-105l-322 523v-523h-109v700h111l316 -516v516h109zM303 770q-16 16 -16 40q0 25 16 40.5t41 15.5t41 -15.5t16 -40.5q0 -24 -16 -40t-41 -16t-41 16z" />
    <glyph glyph-name="uni1E45" unicode="&#x1e45;" horiz-adv-x="554" 
d="M56 372q0 93 -4 128h92q5 -37 5 -88h3q20 45 65.5 71.5t101.5 26.5q176 0 176 -228v-282h-99v283q0 75 -25 111t-77 36q-61 0 -100 -44t-39 -112v-274h-99v372zM235 570q-16 16 -16 40q0 25 16 40.5t41 15.5t41 -15.5t16 -40.5q0 -24 -16 -40t-41 -16t-41 16z" />
    <glyph glyph-name="uni1E46" unicode="&#x1e46;" horiz-adv-x="688" 
d="M612 700v-700h-105l-322 523v-523h-109v700h111l316 -516v516h109zM303 -168.5q-16 15.5 -16 40.5t16 40.5t41 15.5t41 -15.5t16 -40.5t-16 -40.5t-41 -15.5t-41 15.5z" />
    <glyph glyph-name="uni1E47" unicode="&#x1e47;" horiz-adv-x="554" 
d="M56 372q0 93 -4 128h92q5 -37 5 -88h3q20 45 65.5 71.5t101.5 26.5q176 0 176 -228v-282h-99v283q0 75 -25 111t-77 36q-61 0 -100 -44t-39 -112v-274h-99v372zM235 -168.5q-16 15.5 -16 40.5t16 40.5t41 15.5t41 -15.5t16 -40.5t-16 -40.5t-41 -15.5t-41 15.5z" />
    <glyph glyph-name="uni1E48" unicode="&#x1e48;" horiz-adv-x="688" 
d="M612 700v-700h-105l-322 523v-523h-109v700h111l316 -516v516h109zM183 -67h322v-67h-322v67z" />
    <glyph glyph-name="uni1E49" unicode="&#x1e49;" horiz-adv-x="554" 
d="M56 372q0 93 -4 128h92q5 -37 5 -88h3q20 45 65.5 71.5t101.5 26.5q176 0 176 -228v-282h-99v283q0 75 -25 111t-77 36q-61 0 -100 -44t-39 -112v-274h-99v372zM115 -67h322v-67h-322v67z" />
    <glyph glyph-name="uni1E5A" unicode="&#x1e5a;" horiz-adv-x="586" 
d="M77 700h225q116 0 173 -47.5t57 -142.5q0 -69 -33 -117.5t-93 -67.5v-2q20 -13 32.5 -28t20.5 -35l105 -260h-117l-86 222q-15 40 -37 53.5t-72 13.5h-66v-289h-109v700zM294 377q133 0 133 124q0 56 -33.5 83t-102.5 27h-105v-234h108zM253 -168.5q-16 15.5 -16 40.5
t16 40.5t41 15.5t41 -15.5t16 -40.5t-16 -40.5t-41 -15.5t-41 15.5z" />
    <glyph glyph-name="uni1E5B" unicode="&#x1e5b;" horiz-adv-x="366" 
d="M63 378q0 85 -3 122h93q4 -40 4 -88v-10h3q20 51 63.5 79.5t102.5 28.5q16 0 29 -3v-80q-7 2 -31 2q-44 0 -81.5 -25.5t-59 -69t-21.5 -95.5v-239h-99v378zM73 -168.5q-16 15.5 -16 40.5t16 40.5t41 15.5t41 -15.5t16 -40.5t-16 -40.5t-41 -15.5t-41 15.5z" />
    <glyph glyph-name="uni1E5C" unicode="&#x1e5c;" horiz-adv-x="586" 
d="M77 700h225q116 0 173 -47.5t57 -142.5q0 -69 -33 -117.5t-93 -67.5v-2q20 -13 32.5 -28t20.5 -35l105 -260h-117l-86 222q-15 40 -37 53.5t-72 13.5h-66v-289h-109v700zM294 377q133 0 133 124q0 56 -33.5 83t-102.5 27h-105v-234h108zM253 -168.5q-16 15.5 -16 40.5
t16 40.5t41 15.5t41 -15.5t16 -40.5t-16 -40.5t-41 -15.5t-41 15.5zM133 834h322v-67h-322v67z" />
    <glyph glyph-name="uni1E5D" unicode="&#x1e5d;" horiz-adv-x="366" 
d="M63 378q0 85 -3 122h93q4 -40 4 -88v-10h3q20 51 63.5 79.5t102.5 28.5q16 0 29 -3v-80q-7 2 -31 2q-44 0 -81.5 -25.5t-59 -69t-21.5 -95.5v-239h-99v378zM73 -168.5q-16 15.5 -16 40.5t16 40.5t41 15.5t41 -15.5t16 -40.5t-16 -40.5t-41 -15.5t-41 15.5zM33 634h322
v-67h-322v67z" />
    <glyph glyph-name="uni1E5E" unicode="&#x1e5e;" horiz-adv-x="586" 
d="M77 700h225q116 0 173 -47.5t57 -142.5q0 -69 -33 -117.5t-93 -67.5v-2q20 -13 32.5 -28t20.5 -35l105 -260h-117l-86 222q-15 40 -37 53.5t-72 13.5h-66v-289h-109v700zM294 377q133 0 133 124q0 56 -33.5 83t-102.5 27h-105v-234h108zM133 -67h322v-67h-322v67z" />
    <glyph glyph-name="uni1E5F" unicode="&#x1e5f;" horiz-adv-x="366" 
d="M63 378q0 85 -3 122h93q4 -40 4 -88v-10h3q20 51 63.5 79.5t102.5 28.5q16 0 29 -3v-80q-7 2 -31 2q-44 0 -81.5 -25.5t-59 -69t-21.5 -95.5v-239h-99v378zM33 -67h322v-67h-322v67z" />
    <glyph glyph-name="uni1E60" unicode="&#x1e60;" horiz-adv-x="536" 
d="M133 20q-61 30 -98 84l65 64q31 -40 78.5 -64.5t91.5 -24.5q55 0 88.5 27t33.5 71q0 30 -11.5 51t-40.5 41.5t-85 48.5q-108 53 -152 100.5t-44 112.5q0 53 27 94t77 63t115 22q70 0 126.5 -29.5t81.5 -78.5l-70 -52q-24 34 -59.5 52.5t-76.5 18.5q-52 0 -82 -23.5
t-30 -64.5q0 -25 12.5 -43t45 -38.5t100.5 -53.5q95 -46 134.5 -94.5t39.5 -118.5q0 -58 -29 -102.5t-82.5 -68.5t-123.5 -24q-71 0 -132 30zM228 770q-16 16 -16 40q0 25 16 40.5t41 15.5t41 -15.5t16 -40.5q0 -24 -16 -40t-41 -16t-41 16z" />
    <glyph glyph-name="uni1E61" unicode="&#x1e61;" horiz-adv-x="424" 
d="M98 14q-47 24 -66 64l63 43q17 -26 46 -41t63 -15q39 0 64.5 22t25.5 56q0 27 -20 44.5t-74 37.5q-87 33 -122.5 67.5t-35.5 85.5q0 60 47.5 96t126.5 36q51 0 93 -21t66 -59l-59 -44q-17 24 -42.5 36.5t-56.5 12.5q-34 0 -55.5 -15t-21.5 -39q0 -25 22 -41.5t86 -41.5
q80 -31 112.5 -64.5t32.5 -86.5q0 -71 -52 -114t-137 -43q-59 0 -106 24zM172 570q-16 16 -16 40q0 25 16 40.5t41 15.5t41 -15.5t16 -40.5q0 -24 -16 -40t-41 -16t-41 16z" />
    <glyph glyph-name="uni1E62" unicode="&#x1e62;" horiz-adv-x="536" 
d="M133 20q-61 30 -98 84l65 64q31 -40 78.5 -64.5t91.5 -24.5q55 0 88.5 27t33.5 71q0 30 -11.5 51t-40.5 41.5t-85 48.5q-108 53 -152 100.5t-44 112.5q0 53 27 94t77 63t115 22q70 0 126.5 -29.5t81.5 -78.5l-70 -52q-24 34 -59.5 52.5t-76.5 18.5q-52 0 -82 -23.5
t-30 -64.5q0 -25 12.5 -43t45 -38.5t100.5 -53.5q95 -46 134.5 -94.5t39.5 -118.5q0 -58 -29 -102.5t-82.5 -68.5t-123.5 -24q-71 0 -132 30zM228 -168.5q-16 15.5 -16 40.5t16 40.5t41 15.5t41 -15.5t16 -40.5t-16 -40.5t-41 -15.5t-41 15.5z" />
    <glyph glyph-name="uni1E63" unicode="&#x1e63;" horiz-adv-x="424" 
d="M98 14q-47 24 -66 64l63 43q17 -26 46 -41t63 -15q39 0 64.5 22t25.5 56q0 27 -20 44.5t-74 37.5q-87 33 -122.5 67.5t-35.5 85.5q0 60 47.5 96t126.5 36q51 0 93 -21t66 -59l-59 -44q-17 24 -42.5 36.5t-56.5 12.5q-34 0 -55.5 -15t-21.5 -39q0 -25 22 -41.5t86 -41.5
q80 -31 112.5 -64.5t32.5 -86.5q0 -71 -52 -114t-137 -43q-59 0 -106 24zM172 -168.5q-16 15.5 -16 40.5t16 40.5t41 15.5t41 -15.5t16 -40.5t-16 -40.5t-41 -15.5t-41 15.5z" />
    <glyph glyph-name="uni1E6C" unicode="&#x1e6c;" horiz-adv-x="569" 
d="M230 617h-214v83h536v-83h-213v-617h-109v617zM243 -168.5q-16 15.5 -16 40.5t16 40.5t41 15.5t41 -15.5t16 -40.5t-16 -40.5t-41 -15.5t-41 15.5z" />
    <glyph glyph-name="uni1E6D" unicode="&#x1e6d;" horiz-adv-x="391" 
d="M140.5 32.5q-39.5 42.5 -39.5 117.5v274h-90v76h90v132l95 28h4v-160h143v-76h-143v-262q0 -49 19.5 -72t59.5 -23t71 12l6 -71q-37 -18 -106 -18q-70 0 -109.5 42.5zM201 -168.5q-16 15.5 -16 40.5t16 40.5t41 15.5t41 -15.5t16 -40.5t-16 -40.5t-41 -15.5t-41 15.5z
" />
    <glyph glyph-name="uni1E6E" unicode="&#x1e6e;" horiz-adv-x="569" 
d="M230 617h-214v83h536v-83h-213v-617h-109v617zM123 -67h322v-67h-322v67z" />
    <glyph glyph-name="uni1E6F" unicode="&#x1e6f;" horiz-adv-x="391" 
d="M140.5 32.5q-39.5 42.5 -39.5 117.5v274h-90v76h90v132l95 28h4v-160h143v-76h-143v-262q0 -49 19.5 -72t59.5 -23t71 12l6 -71q-37 -18 -106 -18q-70 0 -109.5 42.5zM81 -67h322v-67h-322v67z" />
    <glyph glyph-name="Wgrave" unicode="&#x1e80;" horiz-adv-x="845" 
d="M818 700l-145 -700h-107l-143 557l-144 -557h-106l-147 700h117l91 -527l135 527h107l135 -525l90 525h117zM282 906h99l80 -152h-79z" />
    <glyph glyph-name="wgrave" unicode="&#x1e81;" horiz-adv-x="681" 
d="M669 500l-126 -500h-88l-114 394l-114 -394h-89l-126 500h103l75 -360l106 360h89l106 -360l75 360h103zM201 706h99l80 -152h-79z" />
    <glyph glyph-name="Wacute" unicode="&#x1e82;" horiz-adv-x="845" 
d="M818 700l-145 -700h-107l-143 557l-144 -557h-106l-147 700h117l91 -527l135 527h107l135 -525l90 525h117zM465 906h100l-101 -152h-79z" />
    <glyph glyph-name="wacute" unicode="&#x1e83;" horiz-adv-x="681" 
d="M669 500l-126 -500h-88l-114 394l-114 -394h-89l-126 500h103l75 -360l106 360h89l106 -360l75 360h103zM384 706h100l-101 -152h-79z" />
    <glyph glyph-name="Wdieresis" unicode="&#x1e84;" horiz-adv-x="845" 
d="M818 700l-145 -700h-107l-143 557l-144 -557h-106l-147 700h117l91 -527l135 527h107l135 -525l90 525h117zM279 770q-16 16 -16 40q0 25 16 40.5t41 15.5q24 0 40.5 -16t16.5 -40t-16.5 -40t-40.5 -16q-25 0 -41 16zM483.5 770q-16.5 16 -16.5 40t16.5 40t40.5 16
q25 0 41 -15.5t16 -40.5q0 -24 -16 -40t-41 -16q-24 0 -40.5 16z" />
    <glyph glyph-name="wdieresis" unicode="&#x1e85;" horiz-adv-x="681" 
d="M669 500l-126 -500h-88l-114 394l-114 -394h-89l-126 500h103l75 -360l106 360h89l106 -360l75 360h103zM198 570q-16 16 -16 40q0 25 16 40.5t41 15.5q24 0 40.5 -16t16.5 -40t-16.5 -40t-40.5 -16q-25 0 -41 16zM402.5 570q-16.5 16 -16.5 40t16.5 40t40.5 16
q25 0 41 -15.5t16 -40.5q0 -24 -16 -40t-41 -16q-24 0 -40.5 16z" />
    <glyph glyph-name="uni1E8E" unicode="&#x1e8e;" horiz-adv-x="591" 
d="M241 279l-225 421h120l159 -319l159 319h120l-223 -421v-279h-110v279zM254 770q-16 16 -16 40q0 25 16 40.5t41 15.5t41 -15.5t16 -40.5q0 -24 -16 -40t-41 -16t-41 16z" />
    <glyph glyph-name="uni1E8F" unicode="&#x1e8f;" horiz-adv-x="476" 
d="M465 500l-185 -514q-67 -185 -214 -185q-28 0 -64 9v77q21 -8 50 -8q49 0 83 35t65 116l-186 470h106l126 -363l112 363h107zM201 570q-16 16 -16 40q0 25 16 40.5t41 15.5t41 -15.5t16 -40.5q0 -24 -16 -40t-41 -16t-41 16z" />
    <glyph glyph-name="uni1E92" unicode="&#x1e92;" horiz-adv-x="575" 
d="M32 57l363 554h-335v89h471v-59l-362 -552h375v-89h-512v57zM246 -168.5q-16 15.5 -16 40.5t16 40.5t41 15.5t41 -15.5t16 -40.5t-16 -40.5t-41 -15.5t-41 15.5z" />
    <glyph glyph-name="uni1E93" unicode="&#x1e93;" horiz-adv-x="459" 
d="M24 55l282 369h-268v76h387v-53l-278 -371h288v-76h-411v55zM188 -168.5q-16 15.5 -16 40.5t16 40.5t41 15.5t41 -15.5t16 -40.5t-16 -40.5t-41 -15.5t-41 15.5z" />
    <glyph glyph-name="uni1E97" unicode="&#x1e97;" horiz-adv-x="391" 
d="M140.5 32.5q-39.5 42.5 -39.5 117.5v274h-90v76h90v132l95 28h4v-160h143v-76h-143v-262q0 -49 19.5 -72t59.5 -23t71 12l6 -71q-37 -18 -106 -18q-70 0 -109.5 42.5zM8 730q-16 16 -16 40q0 25 16 40.5t41 15.5q24 0 40.5 -16t16.5 -40t-16.5 -40t-40.5 -16
q-25 0 -41 16zM212.5 730q-16.5 16 -16.5 40t16.5 40t40.5 16q25 0 41 -15.5t16 -40.5q0 -24 -16 -40t-41 -16q-24 0 -40.5 16z" />
    <glyph glyph-name="uni1E9E" unicode="&#x1e9e;" horiz-adv-x="629" 
d="M228 80l60 43q36 -54 102 -54q45 0 72.5 32t27.5 85q0 42 -19 69.5t-62.5 47.5t-119.5 37v50l111 221h-215v-611h-109v700h439v-68l-124 -235q101 -26 151.5 -78t50.5 -133q0 -58 -25.5 -102.5t-71.5 -69t-105 -24.5q-120 0 -163 90z" />
    <glyph glyph-name="uni1EA0" unicode="&#x1ea0;" horiz-adv-x="611" 
d="M436 139h-261l-43 -139h-116l240 700h99l240 -700h-116zM408 228l-102 331l-103 -331h205zM265 -168.5q-16 15.5 -16 40.5t16 40.5t41 15.5t41 -15.5t16 -40.5t-16 -40.5t-41 -15.5t-41 15.5z" />
    <glyph glyph-name="uni1EA1" unicode="&#x1ea1;" horiz-adv-x="519" 
d="M118.5 10q-38.5 20 -60 55.5t-21.5 80.5q0 76 58 116.5t165 40.5h94v25q0 50 -27 77t-79 27q-45 0 -84 -17.5t-64 -50.5l-47 59q36 42 87.5 64.5t111.5 22.5q96 0 149 -46.5t53 -131.5v-232q0 -45 12 -100h-87q-10 24 -14 67h-2q-57 -77 -157 -77q-49 0 -87.5 20z
M316.5 96.5q37.5 29.5 37.5 71.5v66h-98q-59 0 -90.5 -22.5t-31.5 -65.5q0 -37 24.5 -58t66.5 -21q54 0 91.5 29.5zM217 -168.5q-16 15.5 -16 40.5t16 40.5t41 15.5t41 -15.5t16 -40.5t-16 -40.5t-41 -15.5t-41 15.5z" />
    <glyph glyph-name="uni1EA2" unicode="&#x1ea2;" horiz-adv-x="611" 
d="M436 139h-261l-43 -139h-116l240 700h99l240 -700h-116zM408 228l-102 331l-103 -331h205zM278.5 796.5q10.5 16.5 30.5 34.5q16 15 23.5 26t7.5 26q0 30 -39 30q-38 0 -63 -46l-43 39q16 31 46 48.5t68 17.5q48 0 76 -22t28 -62q0 -25 -10.5 -42t-30.5 -37
q-16 -17 -23.5 -28.5t-7.5 -26.5h-73q0 26 10.5 42.5z" />
    <glyph glyph-name="uni1EA3" unicode="&#x1ea3;" horiz-adv-x="519" 
d="M118.5 10q-38.5 20 -60 55.5t-21.5 80.5q0 76 58 116.5t165 40.5h94v25q0 50 -27 77t-79 27q-45 0 -84 -17.5t-64 -50.5l-47 59q36 42 87.5 64.5t111.5 22.5q96 0 149 -46.5t53 -131.5v-232q0 -45 12 -100h-87q-10 24 -14 67h-2q-57 -77 -157 -77q-49 0 -87.5 20z
M316.5 96.5q37.5 29.5 37.5 71.5v66h-98q-59 0 -90.5 -22.5t-31.5 -65.5q0 -37 24.5 -58t66.5 -21q54 0 91.5 29.5zM228.5 596.5q10.5 16.5 30.5 34.5q16 15 23.5 26t7.5 26q0 30 -39 30q-38 0 -63 -46l-43 39q16 31 46 48.5t68 17.5q48 0 76 -22t28 -62q0 -25 -10.5 -42
t-30.5 -37q-16 -17 -23.5 -28.5t-7.5 -26.5h-73q0 26 10.5 42.5z" />
    <glyph glyph-name="uni1EA4" unicode="&#x1ea4;" horiz-adv-x="611" 
d="M436 139h-261l-43 -139h-116l240 700h99l240 -700h-116zM408 228l-102 331l-103 -331h205zM448 983h77l-63 -105h-61zM274 904h63l120 -150h-87l-64 85l-65 -85h-86z" />
    <glyph glyph-name="uni1EA5" unicode="&#x1ea5;" horiz-adv-x="519" 
d="M118.5 10q-38.5 20 -60 55.5t-21.5 80.5q0 76 58 116.5t165 40.5h94v25q0 50 -27 77t-79 27q-45 0 -84 -17.5t-64 -50.5l-47 59q36 42 87.5 64.5t111.5 22.5q96 0 149 -46.5t53 -131.5v-232q0 -45 12 -100h-87q-10 24 -14 67h-2q-57 -77 -157 -77q-49 0 -87.5 20z
M316.5 96.5q37.5 29.5 37.5 71.5v66h-98q-59 0 -90.5 -22.5t-31.5 -65.5q0 -37 24.5 -58t66.5 -21q54 0 91.5 29.5zM398 783h77l-63 -105h-61zM224 704h63l120 -150h-87l-64 85l-65 -85h-86z" />
    <glyph glyph-name="uni1EA6" unicode="&#x1ea6;" horiz-adv-x="611" 
d="M436 139h-261l-43 -139h-116l240 700h99l240 -700h-116zM408 228l-102 331l-103 -331h205zM371 983h77l47 -105h-61zM274 904h63l120 -150h-87l-64 85l-65 -85h-86z" />
    <glyph glyph-name="uni1EA7" unicode="&#x1ea7;" horiz-adv-x="519" 
d="M118.5 10q-38.5 20 -60 55.5t-21.5 80.5q0 76 58 116.5t165 40.5h94v25q0 50 -27 77t-79 27q-45 0 -84 -17.5t-64 -50.5l-47 59q36 42 87.5 64.5t111.5 22.5q96 0 149 -46.5t53 -131.5v-232q0 -45 12 -100h-87q-10 24 -14 67h-2q-57 -77 -157 -77q-49 0 -87.5 20z
M316.5 96.5q37.5 29.5 37.5 71.5v66h-98q-59 0 -90.5 -22.5t-31.5 -65.5q0 -37 24.5 -58t66.5 -21q54 0 91.5 29.5zM321 783h77l47 -105h-61zM224 704h63l120 -150h-87l-64 85l-65 -85h-86z" />
    <glyph glyph-name="uni1EA8" unicode="&#x1ea8;" horiz-adv-x="611" 
d="M436 139h-261l-43 -139h-116l240 700h99l240 -700h-116zM408 228l-102 331l-103 -331h205zM440.5 904.5q9.5 13.5 26.5 26.5q13 10 19 17.5t6 18.5t-8 17t-22 6q-15 0 -29 -8t-23 -22l-33 31q14 21 38.5 34t52.5 13q35 0 56.5 -18t21.5 -50q0 -19 -8 -31t-24 -25
q-15 -14 -21.5 -23t-7.5 -23h-54q0 23 9.5 36.5zM274 904h63l120 -150h-87l-64 85l-65 -85h-86z" />
    <glyph glyph-name="uni1EA9" unicode="&#x1ea9;" horiz-adv-x="519" 
d="M118.5 10q-38.5 20 -60 55.5t-21.5 80.5q0 76 58 116.5t165 40.5h94v25q0 50 -27 77t-79 27q-45 0 -84 -17.5t-64 -50.5l-47 59q36 42 87.5 64.5t111.5 22.5q96 0 149 -46.5t53 -131.5v-232q0 -45 12 -100h-87q-10 24 -14 67h-2q-57 -77 -157 -77q-49 0 -87.5 20z
M316.5 96.5q37.5 29.5 37.5 71.5v66h-98q-59 0 -90.5 -22.5t-31.5 -65.5q0 -37 24.5 -58t66.5 -21q54 0 91.5 29.5zM390.5 704.5q9.5 13.5 26.5 26.5q13 10 19 17.5t6 18.5t-8 17t-22 6q-15 0 -29 -8t-23 -22l-33 31q14 21 38.5 34t52.5 13q35 0 56.5 -18t21.5 -50
q0 -19 -8 -31t-24 -25q-15 -14 -21.5 -23t-7.5 -23h-54q0 23 9.5 36.5zM224 704h63l120 -150h-87l-64 85l-65 -85h-86z" />
    <glyph glyph-name="uni1EAA" unicode="&#x1eaa;" horiz-adv-x="611" 
d="M436 139h-261l-43 -139h-116l240 700h99l240 -700h-116zM408 228l-102 331l-103 -331h205zM328 941.5q-14 6.5 -32 18.5q-17 11 -26.5 15.5t-19.5 4.5q-27 0 -36 -40h-48q8 43 29.5 67t56.5 24q16 0 31.5 -6t35.5 -18q3 -1 13 -7t18.5 -8.5t15.5 -2.5q28 0 36 41h46
q-6 -45 -30 -70t-61 -25q-15 0 -29 6.5zM274 904h63l120 -150h-87l-64 85l-65 -85h-86z" />
    <glyph glyph-name="uni1EAB" unicode="&#x1eab;" horiz-adv-x="519" 
d="M118.5 10q-38.5 20 -60 55.5t-21.5 80.5q0 76 58 116.5t165 40.5h94v25q0 50 -27 77t-79 27q-45 0 -84 -17.5t-64 -50.5l-47 59q36 42 87.5 64.5t111.5 22.5q96 0 149 -46.5t53 -131.5v-232q0 -45 12 -100h-87q-10 24 -14 67h-2q-57 -77 -157 -77q-49 0 -87.5 20z
M316.5 96.5q37.5 29.5 37.5 71.5v66h-98q-59 0 -90.5 -22.5t-31.5 -65.5q0 -37 24.5 -58t66.5 -21q54 0 91.5 29.5zM278 741.5q-14 6.5 -32 18.5q-17 11 -26.5 15.5t-19.5 4.5q-27 0 -36 -40h-48q8 43 29.5 67t56.5 24q16 0 31.5 -6t35.5 -18q3 -1 13 -7t18.5 -8.5
t15.5 -2.5q28 0 36 41h46q-6 -45 -30 -70t-61 -25q-15 0 -29 6.5zM224 704h63l120 -150h-87l-64 85l-65 -85h-86z" />
    <glyph glyph-name="uni1EAC" unicode="&#x1eac;" horiz-adv-x="611" 
d="M436 139h-261l-43 -139h-116l240 700h99l240 -700h-116zM408 228l-102 331l-103 -331h205zM265 -168.5q-16 15.5 -16 40.5t16 40.5t41 15.5t41 -15.5t16 -40.5t-16 -40.5t-41 -15.5t-41 15.5zM274 904h64l119 -150h-86l-65 85l-65 -85h-86z" />
    <glyph glyph-name="uni1EAD" unicode="&#x1ead;" horiz-adv-x="519" 
d="M118.5 10q-38.5 20 -60 55.5t-21.5 80.5q0 76 58 116.5t165 40.5h94v25q0 50 -27 77t-79 27q-45 0 -84 -17.5t-64 -50.5l-47 59q36 42 87.5 64.5t111.5 22.5q96 0 149 -46.5t53 -131.5v-232q0 -45 12 -100h-87q-10 24 -14 67h-2q-57 -77 -157 -77q-49 0 -87.5 20z
M316.5 96.5q37.5 29.5 37.5 71.5v66h-98q-59 0 -90.5 -22.5t-31.5 -65.5q0 -37 24.5 -58t66.5 -21q54 0 91.5 29.5zM217 -168.5q-16 15.5 -16 40.5t16 40.5t41 15.5t41 -15.5t16 -40.5t-16 -40.5t-41 -15.5t-41 15.5zM224 704h64l119 -150h-86l-65 85l-65 -85h-86z" />
    <glyph glyph-name="uni1EAE" unicode="&#x1eae;" horiz-adv-x="611" 
d="M436 139h-261l-43 -139h-116l240 700h99l240 -700h-116zM408 228l-102 331l-103 -331h205zM319 1023h79l-66 -109h-63zM197 789.5q-40 35.5 -42 104.5h65q2 -35 23.5 -55t62.5 -20q38 0 61 19t25 56h65q-2 -67 -40 -103.5t-111 -36.5q-69 0 -109 35.5z" />
    <glyph glyph-name="uni1EAF" unicode="&#x1eaf;" horiz-adv-x="519" 
d="M118.5 10q-38.5 20 -60 55.5t-21.5 80.5q0 76 58 116.5t165 40.5h94v25q0 50 -27 77t-79 27q-45 0 -84 -17.5t-64 -50.5l-47 59q36 42 87.5 64.5t111.5 22.5q96 0 149 -46.5t53 -131.5v-232q0 -45 12 -100h-87q-10 24 -14 67h-2q-57 -77 -157 -77q-49 0 -87.5 20z
M316.5 96.5q37.5 29.5 37.5 71.5v66h-98q-59 0 -90.5 -22.5t-31.5 -65.5q0 -37 24.5 -58t66.5 -21q54 0 91.5 29.5zM269 823h79l-66 -109h-63zM147 589.5q-40 35.5 -42 104.5h65q2 -35 23.5 -55t62.5 -20q38 0 61 19t25 56h65q-2 -67 -40 -103.5t-111 -36.5q-69 0 -109 35.5
z" />
    <glyph glyph-name="uni1EB0" unicode="&#x1eb0;" horiz-adv-x="611" 
d="M436 139h-261l-43 -139h-116l240 700h99l240 -700h-116zM408 228l-102 331l-103 -331h205zM207 1023h79l50 -109h-64zM197 789.5q-40 35.5 -42 104.5h65q2 -35 23.5 -55t62.5 -20q38 0 61 19t25 56h65q-2 -67 -40 -103.5t-111 -36.5q-69 0 -109 35.5z" />
    <glyph glyph-name="uni1EB1" unicode="&#x1eb1;" horiz-adv-x="519" 
d="M118.5 10q-38.5 20 -60 55.5t-21.5 80.5q0 76 58 116.5t165 40.5h94v25q0 50 -27 77t-79 27q-45 0 -84 -17.5t-64 -50.5l-47 59q36 42 87.5 64.5t111.5 22.5q96 0 149 -46.5t53 -131.5v-232q0 -45 12 -100h-87q-10 24 -14 67h-2q-57 -77 -157 -77q-49 0 -87.5 20z
M316.5 96.5q37.5 29.5 37.5 71.5v66h-98q-59 0 -90.5 -22.5t-31.5 -65.5q0 -37 24.5 -58t66.5 -21q54 0 91.5 29.5zM157 823h79l50 -109h-64zM147 589.5q-40 35.5 -42 104.5h65q2 -35 23.5 -55t62.5 -20q38 0 61 19t25 56h65q-2 -67 -40 -103.5t-111 -36.5q-69 0 -109 35.5z
" />
    <glyph glyph-name="uni1EB2" unicode="&#x1eb2;" horiz-adv-x="611" 
d="M436 139h-261l-43 -139h-116l240 700h99l240 -700h-116zM408 228l-102 331l-103 -331h205zM286.5 944q9.5 13 27.5 27q14 11 20 18.5t6 18.5q0 10 -8.5 16.5t-23.5 6.5t-29 -7.5t-23 -21.5l-31 29q13 21 37 34t52 13q34 0 56 -18.5t22 -48.5q0 -20 -8 -31.5t-24 -26.5
q-15 -12 -21.5 -21t-7.5 -24h-54q0 23 9.5 36zM197 789.5q-40 35.5 -42 104.5h65q2 -35 23.5 -55t62.5 -20q38 0 61 19t25 56h65q-2 -67 -40 -103.5t-111 -36.5q-69 0 -109 35.5z" />
    <glyph glyph-name="uni1EB3" unicode="&#x1eb3;" horiz-adv-x="519" 
d="M118.5 10q-38.5 20 -60 55.5t-21.5 80.5q0 76 58 116.5t165 40.5h94v25q0 50 -27 77t-79 27q-45 0 -84 -17.5t-64 -50.5l-47 59q36 42 87.5 64.5t111.5 22.5q96 0 149 -46.5t53 -131.5v-232q0 -45 12 -100h-87q-10 24 -14 67h-2q-57 -77 -157 -77q-49 0 -87.5 20z
M316.5 96.5q37.5 29.5 37.5 71.5v66h-98q-59 0 -90.5 -22.5t-31.5 -65.5q0 -37 24.5 -58t66.5 -21q54 0 91.5 29.5zM236.5 744q9.5 13 27.5 27q14 11 20 18.5t6 18.5q0 10 -8.5 16.5t-23.5 6.5t-29 -7.5t-23 -21.5l-31 29q13 21 37 34t52 13q34 0 56 -18.5t22 -48.5
q0 -20 -8 -31.5t-24 -26.5q-15 -12 -21.5 -21t-7.5 -24h-54q0 23 9.5 36zM147 589.5q-40 35.5 -42 104.5h65q2 -35 23.5 -55t62.5 -20q38 0 61 19t25 56h65q-2 -67 -40 -103.5t-111 -36.5q-69 0 -109 35.5z" />
    <glyph glyph-name="uni1EB4" unicode="&#x1eb4;" horiz-adv-x="611" 
d="M436 139h-261l-43 -139h-116l240 700h99l240 -700h-116zM408 228l-102 331l-103 -331h205zM327.5 939.5q-14.5 6.5 -32.5 18.5q-16 10 -25.5 14.5t-19.5 4.5q-13 0 -22.5 -10t-13.5 -29h-48q8 42 29.5 66.5t56.5 24.5q17 0 31.5 -6t34.5 -18q16 -9 27 -14t21 -5
q28 0 36 42h46q-6 -45 -29.5 -70t-60.5 -25q-16 0 -30.5 6.5zM197 789.5q-40 35.5 -42 104.5h65q2 -35 23.5 -55t62.5 -20q38 0 61 19t25 56h65q-2 -67 -40 -103.5t-111 -36.5q-69 0 -109 35.5z" />
    <glyph glyph-name="uni1EB5" unicode="&#x1eb5;" horiz-adv-x="519" 
d="M118.5 10q-38.5 20 -60 55.5t-21.5 80.5q0 76 58 116.5t165 40.5h94v25q0 50 -27 77t-79 27q-45 0 -84 -17.5t-64 -50.5l-47 59q36 42 87.5 64.5t111.5 22.5q96 0 149 -46.5t53 -131.5v-232q0 -45 12 -100h-87q-10 24 -14 67h-2q-57 -77 -157 -77q-49 0 -87.5 20z
M316.5 96.5q37.5 29.5 37.5 71.5v66h-98q-59 0 -90.5 -22.5t-31.5 -65.5q0 -37 24.5 -58t66.5 -21q54 0 91.5 29.5zM277.5 739.5q-14.5 6.5 -32.5 18.5q-16 10 -25.5 14.5t-19.5 4.5q-13 0 -22.5 -10t-13.5 -29h-48q8 42 29.5 66.5t56.5 24.5q17 0 31.5 -6t34.5 -18
q16 -9 27 -14t21 -5q28 0 36 42h46q-6 -45 -29.5 -70t-60.5 -25q-16 0 -30.5 6.5zM147 589.5q-40 35.5 -42 104.5h65q2 -35 23.5 -55t62.5 -20q38 0 61 19t25 56h65q-2 -67 -40 -103.5t-111 -36.5q-69 0 -109 35.5z" />
    <glyph glyph-name="uni1EB6" unicode="&#x1eb6;" horiz-adv-x="611" 
d="M436 139h-261l-43 -139h-116l240 700h99l240 -700h-116zM408 228l-102 331l-103 -331h205zM265 -168.5q-16 15.5 -16 40.5t16 40.5t41 15.5t41 -15.5t16 -40.5t-16 -40.5t-41 -15.5t-41 15.5zM197 789.5q-40 35.5 -42 104.5h65q2 -35 23.5 -55t62.5 -20q38 0 61 19t25 56
h65q-2 -67 -40 -103.5t-111 -36.5q-69 0 -109 35.5z" />
    <glyph glyph-name="uni1EB7" unicode="&#x1eb7;" horiz-adv-x="519" 
d="M118.5 10q-38.5 20 -60 55.5t-21.5 80.5q0 76 58 116.5t165 40.5h94v25q0 50 -27 77t-79 27q-45 0 -84 -17.5t-64 -50.5l-47 59q36 42 87.5 64.5t111.5 22.5q96 0 149 -46.5t53 -131.5v-232q0 -45 12 -100h-87q-10 24 -14 67h-2q-57 -77 -157 -77q-49 0 -87.5 20z
M316.5 96.5q37.5 29.5 37.5 71.5v66h-98q-59 0 -90.5 -22.5t-31.5 -65.5q0 -37 24.5 -58t66.5 -21q54 0 91.5 29.5zM217 -168.5q-16 15.5 -16 40.5t16 40.5t41 15.5t41 -15.5t16 -40.5t-16 -40.5t-41 -15.5t-41 15.5zM147 589.5q-40 35.5 -42 104.5h65q2 -35 23.5 -55
t62.5 -20q38 0 61 19t25 56h65q-2 -67 -40 -103.5t-111 -36.5q-69 0 -109 35.5z" />
    <glyph glyph-name="uni1EB8" unicode="&#x1eb8;" horiz-adv-x="558" 
d="M77 700h435v-89h-326v-199h291v-89h-291v-234h326v-89h-435v700zM257 -168.5q-16 15.5 -16 40.5t16 40.5t41 15.5t41 -15.5t16 -40.5t-16 -40.5t-41 -15.5t-41 15.5z" />
    <glyph glyph-name="uni1EB9" unicode="&#x1eb9;" horiz-adv-x="526" 
d="M492 212h-356q8 -68 43.5 -103t97.5 -35q88 0 142 69l55 -53q-29 -47 -83 -73.5t-119 -26.5q-112 0 -174.5 68.5t-62.5 190.5t63 191.5t173 69.5q104 0 162.5 -68.5t58.5 -191.5v-38zM398 290q0 65 -35 102t-96 37q-57 0 -91 -38t-41 -108h263v7zM231 -168.5
q-16 15.5 -16 40.5t16 40.5t41 15.5t41 -15.5t16 -40.5t-16 -40.5t-41 -15.5t-41 15.5z" />
    <glyph glyph-name="uni1EBA" unicode="&#x1eba;" horiz-adv-x="558" 
d="M77 700h435v-89h-326v-199h291v-89h-291v-234h326v-89h-435v700zM270.5 796.5q10.5 16.5 30.5 34.5q16 15 23.5 26t7.5 26q0 30 -39 30q-38 0 -63 -46l-43 39q16 31 46 48.5t68 17.5q48 0 76 -22t28 -62q0 -25 -10.5 -42t-30.5 -37q-16 -17 -23.5 -28.5t-7.5 -26.5h-73
q0 26 10.5 42.5z" />
    <glyph glyph-name="uni1EBB" unicode="&#x1ebb;" horiz-adv-x="526" 
d="M492 212h-356q8 -68 43.5 -103t97.5 -35q88 0 142 69l55 -53q-29 -47 -83 -73.5t-119 -26.5q-112 0 -174.5 68.5t-62.5 190.5t63 191.5t173 69.5q104 0 162.5 -68.5t58.5 -191.5v-38zM398 290q0 65 -35 102t-96 37q-57 0 -91 -38t-41 -108h263v7zM241.5 596.5
q10.5 16.5 30.5 34.5q16 15 23.5 26t7.5 26q0 30 -39 30q-38 0 -63 -46l-43 39q16 31 46 48.5t68 17.5q48 0 76 -22t28 -62q0 -25 -10.5 -42t-30.5 -37q-16 -17 -23.5 -28.5t-7.5 -26.5h-73q0 26 10.5 42.5z" />
    <glyph glyph-name="uni1EBC" unicode="&#x1ebc;" horiz-adv-x="558" 
d="M77 700h435v-89h-326v-199h291v-89h-291v-234h326v-89h-435v700zM169 834q25 30 64 30q19 0 36.5 -7.5t38.5 -20.5q17 -10 27 -14.5t19 -4.5q27 0 30 51h61q-1 -54 -26.5 -84t-65.5 -30q-20 0 -38.5 8t-40.5 22q-2 1 -16 9t-23 8q-12 0 -20.5 -12.5t-9.5 -34.5h-61
q0 50 25 80z" />
    <glyph glyph-name="uni1EBD" unicode="&#x1ebd;" horiz-adv-x="526" 
d="M492 212h-356q8 -68 43.5 -103t97.5 -35q88 0 142 69l55 -53q-29 -47 -83 -73.5t-119 -26.5q-112 0 -174.5 68.5t-62.5 190.5t63 191.5t173 69.5q104 0 162.5 -68.5t58.5 -191.5v-38zM398 290q0 65 -35 102t-96 37q-57 0 -91 -38t-41 -108h263v7zM140 634q25 30 64 30
q19 0 36.5 -7.5t38.5 -20.5q17 -10 27 -14.5t19 -4.5q27 0 30 51h61q-1 -54 -26.5 -84t-65.5 -30q-20 0 -38.5 8t-40.5 22q-2 1 -16 9t-23 8q-12 0 -20.5 -12.5t-9.5 -34.5h-61q0 50 25 80z" />
    <glyph glyph-name="uni1EBE" unicode="&#x1ebe;" horiz-adv-x="558" 
d="M77 700h435v-89h-326v-199h291v-89h-291v-234h326v-89h-435v700zM440 983h77l-63 -105h-61zM266 904h63l120 -150h-87l-64 85l-65 -85h-86z" />
    <glyph glyph-name="uni1EBF" unicode="&#x1ebf;" horiz-adv-x="526" 
d="M492 212h-356q8 -68 43.5 -103t97.5 -35q88 0 142 69l55 -53q-29 -47 -83 -73.5t-119 -26.5q-112 0 -174.5 68.5t-62.5 190.5t63 191.5t173 69.5q104 0 162.5 -68.5t58.5 -191.5v-38zM398 290q0 65 -35 102t-96 37q-57 0 -91 -38t-41 -108h263v7zM411 783h77l-63 -105
h-61zM237 704h63l120 -150h-87l-64 85l-65 -85h-86z" />
    <glyph glyph-name="uni1EC0" unicode="&#x1ec0;" horiz-adv-x="558" 
d="M77 700h435v-89h-326v-199h291v-89h-291v-234h326v-89h-435v700zM363 983h77l47 -105h-61zM266 904h63l120 -150h-87l-64 85l-65 -85h-86z" />
    <glyph glyph-name="uni1EC1" unicode="&#x1ec1;" horiz-adv-x="526" 
d="M492 212h-356q8 -68 43.5 -103t97.5 -35q88 0 142 69l55 -53q-29 -47 -83 -73.5t-119 -26.5q-112 0 -174.5 68.5t-62.5 190.5t63 191.5t173 69.5q104 0 162.5 -68.5t58.5 -191.5v-38zM398 290q0 65 -35 102t-96 37q-57 0 -91 -38t-41 -108h263v7zM334 783h77l47 -105h-61
zM237 704h63l120 -150h-87l-64 85l-65 -85h-86z" />
    <glyph glyph-name="uni1EC2" unicode="&#x1ec2;" horiz-adv-x="558" 
d="M77 700h435v-89h-326v-199h291v-89h-291v-234h326v-89h-435v700zM432.5 904.5q9.5 13.5 26.5 26.5q13 10 19 17.5t6 18.5t-8 17t-22 6q-15 0 -29 -8t-23 -22l-33 31q14 21 38.5 34t52.5 13q35 0 56.5 -18t21.5 -50q0 -19 -8 -31t-24 -25q-15 -14 -21.5 -23t-7.5 -23h-54
q0 23 9.5 36.5zM266 904h63l120 -150h-87l-64 85l-65 -85h-86z" />
    <glyph glyph-name="uni1EC3" unicode="&#x1ec3;" horiz-adv-x="526" 
d="M492 212h-356q8 -68 43.5 -103t97.5 -35q88 0 142 69l55 -53q-29 -47 -83 -73.5t-119 -26.5q-112 0 -174.5 68.5t-62.5 190.5t63 191.5t173 69.5q104 0 162.5 -68.5t58.5 -191.5v-38zM398 290q0 65 -35 102t-96 37q-57 0 -91 -38t-41 -108h263v7zM403.5 704.5
q9.5 13.5 26.5 26.5q13 10 19 17.5t6 18.5t-8 17t-22 6q-15 0 -29 -8t-23 -22l-33 31q14 21 38.5 34t52.5 13q35 0 56.5 -18t21.5 -50q0 -19 -8 -31t-24 -25q-15 -14 -21.5 -23t-7.5 -23h-54q0 23 9.5 36.5zM237 704h63l120 -150h-87l-64 85l-65 -85h-86z" />
    <glyph glyph-name="uni1EC4" unicode="&#x1ec4;" horiz-adv-x="558" 
d="M77 700h435v-89h-326v-199h291v-89h-291v-234h326v-89h-435v700zM320 941.5q-14 6.5 -32 18.5q-17 11 -26.5 15.5t-19.5 4.5q-27 0 -36 -40h-48q8 43 29.5 67t56.5 24q16 0 31.5 -6t35.5 -18q3 -1 13 -7t18.5 -8.5t15.5 -2.5q28 0 36 41h46q-6 -45 -30 -70t-61 -25
q-15 0 -29 6.5zM266 904h63l120 -150h-87l-64 85l-65 -85h-86z" />
    <glyph glyph-name="uni1EC5" unicode="&#x1ec5;" horiz-adv-x="526" 
d="M492 212h-356q8 -68 43.5 -103t97.5 -35q88 0 142 69l55 -53q-29 -47 -83 -73.5t-119 -26.5q-112 0 -174.5 68.5t-62.5 190.5t63 191.5t173 69.5q104 0 162.5 -68.5t58.5 -191.5v-38zM398 290q0 65 -35 102t-96 37q-57 0 -91 -38t-41 -108h263v7zM291 741.5
q-14 6.5 -32 18.5q-17 11 -26.5 15.5t-19.5 4.5q-27 0 -36 -40h-48q8 43 29.5 67t56.5 24q16 0 31.5 -6t35.5 -18q3 -1 13 -7t18.5 -8.5t15.5 -2.5q28 0 36 41h46q-6 -45 -30 -70t-61 -25q-15 0 -29 6.5zM237 704h63l120 -150h-87l-64 85l-65 -85h-86z" />
    <glyph glyph-name="uni1EC6" unicode="&#x1ec6;" horiz-adv-x="558" 
d="M77 700h435v-89h-326v-199h291v-89h-291v-234h326v-89h-435v700zM257 -168.5q-16 15.5 -16 40.5t16 40.5t41 15.5t41 -15.5t16 -40.5t-16 -40.5t-41 -15.5t-41 15.5zM266 904h64l119 -150h-86l-65 85l-65 -85h-86z" />
    <glyph glyph-name="uni1EC7" unicode="&#x1ec7;" horiz-adv-x="526" 
d="M492 212h-356q8 -68 43.5 -103t97.5 -35q88 0 142 69l55 -53q-29 -47 -83 -73.5t-119 -26.5q-112 0 -174.5 68.5t-62.5 190.5t63 191.5t173 69.5q104 0 162.5 -68.5t58.5 -191.5v-38zM398 290q0 65 -35 102t-96 37q-57 0 -91 -38t-41 -108h263v7zM231 -168.5
q-16 15.5 -16 40.5t16 40.5t41 15.5t41 -15.5t16 -40.5t-16 -40.5t-41 -15.5t-41 15.5zM237 704h64l119 -150h-86l-65 85l-65 -85h-86z" />
    <glyph glyph-name="uni1EC8" unicode="&#x1ec8;" horiz-adv-x="302" 
d="M97 700h109v-700h-109v700zM124.5 796.5q10.5 16.5 30.5 34.5q16 15 23.5 26t7.5 26q0 30 -39 30q-38 0 -63 -46l-43 39q16 31 46 48.5t68 17.5q48 0 76 -22t28 -62q0 -25 -10.5 -42t-30.5 -37q-16 -17 -23.5 -28.5t-7.5 -26.5h-73q0 26 10.5 42.5z" />
    <glyph glyph-name="uni1EC9" unicode="&#x1ec9;" horiz-adv-x="262" 
d="M82 500h98v-500h-98v500zM103.5 596.5q10.5 16.5 30.5 34.5q16 15 23.5 26t7.5 26q0 30 -39 30q-38 0 -63 -46l-43 39q16 31 46 48.5t68 17.5q48 0 76 -22t28 -62q0 -25 -10.5 -42t-30.5 -37q-16 -17 -23.5 -28.5t-7.5 -26.5h-73q0 26 10.5 42.5z" />
    <glyph glyph-name="uni1ECA" unicode="&#x1eca;" horiz-adv-x="302" 
d="M97 700h109v-700h-109v700zM111 -168.5q-16 15.5 -16 40.5t16 40.5t41 15.5t41 -15.5t16 -40.5t-16 -40.5t-41 -15.5t-41 15.5z" />
    <glyph glyph-name="uni1ECB" unicode="&#x1ecb;" horiz-adv-x="254" 
d="M78 594q-18 17 -18 46t18 46t49 17t49.5 -17t18.5 -46t-18.5 -46t-49.5 -17t-49 17zM78 500h99v-500h-99v500zM86 -168.5q-16 15.5 -16 40.5t16 40.5t41 15.5t41 -15.5t16 -40.5t-16 -40.5t-41 -15.5t-41 15.5z" />
    <glyph glyph-name="uni1ECC" unicode="&#x1ecc;" horiz-adv-x="671" 
d="M174.5 33.5q-68.5 43.5 -105 124.5t-36.5 192t36.5 192t105 124.5t161.5 43.5t161 -43.5t104.5 -124.5t36.5 -192t-36.5 -192t-104.5 -124.5t-161 -43.5t-161.5 43.5zM477 150.5q52 73.5 52 199.5q0 127 -52 200t-141 73t-141.5 -73.5t-52.5 -199.5q0 -83 23.5 -145
t67.5 -95t103 -33q89 0 141 73.5zM295 -168.5q-16 15.5 -16 40.5t16 40.5t41 15.5t41 -15.5t16 -40.5t-16 -40.5t-41 -15.5t-41 15.5z" />
    <glyph glyph-name="uni1ECD" unicode="&#x1ecd;" horiz-adv-x="564" 
d="M101 59.5q-66 69.5 -66 190.5t66 190.5t181 69.5t181.5 -69.5t66.5 -190.5t-66.5 -190.5t-181.5 -69.5t-181 69.5zM391 114.5q40 49.5 40 135.5t-40 135.5t-109 49.5q-70 0 -109 -49.5t-39 -135.5t39 -135.5t109 -49.5q69 0 109 49.5zM241 -168.5q-16 15.5 -16 40.5
t16 40.5t41 15.5t41 -15.5t16 -40.5t-16 -40.5t-41 -15.5t-41 15.5z" />
    <glyph glyph-name="uni1ECE" unicode="&#x1ece;" horiz-adv-x="671" 
d="M174.5 33.5q-68.5 43.5 -105 124.5t-36.5 192t36.5 192t105 124.5t161.5 43.5t161 -43.5t104.5 -124.5t36.5 -192t-36.5 -192t-104.5 -124.5t-161 -43.5t-161.5 43.5zM477 150.5q52 73.5 52 199.5q0 127 -52 200t-141 73t-141.5 -73.5t-52.5 -199.5q0 -83 23.5 -145
t67.5 -95t103 -33q89 0 141 73.5zM308.5 796.5q10.5 16.5 30.5 34.5q16 15 23.5 26t7.5 26q0 30 -39 30q-38 0 -63 -46l-43 39q16 31 46 48.5t68 17.5q48 0 76 -22t28 -62q0 -25 -10.5 -42t-30.5 -37q-16 -17 -23.5 -28.5t-7.5 -26.5h-73q0 26 10.5 42.5z" />
    <glyph glyph-name="uni1ECF" unicode="&#x1ecf;" horiz-adv-x="564" 
d="M101 59.5q-66 69.5 -66 190.5t66 190.5t181 69.5t181.5 -69.5t66.5 -190.5t-66.5 -190.5t-181.5 -69.5t-181 69.5zM391 114.5q40 49.5 40 135.5t-40 135.5t-109 49.5q-70 0 -109 -49.5t-39 -135.5t39 -135.5t109 -49.5q69 0 109 49.5zM254.5 596.5q10.5 16.5 30.5 34.5
q16 15 23.5 26t7.5 26q0 30 -39 30q-38 0 -63 -46l-43 39q16 31 46 48.5t68 17.5q48 0 76 -22t28 -62q0 -25 -10.5 -42t-30.5 -37q-16 -17 -23.5 -28.5t-7.5 -26.5h-73q0 26 10.5 42.5z" />
    <glyph glyph-name="uni1ED0" unicode="&#x1ed0;" horiz-adv-x="671" 
d="M174.5 33.5q-68.5 43.5 -105 124.5t-36.5 192t36.5 192t105 124.5t161.5 43.5t161 -43.5t104.5 -124.5t36.5 -192t-36.5 -192t-104.5 -124.5t-161 -43.5t-161.5 43.5zM477 150.5q52 73.5 52 199.5q0 127 -52 200t-141 73t-141.5 -73.5t-52.5 -199.5q0 -83 23.5 -145
t67.5 -95t103 -33q89 0 141 73.5zM478 983h77l-63 -105h-61zM304 904h63l120 -150h-87l-64 85l-65 -85h-86z" />
    <glyph glyph-name="uni1ED1" unicode="&#x1ed1;" horiz-adv-x="564" 
d="M101 59.5q-66 69.5 -66 190.5t66 190.5t181 69.5t181.5 -69.5t66.5 -190.5t-66.5 -190.5t-181.5 -69.5t-181 69.5zM391 114.5q40 49.5 40 135.5t-40 135.5t-109 49.5q-70 0 -109 -49.5t-39 -135.5t39 -135.5t109 -49.5q69 0 109 49.5zM424 783h77l-63 -105h-61zM250 704
h63l120 -150h-87l-64 85l-65 -85h-86z" />
    <glyph glyph-name="uni1ED2" unicode="&#x1ed2;" horiz-adv-x="671" 
d="M174.5 33.5q-68.5 43.5 -105 124.5t-36.5 192t36.5 192t105 124.5t161.5 43.5t161 -43.5t104.5 -124.5t36.5 -192t-36.5 -192t-104.5 -124.5t-161 -43.5t-161.5 43.5zM477 150.5q52 73.5 52 199.5q0 127 -52 200t-141 73t-141.5 -73.5t-52.5 -199.5q0 -83 23.5 -145
t67.5 -95t103 -33q89 0 141 73.5zM401 983h77l47 -105h-61zM304 904h63l120 -150h-87l-64 85l-65 -85h-86z" />
    <glyph glyph-name="uni1ED3" unicode="&#x1ed3;" horiz-adv-x="564" 
d="M101 59.5q-66 69.5 -66 190.5t66 190.5t181 69.5t181.5 -69.5t66.5 -190.5t-66.5 -190.5t-181.5 -69.5t-181 69.5zM391 114.5q40 49.5 40 135.5t-40 135.5t-109 49.5q-70 0 -109 -49.5t-39 -135.5t39 -135.5t109 -49.5q69 0 109 49.5zM347 783h77l47 -105h-61zM250 704
h63l120 -150h-87l-64 85l-65 -85h-86z" />
    <glyph glyph-name="uni1ED4" unicode="&#x1ed4;" horiz-adv-x="671" 
d="M174.5 33.5q-68.5 43.5 -105 124.5t-36.5 192t36.5 192t105 124.5t161.5 43.5t161 -43.5t104.5 -124.5t36.5 -192t-36.5 -192t-104.5 -124.5t-161 -43.5t-161.5 43.5zM477 150.5q52 73.5 52 199.5q0 127 -52 200t-141 73t-141.5 -73.5t-52.5 -199.5q0 -83 23.5 -145
t67.5 -95t103 -33q89 0 141 73.5zM470.5 904.5q9.5 13.5 26.5 26.5q13 10 19 17.5t6 18.5t-8 17t-22 6q-15 0 -29 -8t-23 -22l-33 31q14 21 38.5 34t52.5 13q35 0 56.5 -18t21.5 -50q0 -19 -8 -31t-24 -25q-15 -14 -21.5 -23t-7.5 -23h-54q0 23 9.5 36.5zM304 904h63
l120 -150h-87l-64 85l-65 -85h-86z" />
    <glyph glyph-name="uni1ED5" unicode="&#x1ed5;" horiz-adv-x="564" 
d="M101 59.5q-66 69.5 -66 190.5t66 190.5t181 69.5t181.5 -69.5t66.5 -190.5t-66.5 -190.5t-181.5 -69.5t-181 69.5zM391 114.5q40 49.5 40 135.5t-40 135.5t-109 49.5q-70 0 -109 -49.5t-39 -135.5t39 -135.5t109 -49.5q69 0 109 49.5zM416.5 704.5q9.5 13.5 26.5 26.5
q13 10 19 17.5t6 18.5t-8 17t-22 6q-15 0 -29 -8t-23 -22l-33 31q14 21 38.5 34t52.5 13q35 0 56.5 -18t21.5 -50q0 -19 -8 -31t-24 -25q-15 -14 -21.5 -23t-7.5 -23h-54q0 23 9.5 36.5zM250 704h63l120 -150h-87l-64 85l-65 -85h-86z" />
    <glyph glyph-name="uni1ED6" unicode="&#x1ed6;" horiz-adv-x="671" 
d="M174.5 33.5q-68.5 43.5 -105 124.5t-36.5 192t36.5 192t105 124.5t161.5 43.5t161 -43.5t104.5 -124.5t36.5 -192t-36.5 -192t-104.5 -124.5t-161 -43.5t-161.5 43.5zM477 150.5q52 73.5 52 199.5q0 127 -52 200t-141 73t-141.5 -73.5t-52.5 -199.5q0 -83 23.5 -145
t67.5 -95t103 -33q89 0 141 73.5zM358 941.5q-14 6.5 -32 18.5q-17 11 -26.5 15.5t-19.5 4.5q-27 0 -36 -40h-48q8 43 29.5 67t56.5 24q16 0 31.5 -6t35.5 -18q3 -1 13 -7t18.5 -8.5t15.5 -2.5q28 0 36 41h46q-6 -45 -30 -70t-61 -25q-15 0 -29 6.5zM304 904h63l120 -150
h-87l-64 85l-65 -85h-86z" />
    <glyph glyph-name="uni1ED7" unicode="&#x1ed7;" horiz-adv-x="564" 
d="M101 59.5q-66 69.5 -66 190.5t66 190.5t181 69.5t181.5 -69.5t66.5 -190.5t-66.5 -190.5t-181.5 -69.5t-181 69.5zM391 114.5q40 49.5 40 135.5t-40 135.5t-109 49.5q-70 0 -109 -49.5t-39 -135.5t39 -135.5t109 -49.5q69 0 109 49.5zM304 741.5q-14 6.5 -32 18.5
q-17 11 -26.5 15.5t-19.5 4.5q-27 0 -36 -40h-48q8 43 29.5 67t56.5 24q16 0 31.5 -6t35.5 -18q3 -1 13 -7t18.5 -8.5t15.5 -2.5q28 0 36 41h46q-6 -45 -30 -70t-61 -25q-15 0 -29 6.5zM250 704h63l120 -150h-87l-64 85l-65 -85h-86z" />
    </font>
</defs>
</svg>
